<svg xmlns="http://www.w3.org/2000/svg" xmlns:xlink="http://www.w3.org/1999/xlink" width="267px" height="180px" viewBox="0 0 266 180"><defs><filter id="alpha" filterUnits="objectBoundingBox" x="0%" y="0%" width="100%" height="100%"></filter><mask id="mask0"><g filter="url(#alpha)"><rect x="0" y="0" width="266" height="180" style="fill:rgb(0%,0%,0%);fill-opacity:0.627451;stroke:none;"></rect></g></mask><clipPath id="clip1"><rect x="0" y="0" width="266" height="181"></rect></clipPath><g id="surface5" clip-path="url(#clip1)"><path style=" stroke:none;fill-rule:nonzero;fill:rgb(1.960784%,4.705882%,16.078431%);fill-opacity:1;" d="M 61.296875 32.59375 C 60.921875 32.699219 60.632812 32.992188 60.53125 33.371094 C 60.347656 34.109375 60.109375 35.117188 59.691406 36.332031 C 59.335938 37.375 58.792969 38.765625 57.820312 40.828125 C 57.390625 41.75 56.800781 42.945312 56.269531 44.382812 C 55.753906 45.765625 55.257812 47.457031 54.949219 49.546875 C 54.65625 51.558594 54.527344 53.976562 54.722656 56.90625 C 54.914062 59.742188 55.410156 63.085938 56.363281 67.078125 C 57.292969 70.96875 58.648438 75.464844 60.324219 80.234375 C 61.964844 84.890625 63.898438 89.789062 65.988281 94.535156 C 68.039062 99.1875 70.242188 103.695312 72.445312 107.632812 C 73.535156 109.578125 74.625 111.382812 75.699219 112.996094 C 76.769531 114.601562 77.820312 116.023438 78.851562 117.207031 C 79.875 118.382812 80.875 119.316406 81.855469 120.035156 C 82.835938 120.753906 83.804688 121.253906 84.765625 121.535156 C 85.722656 121.8125 86.671875 121.871094 87.570312 121.710938 C 88.464844 121.550781 89.304688 121.179688 90.058594 120.664062 C 90.8125 120.148438 91.492188 119.480469 92.105469 118.710938 C 92.722656 117.941406 93.269531 117.074219 93.777344 116.117188 C 94.789062 114.203125 95.605469 111.957031 96.257812 109.578125 C 97.566406 104.816406 98.207031 99.539062 98.617188 95.09375 C 98.820312 92.855469 98.964844 90.832031 99.101562 89.191406 C 99.171875 88.363281 99.238281 87.632812 99.308594 87.03125 C 99.320312 86.90625 99.335938 86.8125 99.351562 86.699219 C 99.359375 86.714844 99.363281 86.722656 99.375 86.734375 C 99.871094 87.566406 100.476562 88.644531 101.257812 89.867188 C 102.050781 91.109375 102.992188 92.453125 104.132812 93.769531 C 105.296875 95.121094 106.644531 96.414062 108.144531 97.476562 C 109.695312 98.570312 111.394531 99.402344 113.210938 99.753906 C 114.144531 99.933594 115.101562 99.980469 116.066406 99.878906 C 117.054688 99.773438 118.050781 99.511719 119.027344 99.074219 C 120.027344 98.628906 121.007812 98.003906 121.964844 97.203125 C 122.945312 96.382812 123.894531 95.378906 124.820312 94.179688 C 126.757812 91.679688 128.574219 88.363281 130.300781 84.613281 C 132.160156 80.578125 133.941406 75.96875 135.617188 71.25 C 139.367188 60.699219 143.359375 47.25 146.09375 38.125 C 146.25 37.554688 145.917969 36.964844 145.355469 36.792969 C 144.789062 36.625 144.1875 36.9375 144.003906 37.496094 C 141.265625 46.628906 137.28125 60.0625 133.5625 70.519531 C 131.898438 75.199219 130.128906 79.753906 128.3125 83.699219 C 126.625 87.363281 124.863281 90.566406 123.097656 92.847656 C 122.253906 93.9375 121.40625 94.824219 120.566406 95.53125 C 119.746094 96.214844 118.933594 96.722656 118.136719 97.078125 C 117.359375 97.425781 116.597656 97.625 115.839844 97.703125 C 115.097656 97.78125 114.359375 97.742188 113.621094 97.601562 C 112.1875 97.324219 110.765625 96.652344 109.402344 95.691406 C 108.085938 94.761719 106.855469 93.582031 105.78125 92.339844 C 104.734375 91.128906 103.847656 89.871094 103.09375 88.6875 C 102.347656 87.523438 101.769531 86.484375 101.25 85.617188 C 101 85.195312 100.773438 84.828125 100.542969 84.511719 C 100.429688 84.351562 100.3125 84.199219 100.183594 84.058594 C 100.054688 83.921875 99.914062 83.789062 99.707031 83.664062 C 99.601562 83.601562 99.480469 83.542969 99.328125 83.5 C 99.179688 83.460938 98.996094 83.4375 98.816406 83.457031 C 98.632812 83.476562 98.449219 83.539062 98.300781 83.625 C 98.148438 83.710938 98.039062 83.816406 97.945312 83.921875 C 97.851562 84.023438 97.78125 84.121094 97.726562 84.222656 C 97.667969 84.320312 97.625 84.417969 97.585938 84.515625 C 97.503906 84.714844 97.445312 84.925781 97.394531 85.152344 C 97.339844 85.375 97.296875 85.617188 97.253906 85.886719 C 97.210938 86.160156 97.171875 86.457031 97.136719 86.78125 C 97.0625 87.421875 96.992188 88.171875 96.921875 89.007812 C 96.785156 90.667969 96.644531 92.683594 96.445312 94.894531 C 96.042969 99.289062 95.398438 104.46875 94.152344 109.003906 C 93.53125 111.269531 92.757812 113.375 91.847656 115.09375 C 91.394531 115.953125 90.90625 116.710938 90.398438 117.347656 C 89.890625 117.984375 89.359375 118.492188 88.824219 118.859375 C 88.285156 119.226562 87.753906 119.460938 87.195312 119.558594 C 86.632812 119.660156 86.042969 119.628906 85.375 119.433594 C 84.707031 119.238281 83.960938 118.871094 83.144531 118.277344 C 82.328125 117.675781 81.441406 116.851562 80.5 115.769531 C 79.554688 114.683594 78.550781 113.335938 77.519531 111.789062 C 76.480469 110.230469 75.421875 108.46875 74.351562 106.5625 C 72.191406 102.707031 70.019531 98.261719 67.992188 93.65625 C 65.925781 88.964844 64.003906 84.113281 62.386719 79.511719 C 60.730469 74.800781 59.390625 70.367188 58.484375 66.578125 C 57.554688 62.6875 57.082031 59.457031 56.902344 56.757812 C 56.714844 53.972656 56.835938 51.71875 57.109375 49.867188 C 57.390625 47.941406 57.84375 46.410156 58.316406 45.140625 C 58.804688 43.828125 59.347656 42.714844 59.796875 41.765625 C 60.792969 39.644531 61.371094 38.164062 61.753906 37.039062 C 62.203125 35.722656 62.472656 34.628906 62.652344 33.902344 C 62.742188 33.523438 62.625 33.128906 62.34375 32.863281 C 62.066406 32.59375 61.667969 32.492188 61.296875 32.597656 Z M 61.296875 32.59375 "></path></g><mask id="mask1"><g filter="url(#alpha)"><rect x="0" y="0" width="266" height="180" style="fill:rgb(0%,0%,0%);fill-opacity:0.627451;stroke:none;"></rect></g></mask><clipPath id="clip2"><rect x="0" y="0" width="266" height="181"></rect></clipPath><g id="surface8" clip-path="url(#clip2)"><path style=" stroke:none;fill-rule:nonzero;fill:rgb(1.960784%,4.705882%,16.078431%);fill-opacity:1;" d="M 141.832031 0.0078125 C 140.453125 -0.0390625 139.097656 0.128906 137.8125 0.523438 C 136.519531 0.921875 135.296875 1.550781 134.210938 2.410156 C 133.117188 3.277344 132.15625 4.375 131.367188 5.699219 C 130.574219 7.03125 129.972656 8.566406 129.511719 10.277344 C 129.046875 12.003906 128.738281 13.910156 128.546875 15.964844 C 128.164062 20.148438 128.292969 24.957031 128.785156 30.148438 C 129.289062 35.507812 130.175781 41.28125 131.292969 47.191406 C 132.460938 53.355469 133.894531 59.710938 135.417969 65.925781 C 137 72.378906 139.191406 79.21875 141.125 86.035156 C 140.269531 86.957031 139.382812 87.886719 138.714844 88.554688 C 138.300781 88.984375 138.304688 89.664062 138.722656 90.089844 C 139.144531 90.511719 139.828125 90.519531 140.257812 90.105469 C 140.671875 89.6875 141.28125 89.019531 141.816406 88.46875 C 148.269531 110.949219 155.402344 133.417969 159.3125 145.363281 C 159.5 145.9375 160.117188 146.25 160.6875 146.0625 C 161.261719 145.878906 161.574219 145.261719 161.390625 144.6875 C 157.398438 132.496094 150.070312 109.449219 143.554688 86.617188 C 144.519531 85.511719 145.601562 84.179688 146.742188 82.445312 C 148.757812 79.378906 151.113281 74.902344 153.730469 67.417969 C 154.921875 64.007812 156.203125 59.886719 157.367188 55.355469 C 158.484375 51.023438 159.496094 46.265625 160.210938 41.425781 C 160.902344 36.738281 161.316406 31.945312 161.226562 27.382812 C 161.140625 22.921875 160.582031 18.667969 159.304688 14.949219 C 158.042969 11.28125 156.097656 8.191406 153.761719 5.789062 C 151.441406 3.402344 148.75 1.699219 145.984375 0.78125 C 144.601562 0.324219 143.207031 0.0585938 141.832031 0.0078125 Z M 141.75 2.199219 C 142.902344 2.238281 144.101562 2.457031 145.300781 2.851562 C 147.699219 3.648438 150.109375 5.160156 152.199219 7.3125 C 154.304688 9.480469 156.078125 12.292969 157.234375 15.664062 C 158.410156 19.082031 158.964844 23.125 159.046875 27.429688 C 159.132812 31.828125 158.730469 36.511719 158.054688 41.109375 C 157.351562 45.855469 156.347656 50.539062 155.246094 54.8125 C 154.101562 59.277344 152.839844 63.34375 151.667969 66.691406 C 149.097656 74.050781 146.832031 78.339844 144.925781 81.242188 C 144.167969 82.394531 143.5 83.160156 142.816406 84 C 141.046875 77.703125 139 71.367188 137.539062 65.410156 C 136.019531 59.222656 134.601562 52.902344 133.445312 46.785156 C 132.335938 40.925781 131.453125 35.207031 130.957031 29.941406 C 130.476562 24.839844 130.355469 20.148438 130.71875 16.164062 C 130.898438 14.207031 131.195312 12.417969 131.617188 10.84375 C 132.039062 9.28125 132.582031 7.933594 133.246094 6.820312 C 133.90625 5.710938 134.6875 4.816406 135.566406 4.121094 C 136.4375 3.429688 137.410156 2.929688 138.453125 2.609375 C 139.488281 2.292969 140.597656 2.15625 141.75 2.199219 Z M 141.75 2.199219 "></path><path style=" stroke:none;fill-rule:nonzero;fill:rgb(58.039216%,95.294118%,95.294118%);fill-opacity:0.768627;" d="M 160.351562 145.023438 C 155.109375 129.003906 143.445312 94.09375 136.476562 65.667969 C 134.957031 59.464844 133.53125 53.128906 132.367188 46.988281 C 131.253906 41.105469 130.371094 35.359375 129.871094 30.046875 C 129.382812 24.902344 129.257812 20.148438 129.632812 16.0625 C 129.816406 14.058594 130.121094 12.214844 130.566406 10.5625 C 131.003906 8.925781 131.578125 7.480469 132.308594 6.257812 C 133.03125 5.042969 133.902344 4.046875 134.890625 3.265625 C 135.871094 2.488281 136.960938 1.925781 138.128906 1.566406 C 139.289062 1.210938 140.523438 1.058594 141.789062 1.101562 C 143.054688 1.148438 144.351562 1.386719 145.640625 1.816406 C 148.226562 2.671875 150.773438 4.277344 152.976562 6.546875 C 155.199219 8.835938 157.0625 11.785156 158.269531 15.304688 C 159.496094 18.875 160.050781 23.023438 160.136719 27.40625 C 160.222656 31.886719 159.820312 36.625 159.132812 41.269531 C 158.425781 46.0625 157.414062 50.78125 156.308594 55.085938 C 155.152344 59.585938 153.882812 63.675781 152.699219 67.054688 C 150.105469 74.476562 147.796875 78.859375 145.832031 81.84375 C 144.683594 83.59375 143.59375 84.945312 142.628906 86.042969 C 141.515625 87.304688 140.339844 88.472656 139.488281 89.328125 C 140.339844 88.472656 141.515625 87.304688 142.628906 86.042969 C 143.59375 84.945312 144.683594 83.59375 145.832031 81.84375 C 147.796875 78.859375 150.105469 74.476562 152.699219 67.054688 C 153.882812 63.675781 155.152344 59.585938 156.308594 55.085938 C 157.414062 50.78125 158.425781 46.0625 159.132812 41.269531 C 159.820312 36.625 160.222656 31.886719 160.136719 27.40625 C 160.050781 23.023438 159.496094 18.875 158.269531 15.304688 C 157.0625 11.785156 155.199219 8.835938 152.976562 6.546875 C 150.773438 4.277344 148.226562 2.671875 145.640625 1.816406 C 144.351562 1.386719 143.054688 1.148438 141.789062 1.101562 C 140.523438 1.058594 139.289062 1.210938 138.128906 1.566406 C 136.960938 1.925781 135.871094 2.488281 134.890625 3.265625 C 133.902344 4.046875 133.03125 5.042969 132.308594 6.257812 C 131.578125 7.480469 131.003906 8.925781 130.566406 10.5625 C 130.121094 12.214844 129.816406 14.058594 129.632812 16.0625 C 129.257812 20.148438 129.382812 24.902344 129.871094 30.046875 C 130.371094 35.359375 131.253906 41.105469 132.367188 46.988281 C 133.53125 53.128906 134.957031 59.464844 136.476562 65.667969 C 143.445312 94.09375 155.109375 129.003906 160.351562 145.023438 Z M 160.351562 145.023438 "></path></g><mask id="mask2"><g filter="url(#alpha)"><rect x="0" y="0" width="266" height="180" style="fill:rgb(0%,0%,0%);fill-opacity:0.627451;stroke:none;"></rect></g></mask><clipPath id="clip3"><rect x="0" y="0" width="266" height="181"></rect></clipPath><g id="surface11" clip-path="url(#clip3)"><path style=" stroke:none;fill-rule:nonzero;fill:rgb(1.960784%,4.705882%,16.078431%);fill-opacity:0.768627;" d="M 15.691406 99.074219 C 13.914062 101.96875 12.003906 105.070312 10.261719 108.046875 C 8.589844 110.902344 6.980469 113.789062 5.636719 116.539062 C 4.347656 119.175781 3.28125 121.734375 2.621094 124.074219 C 2.300781 125.210938 2.074219 126.304688 1.96875 127.332031 C 1.863281 128.34375 1.875 129.296875 2.019531 130.171875 C 2.164062 131.035156 2.441406 131.828125 2.832031 132.574219 C 3.210938 133.304688 3.699219 133.992188 4.273438 134.664062 C 4.835938 135.320312 5.476562 135.960938 6.175781 136.609375 C 6.871094 137.253906 7.597656 137.894531 8.371094 138.585938 C 9.859375 139.921875 11.480469 141.425781 12.945312 143.292969 C 14.375 145.113281 15.691406 147.316406 16.625 150.132812 C 17.542969 152.890625 18.097656 156.234375 18.425781 159.703125 C 18.75 163.09375 18.851562 166.550781 18.878906 169.601562 C 18.894531 171.097656 18.890625 172.472656 18.886719 173.683594 C 18.886719 174.875 18.882812 175.898438 18.902344 176.667969 C 18.910156 177.050781 18.925781 177.371094 18.945312 177.621094 C 18.957031 177.75 18.96875 177.855469 18.984375 177.945312 C 18.992188 177.988281 19 178.03125 19.007812 178.0625 C 19.015625 178.097656 19.023438 178.128906 19.035156 178.15625 C 19.042969 178.179688 19.054688 178.199219 19.066406 178.214844 C 19.070312 178.222656 19.074219 178.230469 19.082031 178.234375 C 19.085938 178.238281 19.09375 178.242188 19.097656 178.246094 C 19.105469 178.25 19.113281 178.25 19.117188 178.25 C 19.125 178.25 19.132812 178.25 19.136719 178.246094 C 19.144531 178.242188 19.152344 178.238281 19.160156 178.234375 C 19.167969 178.230469 19.171875 178.222656 19.183594 178.214844 C 19.195312 178.199219 19.210938 178.179688 19.230469 178.152344 C 19.246094 178.125 19.261719 178.089844 19.28125 178.054688 C 19.316406 177.976562 19.359375 177.875 19.402344 177.753906 C 19.488281 177.507812 19.589844 177.164062 19.703125 176.734375 C 19.820312 176.308594 19.945312 175.792969 20.085938 175.195312 C 20.363281 174.011719 20.6875 172.507812 21.050781 170.742188 C 21.765625 167.261719 22.625 162.757812 23.546875 157.707031 C 25.335938 147.882812 27.375 135.914062 28.90625 126.003906 C 30.402344 116.335938 31.382812 108.851562 32.125 103.058594 C 32.484375 100.257812 32.78125 97.878906 33.046875 95.949219 C 33.3125 94.035156 33.542969 92.535156 33.777344 91.429688 C 33.894531 90.878906 34.011719 90.425781 34.128906 90.0625 C 34.246094 89.699219 34.363281 89.425781 34.488281 89.234375 C 34.546875 89.140625 34.609375 89.066406 34.671875 89.011719 C 34.703125 88.984375 34.734375 88.960938 34.765625 88.945312 C 34.796875 88.925781 34.828125 88.914062 34.859375 88.90625 C 34.894531 88.898438 34.925781 88.894531 34.957031 88.894531 C 34.988281 88.894531 35.023438 88.902344 35.054688 88.910156 C 35.121094 88.925781 35.191406 88.964844 35.257812 89.019531 C 35.328125 89.074219 35.398438 89.144531 35.46875 89.234375 C 35.542969 89.320312 35.613281 89.421875 35.691406 89.539062 C 35.839844 89.773438 35.996094 90.070312 36.160156 90.417969 C 36.488281 91.105469 36.851562 92 37.257812 93.050781 C 38.835938 97.117188 41.160156 103.59375 44.445312 114.632812 C 46.070312 120.097656 47.890625 126.539062 49.804688 133.167969 C 51.671875 139.636719 53.59375 146.167969 55.339844 151.53125 C 56.207031 154.191406 57.035156 156.574219 57.8125 158.574219 C 58.199219 159.570312 58.574219 160.46875 58.933594 161.265625 C 59.296875 162.058594 59.644531 162.742188 59.976562 163.308594 C 60.308594 163.875 60.628906 164.320312 60.933594 164.636719 C 61.082031 164.792969 61.230469 164.917969 61.375 165.007812 C 61.519531 165.097656 61.660156 165.152344 61.792969 165.171875 C 61.863281 165.183594 61.929688 165.183594 61.996094 165.175781 C 62.0625 165.167969 62.125 165.148438 62.1875 165.125 C 62.316406 165.070312 62.441406 164.980469 62.558594 164.851562 C 62.679688 164.722656 62.792969 164.554688 62.902344 164.34375 C 63.011719 164.136719 63.117188 163.886719 63.21875 163.597656 C 63.421875 163.019531 63.605469 162.273438 63.777344 161.402344 C 63.953125 160.535156 64.109375 159.542969 64.265625 158.472656 C 64.574219 156.335938 64.855469 153.90625 65.160156 151.5 C 65.460938 149.113281 65.789062 146.769531 66.183594 144.832031 C 66.382812 143.867188 66.597656 143.003906 66.835938 142.285156 C 66.953125 141.929688 67.078125 141.605469 67.210938 141.328125 C 67.339844 141.050781 67.480469 140.8125 67.625 140.625 C 67.769531 140.4375 67.921875 140.296875 68.082031 140.195312 C 68.242188 140.097656 68.40625 140.042969 68.578125 140.027344 C 68.75 140.007812 68.929688 140.027344 69.117188 140.078125 C 69.300781 140.128906 69.492188 140.214844 69.691406 140.324219 C 70.085938 140.542969 70.503906 140.867188 70.945312 141.257812 C 71.382812 141.644531 71.84375 142.097656 72.320312 142.566406 C 73.273438 143.507812 74.304688 144.53125 75.386719 145.289062 C 75.925781 145.667969 76.476562 145.980469 77.039062 146.183594 C 77.601562 146.386719 78.171875 146.480469 78.75 146.421875 C 79.332031 146.363281 79.917969 146.152344 80.511719 145.828125 C 81.105469 145.503906 81.710938 145.066406 82.324219 144.554688 C 83.550781 143.527344 84.816406 142.203125 86.136719 140.878906 C 87.453125 139.5625 88.824219 138.246094 90.257812 137.25 C 90.972656 136.753906 91.703125 136.332031 92.453125 136.03125 C 93.199219 135.730469 93.964844 135.542969 94.75 135.515625 C 95.53125 135.484375 96.332031 135.613281 97.144531 135.863281 C 97.953125 136.109375 98.777344 136.476562 99.597656 136.929688 C 101.242188 137.832031 102.894531 139.070312 104.488281 140.363281 C 106.082031 141.652344 107.617188 142.996094 109.03125 144.101562 C 109.738281 144.652344 110.410156 145.148438 111.046875 145.546875 C 111.683594 145.945312 112.28125 146.25 112.832031 146.425781 C 113.382812 146.597656 113.882812 146.640625 114.351562 146.582031 C 114.820312 146.527344 115.25 146.367188 115.65625 146.136719 C 116.066406 145.90625 116.449219 145.605469 116.816406 145.261719 C 117.1875 144.914062 117.542969 144.53125 117.898438 144.132812 C 118.253906 143.730469 118.605469 143.320312 118.96875 142.925781 C 119.332031 142.53125 119.707031 142.152344 120.097656 141.820312 C 120.492188 141.488281 120.90625 141.203125 121.351562 140.996094 C 121.800781 140.785156 122.277344 140.652344 122.800781 140.621094 C 123.324219 140.589844 123.890625 140.667969 124.484375 140.824219 C 125.082031 140.980469 125.710938 141.214844 126.359375 141.507812 C 127.652344 142.085938 129.019531 142.886719 130.367188 143.699219 C 131.714844 144.507812 133.042969 145.335938 134.246094 145.972656 C 134.851562 146.292969 135.421875 146.566406 135.953125 146.765625 C 136.484375 146.964844 136.972656 147.089844 137.40625 147.121094 C 137.625 147.136719 137.828125 147.125 138.019531 147.09375 C 138.210938 147.0625 138.390625 147.007812 138.5625 146.933594 C 138.902344 146.785156 139.207031 146.558594 139.488281 146.273438 C 139.765625 145.988281 140.023438 145.640625 140.277344 145.253906 C 140.527344 144.867188 140.769531 144.4375 141.023438 143.988281 C 141.53125 143.089844 142.074219 142.101562 142.78125 141.179688 C 143.492188 140.257812 144.359375 139.402344 145.519531 138.761719 C 146.101562 138.445312 146.753906 138.179688 147.457031 137.949219 C 148.164062 137.71875 148.917969 137.527344 149.707031 137.351562 C 151.285156 136.996094 152.988281 136.714844 154.652344 136.351562 C 156.320312 135.988281 157.949219 135.546875 159.378906 134.878906 C 160.09375 134.542969 160.761719 134.148438 161.355469 133.683594 C 161.949219 133.214844 162.476562 132.671875 162.910156 132.035156 C 163.34375 131.394531 163.6875 130.664062 163.957031 129.871094 C 164.226562 129.078125 164.425781 128.226562 164.566406 127.34375 C 164.847656 125.582031 164.90625 123.710938 164.875 122.003906 C 164.859375 121.144531 164.824219 120.332031 164.785156 119.589844 C 164.742188 118.847656 164.699219 118.175781 164.664062 117.617188 C 164.648438 117.335938 164.636719 117.082031 164.628906 116.855469 C 164.621094 116.632812 164.617188 116.441406 164.621094 116.285156 C 164.625 116.207031 164.628906 116.136719 164.636719 116.074219 C 164.644531 116.015625 164.652344 115.964844 164.664062 115.921875 C 164.667969 115.902344 164.675781 115.882812 164.679688 115.867188 C 164.6875 115.851562 164.695312 115.835938 164.703125 115.828125 C 164.710938 115.816406 164.71875 115.808594 164.730469 115.804688 C 164.75 115.796875 164.753906 115.796875 164.761719 115.796875 C 164.769531 115.796875 164.78125 115.800781 164.796875 115.804688 C 164.808594 115.808594 164.820312 115.820312 164.835938 115.828125 C 164.863281 115.851562 164.890625 115.878906 164.925781 115.921875 C 164.957031 115.960938 164.996094 116.011719 165.035156 116.070312 C 165.074219 116.128906 165.113281 116.199219 165.160156 116.273438 C 165.246094 116.425781 165.347656 116.613281 165.457031 116.824219 C 165.566406 117.039062 165.6875 117.277344 165.816406 117.539062 C 166.078125 118.0625 166.378906 118.675781 166.714844 119.332031 C 167.054688 119.988281 167.425781 120.691406 167.832031 121.394531 C 168.644531 122.804688 169.585938 124.214844 170.628906 125.289062 C 171.148438 125.828125 171.695312 126.28125 172.265625 126.609375 C 172.546875 126.773438 172.839844 126.902344 173.132812 126.996094 C 173.425781 127.089844 173.726562 127.148438 174.03125 127.164062 C 174.335938 127.175781 174.644531 127.148438 174.957031 127.082031 C 175.269531 127.015625 175.585938 126.914062 175.90625 126.78125 C 176.550781 126.511719 177.207031 126.113281 177.875 125.632812 C 179.21875 124.671875 180.613281 123.367188 182.027344 122.082031 C 183.453125 120.789062 184.898438 119.507812 186.351562 118.578125 C 187.082031 118.109375 187.8125 117.734375 188.539062 117.488281 C 189.269531 117.242188 190 117.125 190.722656 117.183594 C 191.449219 117.242188 192.171875 117.476562 192.882812 117.839844 C 193.597656 118.207031 194.304688 118.707031 195 119.300781 C 196.394531 120.488281 197.742188 122.050781 199.015625 123.65625 C 200.214844 125.171875 201.390625 126.800781 202.59375 128.316406 C 203.144531 129.011719 203.667969 129.636719 204.164062 130.152344 C 204.660156 130.671875 205.125 131.082031 205.558594 131.34375 C 205.777344 131.472656 205.988281 131.566406 206.1875 131.625 C 206.390625 131.683594 206.585938 131.710938 206.773438 131.703125 C 206.964844 131.699219 207.148438 131.664062 207.324219 131.601562 C 207.503906 131.539062 207.675781 131.449219 207.847656 131.332031 C 208.1875 131.105469 208.515625 130.777344 208.835938 130.386719 C 209.15625 129.992188 209.46875 129.527344 209.789062 129.019531 C 210.429688 128 211.082031 126.808594 211.820312 125.660156 C 212.5625 124.5 213.386719 123.386719 214.371094 122.519531 C 215.363281 121.644531 216.511719 121.019531 217.71875 120.519531 C 218.933594 120.011719 220.222656 119.625 221.476562 119.238281 C 222.746094 118.84375 223.976562 118.445312 225.101562 117.914062 C 225.664062 117.648438 226.199219 117.347656 226.695312 117 C 227.191406 116.648438 227.644531 116.25 228.050781 115.789062 C 228.863281 114.855469 229.46875 113.667969 229.902344 112.230469 C 230.339844 110.78125 230.597656 109.082031 230.710938 107.148438 C 230.945312 103.226562 230.585938 98.316406 229.902344 92.589844 C 229.199219 86.734375 228.144531 79.949219 227.179688 73.996094 C 226.6875 70.964844 226.199219 68.058594 225.792969 65.601562 C 225.378906 63.078125 225.03125 60.964844 224.800781 59.402344 C 224.6875 58.617188 224.601562 57.976562 224.539062 57.464844 C 224.480469 56.945312 224.445312 56.558594 224.433594 56.28125 C 224.429688 56.144531 224.429688 56.03125 224.433594 55.949219 C 224.4375 55.90625 224.441406 55.871094 224.445312 55.839844 C 224.453125 55.808594 224.457031 55.789062 224.46875 55.769531 C 224.472656 55.761719 224.476562 55.753906 224.484375 55.746094 C 224.488281 55.738281 224.496094 55.734375 224.5 55.734375 C 224.503906 55.734375 224.511719 55.730469 224.519531 55.730469 C 224.527344 55.730469 224.53125 55.734375 224.535156 55.734375 C 224.542969 55.738281 224.550781 55.742188 224.558594 55.746094 C 224.566406 55.753906 224.574219 55.757812 224.582031 55.769531 C 224.597656 55.785156 224.617188 55.808594 224.632812 55.835938 C 224.671875 55.890625 224.710938 55.964844 224.753906 56.058594 C 224.800781 56.152344 224.847656 56.265625 224.902344 56.390625 C 225.007812 56.652344 225.128906 56.976562 225.261719 57.347656 C 225.53125 58.101562 225.855469 59.070312 226.199219 60.101562 C 226.917969 62.261719 227.71875 64.65625 229.007812 67.757812 C 230.351562 70.980469 232.160156 74.816406 234.777344 79.59375 C 237.53125 84.625 241.074219 90.53125 244.515625 95.722656 C 246.3125 98.433594 248.074219 100.945312 249.707031 103.085938 C 250.542969 104.183594 251.34375 105.183594 252.101562 106.0625 C 252.867188 106.960938 253.585938 107.734375 254.246094 108.363281 C 254.917969 109.007812 255.53125 109.507812 256.089844 109.882812 C 256.65625 110.265625 257.175781 110.523438 257.644531 110.675781 C 258.125 110.832031 258.5625 110.882812 258.957031 110.851562 C 259.363281 110.816406 259.730469 110.695312 260.066406 110.507812 C 260.410156 110.316406 260.726562 110.058594 261.015625 109.753906 C 261.3125 109.4375 261.582031 109.078125 261.839844 108.6875 C 262.363281 107.882812 262.839844 106.929688 263.285156 106.035156 C 262.839844 106.929688 262.363281 107.882812 261.839844 108.6875 C 261.582031 109.078125 261.3125 109.4375 261.015625 109.75 C 260.726562 110.058594 260.410156 110.316406 260.066406 110.507812 C 259.730469 110.695312 259.363281 110.816406 258.957031 110.851562 C 258.5625 110.882812 258.125 110.835938 257.644531 110.675781 C 257.175781 110.523438 256.65625 110.265625 256.089844 109.882812 C 255.53125 109.507812 254.917969 109.007812 254.246094 108.363281 C 253.585938 107.734375 252.867188 106.960938 252.101562 106.0625 C 251.34375 105.183594 250.542969 104.183594 249.707031 103.085938 C 248.074219 100.945312 246.3125 98.433594 244.515625 95.722656 C 241.074219 90.53125 237.53125 84.625 234.777344 79.59375 C 232.160156 74.816406 230.351562 70.980469 229.007812 67.757812 C 227.71875 64.65625 226.917969 62.261719 226.199219 60.101562 C 225.855469 59.070312 225.53125 58.101562 225.261719 57.347656 C 225.128906 56.972656 225.007812 56.648438 224.902344 56.390625 C 224.847656 56.265625 224.800781 56.152344 224.753906 56.058594 C 224.710938 55.964844 224.667969 55.890625 224.632812 55.835938 C 224.613281 55.808594 224.597656 55.785156 224.582031 55.769531 C 224.574219 55.761719 224.566406 55.753906 224.558594 55.746094 C 224.550781 55.738281 224.542969 55.734375 224.535156 55.734375 C 224.53125 55.734375 224.527344 55.730469 224.519531 55.730469 C 224.511719 55.730469 224.507812 55.734375 224.5 55.734375 C 224.496094 55.738281 224.488281 55.742188 224.484375 55.746094 C 224.480469 55.753906 224.476562 55.757812 224.46875 55.769531 C 224.460938 55.789062 224.453125 55.8125 224.445312 55.839844 C 224.4375 55.871094 224.433594 55.90625 224.433594 55.949219 C 224.425781 56.03125 224.425781 56.144531 224.433594 56.28125 C 224.445312 56.558594 224.480469 56.945312 224.539062 57.464844 C 224.601562 57.976562 224.6875 58.617188 224.800781 59.402344 C 225.03125 60.964844 225.378906 63.078125 225.792969 65.601562 C 226.199219 68.058594 226.6875 70.964844 227.179688 73.996094 C 228.144531 79.949219 229.199219 86.734375 229.902344 92.589844 C 230.585938 98.316406 230.945312 103.226562 230.710938 107.148438 C 230.597656 109.082031 230.339844 110.78125 229.902344 112.230469 C 229.46875 113.667969 228.863281 114.855469 228.050781 115.789062 C 227.644531 116.25 227.191406 116.648438 226.695312 117 C 226.199219 117.347656 225.664062 117.648438 225.101562 117.914062 C 223.976562 118.445312 222.746094 118.84375 221.476562 119.238281 C 220.222656 119.625 218.933594 120.011719 217.71875 120.519531 C 216.511719 121.019531 215.363281 121.644531 214.371094 122.519531 C 213.386719 123.386719 212.5625 124.5 211.820312 125.660156 C 211.082031 126.808594 210.429688 128 209.789062 129.019531 C 209.46875 129.527344 209.15625 129.992188 208.835938 130.386719 C 208.515625 130.777344 208.1875 131.105469 207.847656 131.332031 C 207.675781 131.449219 207.503906 131.539062 207.324219 131.601562 C 207.148438 131.664062 206.964844 131.699219 206.773438 131.703125 C 206.585938 131.707031 206.390625 131.6875 206.1875 131.625 C 205.988281 131.566406 205.777344 131.472656 205.558594 131.34375 C 205.125 131.082031 204.660156 130.671875 204.164062 130.152344 C 203.667969 129.636719 203.144531 129.011719 202.59375 128.316406 C 201.417969 126.832031 200.1875 125.136719 199.015625 123.65625 C 197.742188 122.050781 196.394531 120.488281 195 119.300781 C 194.304688 118.707031 193.597656 118.207031 192.882812 117.839844 C 192.171875 117.476562 191.449219 117.242188 190.722656 117.183594 C 190 117.125 189.269531 117.242188 188.539062 117.488281 C 187.8125 117.734375 187.082031 118.109375 186.351562 118.578125 C 184.898438 119.507812 183.453125 120.789062 182.027344 122.082031 C 180.613281 123.367188 179.21875 124.671875 177.875 125.632812 C 177.207031 126.113281 176.550781 126.511719 175.90625 126.78125 C 175.585938 126.914062 175.269531 127.015625 174.957031 127.082031 C 174.644531 127.148438 174.335938 127.175781 174.03125 127.164062 C 173.726562 127.148438 173.425781 127.089844 173.132812 126.996094 C 172.839844 126.902344 172.546875 126.773438 172.265625 126.609375 C 171.695312 126.28125 171.148438 125.828125 170.628906 125.289062 C 169.585938 124.214844 168.644531 122.804688 167.832031 121.394531 C 167.425781 120.691406 167.054688 119.988281 166.714844 119.332031 C 166.378906 118.675781 166.078125 118.0625 165.816406 117.539062 C 165.6875 117.277344 165.566406 117.039062 165.457031 116.824219 C 165.347656 116.613281 165.246094 116.425781 165.160156 116.273438 C 165.113281 116.199219 165.074219 116.128906 165.035156 116.070312 C 164.996094 116.011719 164.957031 115.960938 164.925781 115.921875 C 164.890625 115.878906 164.863281 115.847656 164.835938 115.828125 C 164.820312 115.816406 164.808594 115.808594 164.796875 115.804688 C 164.78125 115.800781 164.769531 115.796875 164.761719 115.796875 C 164.753906 115.796875 164.75 115.796875 164.746094 115.800781 C 164.71875 115.808594 164.710938 115.816406 164.703125 115.828125 C 164.695312 115.839844 164.6875 115.851562 164.679688 115.867188 C 164.675781 115.882812 164.667969 115.902344 164.664062 115.921875 C 164.652344 115.964844 164.644531 116.015625 164.636719 116.078125 C 164.628906 116.136719 164.625 116.207031 164.621094 116.285156 C 164.617188 116.441406 164.621094 116.636719 164.628906 116.859375 C 164.636719 117.082031 164.648438 117.335938 164.664062 117.617188 C 164.699219 118.179688 164.742188 118.847656 164.785156 119.589844 C 164.824219 120.332031 164.859375 121.148438 164.875 122.003906 C 164.90625 123.710938 164.847656 125.585938 164.566406 127.347656 C 164.425781 128.226562 164.226562 129.082031 163.957031 129.875 C 163.6875 130.667969 163.34375 131.398438 162.910156 132.035156 C 162.476562 132.671875 161.949219 133.21875 161.355469 133.683594 C 160.761719 134.152344 160.09375 134.542969 159.378906 134.878906 C 157.949219 135.550781 156.320312 135.992188 154.652344 136.355469 C 152.988281 136.714844 151.285156 137 149.707031 137.351562 C 148.917969 137.527344 148.164062 137.722656 147.457031 137.949219 C 146.753906 138.179688 146.101562 138.445312 145.519531 138.765625 C 144.359375 139.402344 143.492188 140.261719 142.78125 141.183594 C 142.074219 142.105469 141.53125 143.089844 141.023438 143.992188 C 140.773438 144.441406 140.527344 144.867188 140.277344 145.253906 C 140.023438 145.640625 139.765625 145.988281 139.488281 146.273438 C 139.207031 146.5625 138.902344 146.789062 138.5625 146.9375 C 138.390625 147.011719 138.210938 147.0625 138.019531 147.097656 C 137.828125 147.125 137.625 147.136719 137.40625 147.121094 C 136.972656 147.09375 136.484375 146.964844 135.953125 146.765625 C 135.421875 146.566406 134.851562 146.296875 134.246094 145.976562 C 133.042969 145.339844 131.714844 144.511719 130.367188 143.699219 C 129.019531 142.886719 127.652344 142.089844 126.359375 141.507812 C 125.710938 141.21875 125.082031 140.984375 124.484375 140.828125 C 123.890625 140.671875 123.324219 140.59375 122.800781 140.625 C 122.277344 140.652344 121.800781 140.785156 121.351562 140.996094 C 120.90625 141.207031 120.492188 141.492188 120.097656 141.824219 C 119.707031 142.15625 119.332031 142.53125 118.96875 142.929688 C 118.605469 143.324219 118.253906 143.734375 117.898438 144.132812 C 117.542969 144.53125 117.1875 144.917969 116.816406 145.261719 C 116.449219 145.605469 116.066406 145.910156 115.65625 146.136719 C 115.25 146.371094 114.820312 146.527344 114.351562 146.585938 C 113.882812 146.644531 113.382812 146.601562 112.832031 146.425781 C 112.28125 146.253906 111.683594 145.949219 111.046875 145.550781 C 110.410156 145.148438 109.738281 144.65625 109.03125 144.101562 C 107.617188 142.996094 106.082031 141.65625 104.488281 140.363281 C 102.894531 139.070312 101.242188 137.832031 99.597656 136.929688 C 98.777344 136.476562 97.953125 136.109375 97.144531 135.863281 C 96.332031 135.617188 95.53125 135.488281 94.75 135.515625 C 93.964844 135.546875 93.199219 135.730469 92.453125 136.03125 C 91.703125 136.335938 90.972656 136.753906 90.257812 137.253906 C 88.824219 138.25 87.453125 139.5625 86.136719 140.882812 C 84.816406 142.203125 83.550781 143.527344 82.324219 144.554688 C 81.710938 145.070312 81.105469 145.507812 80.511719 145.832031 C 79.917969 146.15625 79.332031 146.367188 78.75 146.425781 C 78.171875 146.484375 77.601562 146.390625 77.039062 146.1875 C 76.476562 145.984375 75.925781 145.671875 75.386719 145.292969 C 74.304688 144.535156 73.273438 143.511719 72.320312 142.570312 C 71.84375 142.097656 71.382812 141.648438 70.945312 141.257812 C 70.503906 140.871094 70.085938 140.546875 69.691406 140.324219 C 69.492188 140.214844 69.300781 140.132812 69.117188 140.082031 C 68.929688 140.03125 68.75 140.011719 68.578125 140.027344 C 68.40625 140.046875 68.242188 140.101562 68.082031 140.199219 C 67.921875 140.296875 67.769531 140.4375 67.625 140.625 C 67.480469 140.816406 67.34375 141.050781 67.210938 141.328125 C 67.078125 141.609375 66.953125 141.929688 66.835938 142.289062 C 66.597656 143.003906 66.382812 143.871094 66.183594 144.835938 C 65.789062 146.769531 65.464844 149.117188 65.160156 151.503906 C 64.855469 153.910156 64.574219 156.339844 64.265625 158.476562 C 64.113281 159.546875 63.953125 160.535156 63.78125 161.402344 C 63.605469 162.273438 63.421875 163.019531 63.21875 163.601562 C 63.117188 163.890625 63.011719 164.140625 62.902344 164.347656 C 62.792969 164.554688 62.679688 164.722656 62.558594 164.851562 C 62.441406 164.980469 62.316406 165.070312 62.191406 165.125 C 62.125 165.152344 62.0625 165.167969 61.996094 165.175781 C 61.929688 165.183594 61.863281 165.183594 61.792969 165.175781 C 61.660156 165.15625 61.519531 165.097656 61.375 165.007812 C 61.230469 164.917969 61.082031 164.792969 60.933594 164.636719 C 60.628906 164.324219 60.308594 163.875 59.976562 163.3125 C 59.644531 162.746094 59.296875 162.058594 58.933594 161.265625 C 58.574219 160.472656 58.199219 159.570312 57.8125 158.574219 C 57.035156 156.574219 56.207031 154.195312 55.339844 151.535156 C 53.59375 146.171875 51.671875 139.640625 49.804688 133.171875 C 47.890625 126.539062 46.070312 120.101562 44.445312 114.636719 C 41.160156 103.59375 38.835938 97.121094 37.257812 93.054688 C 36.851562 92.003906 36.488281 91.109375 36.160156 90.417969 C 35.996094 90.070312 35.839844 89.777344 35.691406 89.542969 C 35.613281 89.425781 35.542969 89.320312 35.46875 89.234375 C 35.398438 89.148438 35.328125 89.078125 35.257812 89.023438 C 35.191406 88.96875 35.121094 88.929688 35.054688 88.910156 C 35.023438 88.898438 34.992188 88.894531 34.957031 88.894531 C 34.925781 88.894531 34.894531 88.898438 34.859375 88.90625 C 34.828125 88.914062 34.796875 88.929688 34.765625 88.945312 C 34.734375 88.964844 34.703125 88.984375 34.671875 89.011719 C 34.609375 89.066406 34.546875 89.140625 34.488281 89.238281 C 34.363281 89.429688 34.246094 89.703125 34.128906 90.0625 C 34.011719 90.425781 33.894531 90.878906 33.777344 91.429688 C 33.542969 92.539062 33.3125 94.039062 33.046875 95.949219 C 32.78125 97.878906 32.484375 100.261719 32.125 103.0625 C 31.382812 108.851562 30.402344 116.339844 28.90625 126.003906 C 27.375 135.914062 25.335938 147.886719 23.546875 157.710938 C 22.625 162.761719 21.765625 167.261719 21.050781 170.746094 C 20.6875 172.511719 20.363281 174.011719 20.085938 175.199219 C 19.945312 175.792969 19.820312 176.308594 19.703125 176.738281 C 19.589844 177.167969 19.488281 177.507812 19.402344 177.753906 C 19.359375 177.878906 19.316406 177.976562 19.28125 178.054688 C 19.261719 178.09375 19.246094 178.125 19.230469 178.152344 C 19.210938 178.179688 19.195312 178.203125 19.183594 178.21875 C 19.175781 178.226562 19.167969 178.234375 19.160156 178.238281 C 19.152344 178.238281 19.144531 178.242188 19.136719 178.246094 C 19.132812 178.25 19.125 178.25 19.117188 178.25 C 19.113281 178.25 19.105469 178.25 19.101562 178.246094 C 19.09375 178.246094 19.085938 178.238281 19.082031 178.238281 C 19.078125 178.234375 19.070312 178.226562 19.066406 178.21875 C 19.054688 178.203125 19.042969 178.183594 19.035156 178.15625 C 19.023438 178.128906 19.015625 178.101562 19.007812 178.066406 C 19 178.03125 18.992188 177.992188 18.984375 177.945312 C 18.96875 177.859375 18.957031 177.75 18.945312 177.625 C 18.925781 177.375 18.910156 177.050781 18.902344 176.667969 C 18.882812 175.902344 18.886719 174.878906 18.886719 173.6875 C 18.890625 172.476562 18.894531 171.101562 18.878906 169.601562 C 18.851562 166.550781 18.75 163.097656 18.425781 159.707031 C 18.097656 156.238281 17.542969 152.890625 16.625 150.136719 C 15.691406 147.320312 14.375 145.117188 12.945312 143.292969 C 11.480469 141.429688 9.859375 139.921875 8.371094 138.585938 C 7.597656 137.894531 6.871094 137.257812 6.175781 136.613281 C 5.476562 135.960938 4.835938 135.324219 4.273438 134.664062 C 3.699219 133.996094 3.214844 133.308594 2.832031 132.574219 C 2.441406 131.828125 2.164062 131.039062 2.019531 130.175781 C 1.875 129.296875 1.863281 128.34375 1.96875 127.335938 C 2.074219 126.304688 2.300781 125.214844 2.621094 124.078125 C 3.28125 121.734375 4.347656 119.175781 5.636719 116.542969 C 6.980469 113.789062 8.589844 110.90625 10.261719 108.046875 C 12.007812 105.070312 13.914062 101.972656 15.691406 99.078125 Z M 15.691406 99.074219 "></path></g><mask id="mask3"><g filter="url(#alpha)"><rect x="0" y="0" width="266" height="180" style="fill:rgb(0%,0%,0%);fill-opacity:0.627451;stroke:none;"></rect></g></mask><clipPath id="clip4"><rect x="0" y="0" width="266" height="181"></rect></clipPath><g id="surface14" clip-path="url(#clip4)"><path style=" stroke:none;fill-rule:nonzero;fill:rgb(1.960784%,4.705882%,16.078431%);fill-opacity:0.768627;" d="M 224.335938 82.367188 C 229.898438 79.023438 246.589844 69 252.152344 65.65625 C 246.589844 69 229.898438 79.023438 224.335938 82.367188 Z M 224.335938 82.367188 "></path></g></defs><g id="surface1"><path style=" stroke:none;fill-rule:nonzero;fill:rgb(0%,100%,1.568627%);fill-opacity:1;" d="M 15.691406 99.074219 C 8.273438 111.144531 0.855469 123.210938 2.019531 130.171875 C 3.1875 137.136719 12.921875 138.992188 16.625 150.132812 C 20.328125 161.277344 18.011719 181.699219 19.402344 177.75 C 20.792969 173.804688 25.890625 145.496094 28.90625 126.003906 C 31.921875 106.507812 32.847656 95.835938 33.777344 91.425781 C 34.707031 87.019531 35.636719 88.875 37.257812 93.054688 C 38.878906 97.230469 41.199219 103.726562 44.441406 114.632812 C 47.6875 125.542969 51.859375 140.859375 55.339844 151.53125 C 58.816406 162.207031 61.601562 168.242188 63.21875 163.597656 C 64.839844 158.957031 65.304688 143.640625 67.625 140.625 C 69.945312 137.609375 74.117188 146.890625 78.75 146.421875 C 83.382812 145.953125 88.484375 135.746094 94.75 135.515625 C 101.011719 135.289062 108.429688 145.035156 112.832031 146.425781 C 117.230469 147.816406 118.621094 140.851562 122.800781 140.621094 C 126.980469 140.390625 133.933594 146.890625 137.40625 147.121094 C 140.878906 147.351562 140.878906 141.320312 145.519531 138.761719 C 150.164062 136.207031 159.433594 137.132812 162.910156 132.035156 C 166.382812 126.933594 164.0625 115.792969 164.757812 115.792969 C 165.457031 115.796875 169.164062 126.933594 174.03125 127.160156 C 178.894531 127.390625 184.921875 116.714844 190.722656 117.183594 C 196.523438 117.652344 202.085938 129.253906 205.558594 131.339844 C 209.035156 133.425781 210.425781 126 214.371094 122.515625 C 218.320312 119.03125 224.808594 119.496094 228.050781 115.789062 C 231.289062 112.078125 231.289062 104.191406 229.898438 92.585938 C 228.511719 80.984375 225.726562 65.667969 224.800781 59.402344 C 223.875 53.136719 224.804688 55.921875 226.195312 60.101562 C 227.585938 64.277344 229.4375 69.847656 234.773438 79.59375 C 240.105469 89.339844 248.917969 103.261719 254.242188 108.363281 C 259.570312 113.464844 261.425781 109.753906 263.28125 106.035156 Z M 15.691406 99.074219 "></path><path style=" stroke:none;fill-rule:nonzero;fill:rgb(11.372549%,12.54902%,19.215686%);fill-opacity:1;" d="M 225.289062 54.007812 C 224.914062 53.84375 224.191406 53.78125 223.652344 54.050781 C 223.117188 54.324219 222.886719 54.703125 222.769531 54.945312 C 222.539062 55.425781 222.570312 55.621094 222.558594 55.8125 C 222.542969 56.007812 222.542969 56.167969 222.550781 56.351562 C 222.578125 57.082031 222.703125 58.09375 222.941406 59.683594 C 223.882812 66.050781 226.648438 81.308594 228.027344 92.808594 C 228.53125 97 228.5625 100.058594 228.609375 103.171875 L 40.855469 97.894531 C 40.34375 96.484375 39.433594 93.441406 39.015625 92.367188 C 38.605469 91.308594 38.230469 90.382812 37.859375 89.601562 C 37.488281 88.820312 37.253906 88.195312 36.425781 87.539062 C 36.007812 87.210938 35.195312 86.867188 34.390625 87.074219 C 33.589844 87.28125 33.160156 87.808594 32.898438 88.214844 C 32.375 89.035156 32.183594 89.847656 31.933594 91.039062 C 31.742188 91.941406 31.203125 96.277344 31.003906 97.613281 L 14.65625 97.15625 L 14.089844 98.085938 C 10.378906 104.121094 6.644531 110.1875 3.945312 115.710938 C 1.246094 121.234375 -0.5625 126.183594 0.160156 130.480469 C 0.878906 134.78125 4.117188 137.300781 7.117188 139.988281 C 10.121094 142.679688 13.128906 145.597656 14.835938 150.730469 C 16.539062 155.859375 16.933594 163.671875 16.992188 169.621094 C 17.019531 172.59375 16.976562 175.09375 17.015625 176.710938 C 17.023438 177.117188 17.039062 177.464844 17.066406 177.78125 C 17.09375 178.097656 17.082031 178.324219 17.273438 178.828125 C 17.367188 179.078125 17.460938 179.605469 18.367188 179.984375 C 18.824219 180.175781 19.441406 180.152344 19.828125 180 C 20.214844 179.847656 20.417969 179.652344 20.554688 179.507812 C 21.109375 178.914062 21.066406 178.707031 21.183594 178.378906 C 21.644531 177.066406 22.171875 174.660156 22.898438 171.125 C 23.621094 167.589844 24.488281 163.0625 25.402344 158.050781 C 27.230469 148.023438 29.257812 136.058594 30.769531 126.289062 C 32.941406 112.230469 33.484375 107.261719 34.257812 101.484375 L 38.117188 101.59375 C 39.476562 105.464844 40.589844 108.289062 42.640625 115.171875 C 45.871094 126.039062 50.039062 141.359375 53.542969 152.117188 C 55.296875 157.496094 56.832031 161.691406 58.351562 164.269531 C 58.734375 164.914062 59.113281 165.464844 59.574219 165.945312 C 60.039062 166.425781 60.617188 166.910156 61.519531 167.042969 C 62.421875 167.175781 63.425781 166.695312 63.949219 166.128906 C 64.472656 165.558594 64.75 164.9375 65 164.21875 C 66.007812 161.339844 66.421875 156.496094 67.027344 151.738281 C 67.328125 149.363281 67.652344 147.046875 68.027344 145.210938 C 68.359375 143.578125 68.796875 142.558594 68.992188 142.164062 C 69.429688 142.457031 70.136719 143.066406 70.996094 143.910156 C 71.949219 144.851562 73.03125 145.945312 74.300781 146.839844 C 75.574219 147.730469 77.136719 148.480469 78.941406 148.296875 C 80.746094 148.117188 82.183594 147.136719 83.535156 146.003906 C 84.886719 144.875 86.167969 143.515625 87.46875 142.214844 C 90.066406 139.617188 92.6875 137.480469 94.816406 137.402344 C 96.945312 137.324219 100.191406 139.308594 103.304688 141.832031 C 106.421875 144.355469 109.144531 147.238281 112.261719 148.222656 C 113.816406 148.714844 115.421875 148.4375 116.582031 147.78125 C 117.746094 147.125 118.566406 146.21875 119.308594 145.386719 C 120.789062 143.722656 121.847656 142.5625 122.90625 142.503906 C 123.96875 142.445312 126.730469 143.707031 129.394531 145.3125 C 130.726562 146.113281 132.066406 146.957031 133.363281 147.640625 C 134.660156 148.328125 135.871094 148.910156 137.28125 149.003906 C 138.691406 149.101562 140.015625 148.421875 140.832031 147.589844 C 141.644531 146.757812 142.148438 145.824219 142.664062 144.914062 C 143.691406 143.09375 144.652344 141.394531 146.425781 140.417969 C 148.199219 139.441406 151.601562 138.953125 155.054688 138.199219 C 158.511719 137.449219 162.261719 136.339844 164.46875 133.097656 C 166.464844 130.164062 166.703125 126.375 166.699219 123.039062 C 167.453125 124.28125 168.253906 125.550781 169.273438 126.605469 C 170.496094 127.867188 172.023438 128.953125 173.945312 129.042969 C 175.863281 129.132812 177.480469 128.234375 178.972656 127.164062 C 180.464844 126.09375 181.886719 124.757812 183.296875 123.480469 C 184.703125 122.199219 186.09375 120.984375 187.367188 120.171875 C 188.640625 119.355469 189.71875 118.996094 190.570312 119.0625 C 192.273438 119.203125 195.054688 121.691406 197.535156 124.828125 C 198.777344 126.394531 199.972656 128.046875 201.113281 129.488281 C 202.253906 130.925781 203.25 132.15625 204.589844 132.957031 C 205.929688 133.761719 207.769531 133.65625 208.898438 132.898438 C 210.023438 132.140625 210.703125 131.113281 211.386719 130.023438 C 212.75 127.851562 214.0625 125.304688 215.621094 123.929688 C 217.179688 122.554688 219.488281 121.832031 222.035156 121.039062 C 224.578125 120.25 227.414062 119.382812 229.472656 117.03125 C 231.527344 114.675781 232.351562 111.355469 232.59375 107.261719 C 232.597656 107.207031 232.574219 107.113281 232.578125 107.058594 L 251.28125 107.582031 C 251.796875 108.144531 252.457031 109.265625 252.9375 109.726562 C 254.390625 111.117188 255.695312 112.023438 257.054688 112.46875 C 258.414062 112.910156 259.882812 112.765625 260.980469 112.15625 C 263.167969 110.941406 264.042969 108.738281 264.96875 106.878906 L 266.289062 104.234375 L 253.144531 103.867188 C 248.109375 97.925781 241.03125 87.097656 236.429688 78.6875 C 231.152344 69.042969 229.375 63.683594 227.984375 59.507812 C 227.636719 58.460938 227.3125 57.496094 227.035156 56.714844 C 226.753906 55.929688 226.660156 55.492188 226.195312 54.789062 C 226.078125 54.613281 226.039062 54.335938 225.289062 54.007812 Z M 228.242188 69.414062 C 229.601562 72.808594 230.105469 74.984375 233.125 80.5 C 237.269531 88.078125 243.070312 97.015625 248.292969 103.726562 L 232.371094 103.28125 C 232.328125 99.945312 232.28125 96.65625 231.769531 92.367188 C 230.800781 84.285156 229.457031 76.753906 228.242188 69.414062 Z M 35.386719 93.464844 C 35.429688 93.574219 35.460938 93.625 35.503906 93.738281 C 35.804688 94.515625 36.496094 96.824219 36.851562 97.785156 L 34.789062 97.726562 C 34.90625 96.929688 35.277344 94.046875 35.386719 93.464844 Z M 16.761719 100.992188 L 30.472656 101.382812 C 29.679688 107.316406 29.152344 112.066406 27.042969 125.710938 C 25.539062 135.4375 23.511719 147.382812 21.691406 157.371094 C 21.253906 159.761719 20.898438 161.480469 20.496094 163.59375 C 20.265625 158.78125 19.816406 153.753906 18.414062 149.535156 C 16.414062 143.523438 12.710938 139.945312 9.628906 137.183594 C 6.546875 134.417969 4.324219 132.527344 3.878906 129.863281 C 3.433594 127.199219 4.757812 122.636719 7.332031 117.367188 C 9.765625 112.382812 13.257812 106.695312 16.761719 100.992188 Z M 42.125 101.707031 L 228.824219 106.953125 C 228.820312 106.976562 228.832031 107.011719 228.832031 107.035156 C 228.613281 110.714844 227.8125 113.191406 226.628906 114.546875 C 225.445312 115.902344 223.414062 116.660156 220.914062 117.433594 C 218.417969 118.210938 215.511719 118.988281 213.125 121.097656 C 210.734375 123.207031 209.378906 126.125 208.191406 128.011719 C 207.597656 128.957031 207.03125 129.609375 206.800781 129.765625 C 206.566406 129.921875 206.925781 129.960938 206.527344 129.722656 C 206.128906 129.484375 205.128906 128.480469 204.066406 127.144531 C 203.007812 125.804688 201.796875 124.136719 200.488281 122.484375 C 197.871094 119.179688 194.96875 115.636719 190.871094 115.304688 C 188.824219 115.140625 186.976562 115.9375 185.335938 116.984375 C 183.695312 118.035156 182.195312 119.382812 180.761719 120.6875 C 179.328125 121.988281 177.96875 123.246094 176.777344 124.097656 C 175.589844 124.953125 174.632812 125.300781 174.121094 125.277344 C 173.609375 125.253906 172.839844 124.863281 171.976562 123.972656 C 171.113281 123.082031 170.234375 121.78125 169.464844 120.449219 C 168.699219 119.117188 168.035156 117.757812 167.507812 116.699219 C 167.242188 116.167969 167.015625 115.71875 166.785156 115.328125 C 166.671875 115.128906 166.570312 114.953125 166.386719 114.730469 C 166.296875 114.617188 166.1875 114.484375 165.976562 114.324219 C 165.765625 114.164062 165.410156 113.90625 164.761719 113.90625 C 164.113281 113.90625 163.457031 114.347656 163.199219 114.6875 C 162.945312 115.023438 162.886719 115.25 162.839844 115.429688 C 162.742188 115.789062 162.742188 116 162.738281 116.226562 C 162.722656 116.679688 162.746094 117.144531 162.78125 117.722656 C 162.847656 118.875 162.964844 120.390625 162.992188 122.035156 C 163.050781 125.324219 162.617188 129.109375 161.351562 130.96875 C 160.085938 132.828125 157.464844 133.808594 154.253906 134.507812 C 151.042969 135.203125 147.484375 135.527344 144.613281 137.109375 C 141.746094 138.6875 140.378906 141.289062 139.378906 143.0625 C 138.878906 143.953125 138.449219 144.636719 138.140625 144.949219 C 137.835938 145.265625 137.859375 145.261719 137.53125 145.238281 C 137.203125 145.214844 136.246094 144.902344 135.132812 144.308594 C 134.015625 143.71875 132.703125 142.90625 131.339844 142.082031 C 128.609375 140.441406 125.8125 138.566406 122.695312 138.738281 C 119.574219 138.910156 117.851562 141.351562 116.492188 142.878906 C 115.8125 143.644531 115.195312 144.230469 114.726562 144.492188 C 114.261719 144.757812 114.042969 144.828125 113.402344 144.625 C 112.117188 144.222656 108.9375 141.539062 105.675781 138.898438 C 102.417969 136.257812 98.816406 133.480469 94.683594 133.628906 C 90.546875 133.78125 87.476562 136.867188 84.800781 139.546875 C 83.464844 140.886719 82.214844 142.183594 81.113281 143.109375 C 80.007812 144.03125 79.078125 144.496094 78.566406 144.546875 C 78.054688 144.597656 77.355469 144.363281 76.464844 143.742188 C 75.578125 143.121094 74.605469 142.167969 73.644531 141.222656 C 72.6875 140.273438 71.789062 139.328125 70.605469 138.671875 C 70.011719 138.34375 69.277344 138.054688 68.390625 138.148438 C 67.5 138.238281 66.644531 138.804688 66.128906 139.476562 C 65.09375 140.816406 64.753906 142.429688 64.339844 144.457031 C 63.925781 146.484375 63.59375 148.851562 63.285156 151.261719 C 62.710938 155.773438 62.132812 160.199219 61.554688 162.234375 C 60.414062 160.265625 58.839844 156.191406 57.128906 150.953125 C 53.679688 140.359375 49.503906 125.042969 46.246094 114.097656 C 44.390625 107.855469 43.421875 105.472656 42.125 101.707031 Z M 256.589844 107.734375 L 259.839844 107.824219 C 259.628906 108.078125 259.304688 108.773438 259.152344 108.855469 C 258.886719 109.003906 258.769531 109.0625 258.226562 108.886719 C 257.894531 108.777344 257.183594 108.171875 256.589844 107.734375 Z M 256.589844 107.734375 "></path><path style=" stroke:none;fill-rule:nonzero;fill:rgb(16.078431%,100%,100%);fill-opacity:1;" d="M 61.59375 33.632812 C 61.128906 35.496094 60.664062 37.351562 58.8125 41.296875 C 56.957031 45.238281 53.710938 51.273438 57.421875 66.824219 C 61.136719 82.378906 71.800781 107.441406 79.679688 116.484375 C 87.558594 125.53125 92.65625 118.570312 95.207031 109.292969 C 97.757812 100.011719 97.757812 88.410156 98.457031 85.394531 C 99.152344 82.378906 100.542969 87.949219 104.953125 93.050781 C 109.363281 98.152344 116.78125 102.792969 123.960938 93.511719 C 131.140625 84.230469 138.09375 61.023438 145.050781 37.808594 Z M 61.59375 33.632812 "></path><use xlink:href="#surface5" mask="url(#mask0)"></use><use xlink:href="#surface8" mask="url(#mask1)"></use><use xlink:href="#surface11" mask="url(#mask2)"></use><path style=" stroke:none;fill-rule:nonzero;fill:rgb(0%,100%,1.568627%);fill-opacity:1;" d="M 224.335938 82.367188 C 233.609375 76.792969 242.882812 71.226562 252.152344 65.65625 Z M 224.335938 82.367188 "></path><use xlink:href="#surface14" mask="url(#mask3)"></use></g></svg>