<svg xmlns:inkscape="http://www.inkscape.org/namespaces/inkscape" xmlns:sodipodi="http://sodipodi.sourceforge.net/DTD/sodipodi-0.dtd" xmlns="http://www.w3.org/2000/svg" xmlns:svg="http://www.w3.org/2000/svg" width="70.631981mm" height="47.727615mm" viewBox="0 0 70.631981 47.727615" id="svg5" inkscape:version="1.1 (c68e22c387, 2021-05-23)" sodipodi:docname="logo-wpelementor.svg"><defs id="defs2"></defs><g inkscape:label="Layer 1" inkscape:groupmode="layer" id="layer1" transform="translate(-48.596489,-109.15018)"><g id="path4824"><path style="color:#000000;fill:#00ff04;-inkscape-stroke:none" d="m 52.759006,135.40248 c -1.968155,3.19825 -3.935858,6.39577 -3.626658,8.24041 0.309201,1.84464 2.89181,2.33657 3.874009,5.28899 0.982199,2.95242 0.367293,8.3636 0.736179,7.31815 0.368887,-1.04544 1.721682,-8.54731 2.521146,-13.71238 0.799464,-5.16507 1.045427,-7.99364 1.292287,-9.16157 0.24686,-1.16794 0.492823,-0.67601 0.923031,0.43082 0.430209,1.10684 1.045117,2.82858 1.905847,5.71862 0.860729,2.89004 1.967561,6.94842 2.890229,9.77701 0.922667,2.8286 1.660556,4.42736 2.090216,3.19723 0.42966,-1.23012 0.552642,-5.2885 1.168306,-6.08757 0.615663,-0.79907 1.722496,1.66056 2.951326,1.53652 1.22883,-0.12405 2.581625,-2.82964 4.243263,-2.89018 1.661638,-0.0605 3.629335,2.52206 4.796333,2.89054 1.166997,0.36849 1.535941,-1.47623 2.644345,-1.53746 1.108404,-0.0612 2.953124,1.6605 3.874116,1.72204 0.920992,0.0615 0.920992,-1.53722 2.152247,-2.21479 1.231255,-0.67758 3.690882,-0.43162 4.61212,-1.78302 0.921239,-1.35141 0.306333,-4.30296 0.491015,-4.30291 0.184682,6e-5 1.168531,2.95161 2.459061,3.01195 1.290529,0.0603 2.889286,-2.76823 4.427563,-2.6441 1.538273,0.12414 3.014053,3.19868 3.935453,3.75154 0.9214,0.55286 1.29035,-1.41484 2.3373,-2.33814 1.04694,-0.9233 2.76868,-0.80032 3.62814,-1.78294 0.85946,-0.98263 0.85946,-3.07332 0.49079,-6.14766 -0.36867,-3.07435 -1.10655,-7.13273 -1.35226,-8.7929 -0.24571,-1.66018 2.5e-4,-0.92229 0.36919,0.18455 0.36895,1.10683 0.86087,2.5826 2.27561,5.16516 1.41473,2.58257 3.75138,6.27201 5.16442,7.62379 1.41305,1.35178 1.90497,0.36793 2.39742,-0.61698 z" id="path5918"></path><path style="color:#000000;fill:#1d2031;-inkscape-stroke:none" d="m 108.35352,123.46094 c -0.0997,-0.0435 -0.29101,-0.0598 -0.4336,0.0117 -0.14259,0.0716 -0.20346,0.1725 -0.23437,0.23632 -0.0618,0.12765 -0.053,0.17914 -0.0566,0.23047 -0.004,0.0513 -0.004,0.0943 -0.002,0.14258 0.008,0.19306 0.0411,0.46113 0.10352,0.88281 0.24966,1.68685 0.98414,5.72967 1.34961,8.77735 0.13312,1.11011 0.14163,1.92127 0.1543,2.74609 l -49.800786,-1.39844 c -0.13563,-0.3738 -0.377515,-1.17986 -0.488282,-1.46484 -0.108849,-0.28005 -0.20811,-0.52557 -0.30664,-0.73242 -0.09853,-0.20686 -0.160935,-0.37328 -0.38086,-0.54688 -0.109962,-0.0868 -0.326268,-0.17775 -0.539062,-0.12304 -0.212794,0.0547 -0.327101,0.19426 -0.396484,0.30273 -0.138768,0.21694 -0.189202,0.43268 -0.25586,0.74805 -0.05058,0.23931 -0.193867,1.38826 -0.246094,1.74218 l -4.335937,-0.12109 -0.150391,0.24609 c -0.984076,1.59913 -1.975421,3.20606 -2.691406,4.66993 -0.715984,1.46386 -1.19488,2.77474 -1.003906,3.91406 0.190923,1.13901 1.049412,1.80657 1.845703,2.51953 0.796291,0.71296 1.594586,1.48615 2.046875,2.8457 0.452352,1.35974 0.55725,3.42976 0.572266,5.00586 0.0075,0.78806 -0.0042,1.45005 0.0059,1.87891 0.0025,0.10721 0.0065,0.19918 0.01367,0.2832 0.0072,0.084 0.0039,0.14383 0.05469,0.27735 0.02538,0.0668 0.05051,0.20583 0.291016,0.30664 0.12025,0.0504 0.284093,0.0443 0.386719,0.004 0.102625,-0.0404 0.156698,-0.0917 0.193359,-0.13086 0.146644,-0.15649 0.135328,-0.21185 0.166016,-0.29882 0.122748,-0.34788 0.2627,-0.98508 0.455078,-1.92188 0.192378,-0.9368 0.421502,-2.13655 0.664062,-3.46484 0.485121,-2.65659 1.023173,-5.82752 1.423828,-8.41602 0.576525,-3.72473 0.720638,-5.04169 0.925782,-6.57226 l 1.023437,0.0293 c 0.360467,1.02517 0.655949,1.77354 1.199219,3.59766 0.857649,2.87969 1.962744,6.9385 2.892578,9.78906 0.464907,1.42525 0.872099,2.53679 1.275391,3.2207 0.100823,0.17098 0.201321,0.31604 0.324218,0.44336 0.122898,0.12733 0.276271,0.25596 0.515625,0.29102 0.239355,0.0351 0.505763,-0.0916 0.644532,-0.24219 0.138768,-0.15062 0.212685,-0.31515 0.279297,-0.50586 0.266376,-0.76264 0.376681,-2.04612 0.537109,-3.30664 0.08021,-0.63026 0.165883,-1.24321 0.265625,-1.73047 0.08839,-0.43178 0.20349,-0.70261 0.255859,-0.80664 0.116027,0.0777 0.303283,0.23841 0.53125,0.46289 0.252577,0.24872 0.539882,0.53906 0.876953,0.77539 0.337072,0.23634 0.751517,0.43507 1.230469,0.38672 0.478797,-0.0483 0.860405,-0.30801 1.21875,-0.60742 0.358345,-0.2994 0.698442,-0.6594 1.042969,-1.00391 0.689054,-0.68901 1.384304,-1.2548 1.949219,-1.27539 0.565114,-0.0206 1.425649,0.50522 2.251953,1.17383 0.826304,0.66861 1.548613,1.43242 2.375,1.69336 0.413189,0.13047 0.838333,0.057 1.146484,-0.11719 0.308152,-0.17415 0.526259,-0.41432 0.722656,-0.63476 0.392796,-0.44088 0.673945,-0.74814 0.955079,-0.76367 0.281236,-0.0155 1.014483,0.31886 1.720703,0.74414 0.353109,0.21263 0.709089,0.43545 1.052734,0.61718 0.343646,0.18174 0.665144,0.33635 1.039063,0.36133 0.373943,0.025 0.725164,-0.1543 0.941406,-0.375 0.216242,-0.22069 0.350072,-0.46755 0.486328,-0.70898 0.272513,-0.48287 0.527948,-0.93271 0.998047,-1.19141 0.470029,-0.25866 1.372494,-0.38867 2.289062,-0.58789 0.916569,-0.19922 1.910871,-0.49307 2.496094,-1.35156 0.530168,-0.77773 0.592986,-1.78167 0.591797,-2.66602 0.200388,0.32946 0.412411,0.66571 0.683594,0.94532 0.324225,0.33429 0.728643,0.62265 1.238281,0.64648 0.509495,0.0238 0.9385,-0.21456 1.333984,-0.49805 0.395484,-0.28348 0.77308,-0.63746 1.146485,-0.97656 0.373404,-0.3391 0.742528,-0.66135 1.080078,-0.87695 0.337549,-0.2156 0.623709,-0.3112 0.849609,-0.29297 0.452029,0.0365 1.189077,0.69657 1.847657,1.52734 0.32929,0.41539 0.6468,0.85328 0.94922,1.23438 0.30241,0.3811 0.5667,0.70681 0.92187,0.91992 0.35518,0.21311 0.84356,0.18506 1.14258,-0.0156 0.29902,-0.20068 0.47917,-0.47375 0.66016,-0.76171 0.36196,-0.57593 0.70987,-1.25086 1.12304,-1.61524 0.41324,-0.36443 1.02606,-0.55615 1.70117,-0.76562 0.67512,-0.20948 1.4272,-0.43887 1.97266,-1.0625 0.54542,-0.62359 0.76353,-1.50366 0.82813,-2.58789 8.9e-4,-0.015 -0.005,-0.0396 -0.004,-0.0547 l 4.96094,0.13867 c 0.13631,0.14946 0.31233,0.44675 0.43945,0.56836 0.38562,0.3689 0.7311,0.60877 1.0918,0.72656 0.36069,0.1178 0.75053,0.0789 1.04101,-0.082 0.58097,-0.32188 0.81237,-0.90598 1.0586,-1.39844 l 0.34961,-0.70117 -3.48633,-0.0977 c -1.33602,-1.5742 -3.21261,-4.44299 -4.4336,-6.67187 -1.39963,-2.555 -1.87129,-3.9752 -2.24023,-5.08203 -0.0922,-0.27671 -0.17778,-0.53277 -0.25195,-0.74024 -0.0742,-0.20746 -0.0988,-0.32407 -0.22266,-0.50976 -0.031,-0.0464 -0.0408,-0.11997 -0.24023,-0.20703 z m 0.7832,4.08203 c 0.36126,0.89949 0.49455,1.47643 1.29492,2.9375 1.09986,2.00776 2.63872,4.3764 4.02344,6.1543 l -4.22266,-0.11719 c -0.012,-0.88451 -0.0239,-1.75639 -0.16015,-2.89258 -0.25683,-2.14165 -0.61281,-4.13721 -0.93555,-6.08203 z m -51.154298,6.37305 c 0.01132,0.0289 0.01963,0.0424 0.03125,0.0723 0.08025,0.20647 0.263567,0.81831 0.357422,1.07227 l -0.546875,-0.0156 c 0.03126,-0.21115 0.12963,-0.97464 0.158203,-1.1289 z m -4.939453,1.99414 3.636718,0.10351 c -0.210369,1.57247 -0.350435,2.8311 -0.910156,6.44727 -0.398808,2.57656 -0.936558,5.7417 -1.419922,8.38867 -0.115705,0.63362 -0.209592,1.08932 -0.316406,1.64844 -0.06141,-1.27504 -0.180911,-2.60694 -0.552734,-3.72461 -0.529909,-1.59287 -1.512216,-2.54117 -2.330078,-3.27344 -0.817862,-0.73227 -1.407114,-1.23383 -1.525391,-1.93945 -0.118226,-0.70532 0.233411,-1.91493 0.916016,-3.31055 0.645931,-1.32064 1.572219,-2.828 2.501953,-4.33984 z m 6.726562,0.18945 49.521489,1.39062 c -3.3e-4,0.006 0.002,0.0159 0.002,0.0215 -0.0581,0.97535 -0.26995,1.63119 -0.58399,1.99023 -0.31399,0.359 -0.85326,0.56011 -1.51562,0.76563 -0.66236,0.20551 -1.4327,0.41183 -2.06641,0.9707 -0.63377,0.55892 -0.994,1.3315 -1.30859,1.83203 -0.1573,0.25027 -0.30713,0.42323 -0.36914,0.46485 -0.062,0.0416 0.0333,0.0516 -0.0723,-0.0117 -0.10552,-0.0633 -0.37083,-0.32885 -0.65234,-0.6836 -0.28151,-0.35475 -0.60211,-0.7965 -0.94922,-1.23437 -0.69423,-0.87574 -1.46453,-1.81469 -2.550781,-1.90235 -0.543238,-0.0438 -1.033564,0.16736 -1.46875,0.44532 -0.435186,0.27796 -0.833005,0.63548 -1.21289,0.98047 -0.379885,0.34498 -0.741326,0.67827 -1.056641,0.90429 -0.315315,0.22602 -0.569309,0.31885 -0.705078,0.3125 -0.135626,-0.006 -0.339381,-0.10961 -0.568359,-0.3457 -0.228979,-0.23609 -0.462059,-0.58032 -0.666016,-0.93359 -0.203957,-0.35328 -0.379366,-0.71289 -0.519531,-0.99414 -0.07008,-0.14063 -0.130829,-0.25932 -0.191407,-0.36329 -0.03029,-0.052 -0.05712,-0.099 -0.105468,-0.1582 -0.02417,-0.0296 -0.05359,-0.0648 -0.109375,-0.10742 -0.05579,-0.0426 -0.150034,-0.11128 -0.322266,-0.11133 -0.172238,-5e-5 -0.346192,0.11786 -0.414062,0.20703 -0.06787,0.0892 -0.083,0.14974 -0.0957,0.19727 -0.02541,0.095 -0.02543,0.15106 -0.02734,0.21094 -0.0038,0.11976 0.0029,0.24373 0.01172,0.39648 0.01773,0.3055 0.0492,0.70662 0.05664,1.14258 0.01489,0.87191 -0.09952,1.87425 -0.435547,2.36719 -0.336014,0.49291 -1.031445,0.75245 -1.882812,0.9375 -0.851367,0.18504 -1.795417,0.27054 -2.556641,0.68945 -0.761154,0.41887 -1.123123,1.1076 -1.388672,1.57812 -0.132774,0.23527 -0.246862,0.41707 -0.328125,0.5 -0.08126,0.0829 -0.07556,0.082 -0.162109,0.0762 -0.08658,-0.006 -0.340813,-0.0896 -0.636719,-0.2461 -0.295905,-0.15648 -0.644115,-0.37201 -1.005859,-0.58984 -0.723488,-0.43567 -1.465803,-0.93242 -2.292969,-0.88672 -0.827269,0.0457 -1.284005,0.69299 -1.644531,1.09766 -0.180263,0.20233 -0.344869,0.35772 -0.46875,0.42773 -0.123881,0.07 -0.181254,0.0889 -0.351563,0.0352 -0.340609,-0.10755 -1.184126,-0.8179 -2.048828,-1.51758 -0.864702,-0.69968 -1.819494,-1.43644 -2.916016,-1.39649 -1.096722,0.04 -1.911134,0.85844 -2.621093,1.56836 -0.35498,0.35496 -0.685678,0.69869 -0.978516,0.94336 -0.292838,0.24468 -0.540164,0.36717 -0.675781,0.38086 -0.135462,0.0137 -0.321333,-0.0479 -0.556641,-0.21289 -0.235307,-0.16498 -0.493354,-0.41717 -0.748047,-0.66797 -0.254693,-0.2508 -0.492297,-0.50134 -0.80664,-0.67578 -0.157172,-0.0872 -0.352217,-0.16301 -0.587891,-0.13867 -0.235673,0.0243 -0.462702,0.17387 -0.599609,0.35156 -0.273893,0.35549 -0.364711,0.78344 -0.47461,1.32031 -0.109899,0.53688 -0.1981,1.16475 -0.279297,1.80274 -0.15217,1.19564 -0.30582,2.36845 -0.458984,2.9082 -0.303046,-0.52172 -0.720775,-1.60132 -1.173828,-2.99023 -0.9155,-2.80662 -2.02291,-6.86525 -2.886719,-9.76563 -0.492567,-1.65387 -0.748813,-2.2847 -1.09375,-3.2832 z m 56.886719,1.59766 0.86133,0.0234 c -0.0557,0.0678 -0.14189,0.25142 -0.18164,0.27344 -0.0707,0.0392 -0.10175,0.055 -0.2461,0.008 -0.088,-0.0287 -0.27612,-0.18886 -0.43359,-0.30468 z" id="path5920"></path></g><path style="color:#000000;fill:#29ffff;-inkscape-stroke:none" d="m 64.93416,118.06211 c -0.123447,0.49379 -0.246429,0.98572 -0.738375,2.0306 -0.491946,1.04488 -1.352817,2.64364 -0.368031,6.76464 0.984787,4.121 3.813357,10.76199 5.903191,13.15876 2.089834,2.39677 3.442629,0.55205 4.119196,-1.90648 0.676567,-2.45854 0.676567,-5.53307 0.861428,-6.33222 0.18486,-0.79914 0.553805,0.67664 1.723284,2.02884 1.16948,1.35221 3.137181,2.58202 5.041592,0.12228 1.90441,-2.45975 3.74913,-8.60882 5.594362,-14.75959 z" id="path900"></path><path style="color:#000000;opacity:0.628665;fill:#050c29;stroke-linecap:round;stroke-linejoin:round;-inkscape-stroke:none;paint-order:stroke fill markers" d="m 64.855469,117.78711 a 0.28961547,0.28961547 0 0 0 -0.203125,0.20508 c -0.04899,0.19596 -0.112557,0.46272 -0.222657,0.78515 -0.09445,0.27662 -0.238715,0.64475 -0.496093,1.19141 -0.114831,0.2439 -0.270479,0.56104 -0.41211,0.94141 -0.136541,0.36669 -0.268236,0.81535 -0.349609,1.36914 -0.07832,0.53298 -0.112694,1.17289 -0.06055,1.94922 0.05049,0.75161 0.18278,1.63756 0.435547,2.69531 0.246341,1.03085 0.606151,2.22315 1.050781,3.48633 0.434322,1.23388 0.947496,2.5318 1.501953,3.78906 0.543981,1.2335 1.127916,2.42791 1.712891,3.4707 0.289118,0.51539 0.577936,0.99375 0.863281,1.42188 0.283481,0.42533 0.56277,0.80194 0.835938,1.11523 0.271661,0.31156 0.536156,0.5595 0.796875,0.75 0.259429,0.18956 0.51657,0.3222 0.771484,0.39649 0.253844,0.074 0.505639,0.0892 0.744141,0.0469 0.237674,-0.0422 0.460008,-0.14014 0.660156,-0.27734 0.199594,-0.13683 0.379643,-0.31374 0.542969,-0.51758 0.162988,-0.20342 0.309077,-0.43371 0.443359,-0.6875 0.268157,-0.50681 0.48484,-1.10245 0.658203,-1.73242 0.34713,-1.26142 0.51713,-2.65995 0.625,-3.83789 0.05433,-0.59326 0.0927,-1.12975 0.128906,-1.56446 0.01822,-0.21875 0.03632,-0.41252 0.05469,-0.57226 0.0038,-0.0331 0.0079,-0.0577 0.01172,-0.0879 0.0024,0.004 0.0034,0.006 0.0059,0.01 0.13148,0.22024 0.292724,0.5057 0.5,0.83008 0.21025,0.32903 0.460191,0.68456 0.761719,1.0332 0.309766,0.35817 0.666311,0.70169 1.064453,0.98243 0.411697,0.29029 0.862065,0.51059 1.34375,0.60351 0.247485,0.0477 0.501407,0.0604 0.757812,0.0332 0.262072,-0.0278 0.526064,-0.0975 0.785157,-0.21289 0.265419,-0.11815 0.525733,-0.28424 0.779297,-0.49609 0.260431,-0.21759 0.512172,-0.48351 0.757812,-0.80078 0.513249,-0.66291 0.99519,-1.54194 1.453125,-2.53516 0.49298,-1.06923 0.96541,-2.29099 1.410156,-3.54101 0.994477,-2.79513 2.053784,-6.35897 2.779297,-8.77735 A 0.28961547,0.28961547 0 0 0 86.79301,119.0862 c -0.725911,2.4197 -1.783648,5.97902 -2.769532,8.75 -0.441163,1.23995 -0.910828,2.44731 -1.392578,3.49218 -0.447528,0.97065 -0.914734,1.81926 -1.382812,2.42383 -0.224008,0.28933 -0.44866,0.52445 -0.671875,0.71094 -0.217328,0.18158 -0.433191,0.31607 -0.644531,0.41016 -0.206301,0.0918 -0.408282,0.14468 -0.609375,0.16601 -0.196745,0.0209 -0.392513,0.0103 -0.587891,-0.0273 -0.380249,-0.0734 -0.758016,-0.25123 -1.119141,-0.50586 -0.349203,-0.24623 -0.67573,-0.5589 -0.960937,-0.88867 -0.277542,-0.32091 -0.512816,-0.65369 -0.712891,-0.9668 -0.197428,-0.30897 -0.350718,-0.58403 -0.488281,-0.81445 -0.0666,-0.11156 -0.126738,-0.20845 -0.1875,-0.29297 -0.03021,-0.042 -0.06135,-0.0821 -0.0957,-0.11914 -0.03422,-0.0369 -0.07148,-0.0723 -0.126953,-0.10547 -0.02766,-0.0165 -0.0599,-0.032 -0.09961,-0.043 -0.03964,-0.0109 -0.08811,-0.0171 -0.136718,-0.0117 -0.04852,0.005 -0.09699,0.0223 -0.136719,0.0449 -0.03966,0.0226 -0.06927,0.0509 -0.09375,0.0781 -0.02444,0.0272 -0.04346,0.0536 -0.05859,0.0801 -0.01511,0.0264 -0.02656,0.0518 -0.03711,0.0781 -0.02105,0.0525 -0.03691,0.10802 -0.05078,0.16797 -0.01383,0.0598 -0.02601,0.12327 -0.03711,0.19531 -0.01107,0.0719 -0.02142,0.15088 -0.03125,0.23633 -0.01959,0.17036 -0.0382,0.3684 -0.05664,0.58984 -0.03666,0.44012 -0.07325,0.97417 -0.126953,1.56055 -0.106616,1.16425 -0.276716,2.53655 -0.607422,3.73828 -0.165172,0.60021 -0.370567,1.15825 -0.611328,1.61328 -0.120564,0.22787 -0.249926,0.42937 -0.384765,0.59766 -0.135118,0.16863 -0.275956,0.30304 -0.417969,0.40039 -0.142407,0.0976 -0.283491,0.15927 -0.431641,0.18555 -0.148665,0.0264 -0.305782,0.0183 -0.482422,-0.0332 -0.177384,-0.0517 -0.375646,-0.1487 -0.591796,-0.30664 -0.217225,-0.15872 -0.45172,-0.37797 -0.701172,-0.66406 -0.250837,-0.28768 -0.51773,-0.64465 -0.791016,-1.05469 -0.275083,-0.41273 -0.556577,-0.8798 -0.839844,-1.38476 -0.573142,-1.0217 -1.149613,-2.20024 -1.6875,-3.41992 -0.548254,-1.2432 -1.057171,-2.52884 -1.486328,-3.74805 -0.439352,-1.24818 -0.795136,-2.42333 -1.035156,-3.42773 -0.246279,-1.0306 -0.371887,-1.88647 -0.419922,-2.60157 -0.04961,-0.73858 -0.01743,-1.33538 0.05469,-1.82617 0.07492,-0.50985 0.195164,-0.91585 0.320312,-1.25195 0.129545,-0.34791 0.273921,-0.64251 0.392578,-0.89453 0.264857,-0.56255 0.417924,-0.95439 0.519531,-1.25196 0.119203,-0.34909 0.19014,-0.63946 0.238282,-0.83203 a 0.28961547,0.28961547 0 0 0 -0.08203,-0.27539 0.28961547,0.28961547 0 0 0 -0.277343,-0.0703 z" id="path892"></path><g id="path3523" style="opacity:0.628665"><path style="color:#000000;fill:#050c29;stroke-linecap:round;stroke-linejoin:round;-inkscape-stroke:none;paint-order:stroke fill markers" d="m 86.216797,109.15234 c -0.365776,-0.0129 -0.725395,0.032 -1.066406,0.13672 -0.342229,0.10506 -0.666377,0.27157 -0.955079,0.5 -0.290259,0.22966 -0.545307,0.52082 -0.753906,0.8711 -0.210062,0.35273 -0.370222,0.75948 -0.492187,1.21289 -0.123085,0.45756 -0.205835,0.9634 -0.25586,1.50781 -0.101849,1.10841 -0.06734,2.3823 0.0625,3.75781 0.134021,1.41984 0.369215,2.9504 0.666016,4.51563 0.309892,1.63425 0.689318,3.31742 1.09375,4.96484 0.41971,1.70966 1.000851,3.52171 1.513672,5.32813 -0.226486,0.24416 -0.461902,0.49119 -0.638672,0.66796 a 0.28961547,0.28961547 0 0 0 0.002,0.40625 0.28961547,0.28961547 0 0 0 0.40625,0.004 c 0.110562,-0.11056 0.272203,-0.28754 0.414063,-0.43359 1.711862,5.95686 3.603668,11.91072 4.640625,15.07617 a 0.28967577,0.28967577 0 0 0 0.550781,-0.17969 c -1.057966,-3.22958 -3.002352,-9.33634 -4.730469,-15.38672 0.256375,-0.29286 0.543033,-0.64545 0.845703,-1.10547 0.534827,-0.81286 1.159214,-1.99887 1.853516,-3.98242 0.31602,-0.90284 0.655978,-1.99461 0.964844,-3.19531 0.295477,-1.14865 0.564401,-2.40902 0.753906,-3.69141 0.183546,-1.24207 0.293035,-2.51176 0.269531,-3.7207 -0.02299,-1.18225 -0.170978,-2.30932 -0.509766,-3.29492 -0.334285,-0.9725 -0.851037,-1.79049 -1.470703,-2.42774 -0.615023,-0.63246 -1.328684,-1.08296 -2.0625,-1.32617 -0.366392,-0.12143 -0.736434,-0.19218 -1.101562,-0.20508 z m -0.02148,0.58008 c 0.305759,0.0108 0.623443,0.0684 0.941407,0.17383 0.636839,0.21106 1.275426,0.61126 1.830078,1.18164 0.558873,0.57473 1.028719,1.31913 1.335937,2.21289 0.311393,0.9059 0.458296,1.9767 0.480469,3.11719 0.02267,1.16624 -0.08365,2.40679 -0.263672,3.625 -0.185867,1.25777 -0.452876,2.49859 -0.74414,3.63086 -0.304471,1.18361 -0.638593,2.26101 -0.949219,3.14844 -0.6824,1.94954 -1.282618,3.08574 -1.789063,3.85546 -0.200345,0.3045 -0.377586,0.50833 -0.558593,0.73047 -0.470067,-1.66843 -1.013046,-3.34796 -1.400391,-4.92578 -0.402605,-1.63998 -0.778573,-3.31462 -1.085938,-4.93554 -0.294382,-1.55247 -0.528453,-3.06762 -0.660156,-4.4629 -0.127592,-1.35173 -0.159509,-2.59465 -0.0625,-3.65039 0.04765,-0.51853 0.125998,-0.99274 0.238281,-1.41015 0.111265,-0.41362 0.255527,-0.77068 0.431641,-1.06641 0.174896,-0.29368 0.38232,-0.53055 0.615234,-0.71484 0.231658,-0.1833 0.48946,-0.31561 0.765625,-0.40039 0.275179,-0.0845 0.568697,-0.12019 0.875,-0.10938 z" id="path5956"></path><path style="color:#000000;fill:#94f3f3;fill-opacity:0.769231;stroke-width:0.579173;stroke-linecap:round;stroke-linejoin:round;-inkscape-stroke:none;paint-order:stroke fill markers" d="m 91.12919,147.57764 c -1.390487,-4.24465 -4.483858,-13.49526 -6.332789,-21.02673 -0.403519,-1.64371 -0.781056,-3.32248 -1.089684,-4.95007 -0.295593,-1.55885 -0.530024,-3.08141 -0.662886,-4.48897 -0.128716,-1.36362 -0.162473,-2.62305 -0.06304,-3.70512 0.04884,-0.53148 0.129811,-1.02029 0.247494,-1.45778 0.116615,-0.43351 0.269256,-0.81656 0.462344,-1.14079 0.191748,-0.32198 0.42318,-0.58565 0.684768,-0.79263 0.260179,-0.20586 0.54982,-0.35533 0.859017,-0.45025 0.308095,-0.0946 0.635253,-0.13489 0.971293,-0.12303 0.335444,0.0119 0.679414,0.0757 1.021592,0.18907 0.685328,0.22714 1.361339,0.65244 1.946177,1.25387 0.58927,0.60598 1.082905,1.38744 1.403657,2.32057 0.32509,0.94575 0.47215,2.04505 0.494729,3.20643 0.02309,1.18759 -0.08391,2.443 -0.265689,3.67314 -0.187687,1.27009 -0.456177,2.52088 -0.749548,3.66135 -0.306668,1.19215 -0.643524,2.27589 -0.956848,3.17103 -0.688351,1.96655 -1.30083,3.12789 -1.821465,3.91919 -0.304776,0.46322 -0.593996,0.82187 -0.850276,1.11249 -0.295256,0.33482 -0.606663,0.64412 -0.833002,0.87046 0.226339,-0.22634 0.537746,-0.53564 0.833002,-0.87046 0.25628,-0.29062 0.5455,-0.64927 0.850275,-1.11249 0.520636,-0.7913 1.133115,-1.95264 1.821466,-3.91919 0.313324,-0.89514 0.65018,-1.97888 0.956848,-3.17103 0.293371,-1.14047 0.561861,-2.39126 0.749547,-3.66134 0.181785,-1.23015 0.28878,-2.48556 0.26569,-3.67315 -0.02258,-1.16138 -0.169639,-2.26068 -0.494728,-3.20642 -0.320753,-0.93314 -0.814388,-1.7146 -1.403658,-2.32058 -0.584838,-0.60143 -1.260849,-1.02673 -1.946176,-1.25387 -0.342179,-0.1134 -0.686149,-0.17722 -1.021593,-0.18907 -0.33604,-0.0119 -0.663198,0.0285 -0.971293,0.12303 -0.309197,0.0949 -0.598838,0.24439 -0.859017,0.45025 -0.261588,0.20698 -0.49302,0.47065 -0.684766,0.79263 -0.19309,0.32423 -0.345731,0.70728 -0.462345,1.14079 -0.117684,0.43749 -0.198659,0.9263 -0.247495,1.45778 -0.09943,1.08207 -0.06567,2.3415 0.06304,3.70512 0.132862,1.40756 0.367293,2.93012 0.662885,4.48896 0.308629,1.6276 0.686166,3.30637 1.089684,4.95008 1.848932,7.53147 4.942303,16.78208 6.33279,21.02673 z" id="path5958"></path></g><path style="color:#000000;opacity:0.628665;fill:#050c29;fill-opacity:0.769231;stroke-width:0.579173;stroke-linecap:round;stroke-linejoin:round;-inkscape-stroke:none;paint-order:stroke fill markers" d="m 52.759006,135.40248 c -0.472152,0.76725 -0.97801,1.58878 -1.440464,2.37743 -0.443789,0.75682 -0.870402,1.52156 -1.226873,2.25038 -0.341536,0.69829 -0.624902,1.376 -0.799871,1.99659 -0.08501,0.3015 -0.144799,0.59077 -0.173116,0.8635 -0.02779,0.26764 -0.02533,0.51988 0.01367,0.75251 0.03834,0.2287 0.111875,0.43821 0.214951,0.63578 0.101365,0.19429 0.230837,0.37622 0.382686,0.55365 0.149514,0.1747 0.319605,0.3438 0.505026,0.5162 0.183858,0.17095 0.377061,0.33998 0.581969,0.52345 0.395156,0.3538 0.824775,0.75299 1.21318,1.24735 0.379059,0.48247 0.727941,1.06631 0.976198,1.81256 0.243002,0.73045 0.390019,1.61663 0.477519,2.53603 0.08552,0.8986 0.112864,1.81412 0.120563,2.62225 0.0038,0.39677 0.0028,0.76145 0.002,1.08225 -7.48e-4,0.31572 -0.0013,0.58663 0.0035,0.79039 0.0024,0.10133 0.0061,0.18654 0.01178,0.25309 0.0028,0.0332 0.0062,0.0617 0.01005,0.0853 0.0019,0.0118 0.004,0.0224 0.0063,0.0316 0.0022,0.009 0.0046,0.0173 0.0072,0.024 0.0025,0.007 0.0053,0.0121 0.0081,0.0162 0.0014,0.002 0.0029,0.004 0.0045,0.005 0.0015,10e-4 0.0031,0.002 0.0047,0.003 0.0016,6.8e-4 0.0033,0.001 0.005,0.001 0.0017,-1e-5 0.0035,-3.7e-4 0.0053,-0.001 0.0018,-7.2e-4 0.0037,-0.002 0.0056,-0.003 0.0019,-0.001 0.0038,-0.003 0.0059,-0.005 0.004,-0.004 0.0082,-0.01 0.01261,-0.0172 0.0044,-0.007 0.009,-0.0158 0.01388,-0.026 0.0097,-0.0203 0.02024,-0.0467 0.03178,-0.0794 0.023,-0.0652 0.04988,-0.15562 0.08032,-0.26953 0.0303,-0.11338 0.06411,-0.24997 0.101128,-0.40797 0.07353,-0.31388 0.159633,-0.71206 0.25568,-1.17977 0.189567,-0.92311 0.41761,-2.11587 0.661978,-3.45406 0.475374,-2.60321 1.015604,-5.77521 1.422036,-8.40103 0.396479,-2.56152 0.656458,-4.54485 0.853373,-6.07973 0.0952,-0.74203 0.174902,-1.37306 0.245276,-1.88397 0.0698,-0.50672 0.13161,-0.90442 0.193641,-1.19789 0.03077,-0.14557 0.06161,-0.26577 0.09289,-0.36221 0.0311,-0.0959 0.06264,-0.16829 0.09498,-0.21885 0.0161,-0.0252 0.0324,-0.0449 0.04895,-0.0595 0.0083,-0.007 0.01658,-0.0132 0.02496,-0.0179 0.0084,-0.005 0.01681,-0.008 0.02532,-0.0103 0.0085,-0.002 0.01708,-0.003 0.02573,-0.003 0.0086,2.6e-4 0.01736,0.002 0.02616,0.004 0.01757,0.005 0.03548,0.0152 0.05377,0.0297 0.01824,0.0144 0.03686,0.0333 0.05591,0.0563 0.019,0.023 0.03843,0.0502 0.05834,0.0814 0.03966,0.0622 0.08119,0.14016 0.125016,0.23217 0.0871,0.18287 0.182799,0.42012 0.291003,0.6985 0.418748,1.07735 1.034519,2.793 1.905846,5.71862 0.43124,1.44796 0.914205,3.15425 1.421883,4.91153 0.495103,1.71375 1.004867,3.44461 1.468342,4.86547 0.22989,0.70477 0.449207,1.33595 0.655426,1.86587 0.102666,0.26382 0.202137,0.50268 0.298116,0.71315 0.0957,0.20986 0.187946,0.39154 0.276449,0.54163 0.08825,0.14966 0.172794,0.26793 0.253339,0.35138 0.04019,0.0416 0.07938,0.0746 0.117551,0.0985 0.03811,0.0239 0.0752,0.0386 0.111231,0.0439 0.018,0.003 0.03573,0.003 0.05319,7.4e-4 0.01745,-0.002 0.03463,-0.007 0.05154,-0.0138 0.03378,-0.0141 0.06648,-0.038 0.09805,-0.0723 0.03153,-0.0342 0.06193,-0.0787 0.09119,-0.13393 0.02921,-0.0551 0.05727,-0.12096 0.08414,-0.19789 0.05365,-0.15358 0.102561,-0.3514 0.148309,-0.58198 0.04564,-0.23001 0.08808,-0.49242 0.128923,-0.77578 0.08163,-0.56634 0.156042,-1.21023 0.23717,-1.84767 0.08047,-0.63226 0.167063,-1.25399 0.272044,-1.76684 0.05235,-0.25574 0.109336,-0.48473 0.172519,-0.67476 0.03155,-0.0949 0.06464,-0.18005 0.09948,-0.25401 0.03481,-0.0739 0.07136,-0.13656 0.109859,-0.18653 0.03846,-0.0499 0.07885,-0.0871 0.121102,-0.11306 0.0422,-0.0259 0.08625,-0.0405 0.13207,-0.0452 0.04578,-0.005 0.0933,4.1e-4 0.142508,0.014 0.04916,0.0136 0.09998,0.0356 0.152393,0.0647 0.10469,0.0581 0.215653,0.14427 0.332292,0.2473 0.116459,0.10287 0.238382,0.22237 0.36536,0.34741 0.252941,0.24907 0.526199,0.52044 0.812616,0.72127 0.142972,0.10024 0.289437,0.18307 0.438614,0.23694 0.148943,0.0538 0.300654,0.0787 0.454365,0.0632 0.153504,-0.0155 0.309025,-0.0713 0.466989,-0.15732 0.157744,-0.0859 0.317849,-0.20197 0.480772,-0.33809 0.3255,-0.27196 0.661009,-0.62295 1.011574,-0.9735 0.349158,-0.34914 0.712735,-0.69727 1.092717,-0.96158 0.189736,-0.13197 0.383701,-0.24315 0.582219,-0.32321 0.198296,-0.08 0.401183,-0.12891 0.60899,-0.13648 0.207613,-0.008 0.420082,0.0261 0.635307,0.0917 0.215011,0.0655 0.432721,0.16284 0.651023,0.28258 0.43609,0.23921 0.874092,0.56763 1.297335,0.9101 0.422409,0.3418 0.829753,0.69732 1.204582,0.99054 0.187204,0.14644 0.366313,0.27734 0.535098,0.38314 0.168673,0.10573 0.327073,0.18641 0.47299,0.23248 0.145839,0.046 0.279246,0.0575 0.403224,0.0422 0.123911,-0.0153 0.23838,-0.0574 0.346418,-0.11841 0.107986,-0.061 0.209526,-0.14102 0.307637,-0.23222 0.09807,-0.0912 0.192681,-0.19348 0.286872,-0.29921 0.09415,-0.10567 0.187854,-0.21472 0.284125,-0.31934 0.09623,-0.10458 0.195037,-0.20474 0.299397,-0.29265 0.104329,-0.0879 0.214224,-0.16354 0.332683,-0.21912 0.118431,-0.0556 0.245429,-0.0911 0.383995,-0.0988 0.138539,-0.008 0.288591,0.0125 0.446924,0.0539 0.158309,0.0413 0.324887,0.1038 0.4965,0.18069 0.343191,0.15376 0.706461,0.36515 1.063913,0.5804 0.35746,0.21526 0.709001,0.43431 1.028774,0.60342 0.1599,0.0846 0.311835,0.15662 0.452576,0.20947 0.140761,0.0529 0.270315,0.0865 0.385429,0.0942 0.05757,0.004 0.11153,0.001 0.162419,-0.007 0.0509,-0.008 0.09872,-0.0228 0.143987,-0.0424 0.09056,-0.0392 0.170916,-0.0992 0.245281,-0.1751 0.07439,-0.0759 0.142782,-0.1677 0.209383,-0.27026 0.06662,-0.1026 0.131463,-0.21601 0.198702,-0.33515 0.13462,-0.23854 0.278764,-0.49985 0.466261,-0.744 0.18767,-0.24438 0.418544,-0.47126 0.726214,-0.64057 0.153952,-0.0847 0.327074,-0.15499 0.513897,-0.21573 0.186945,-0.0608 0.387654,-0.11203 0.596633,-0.15868 0.418451,-0.0934 0.870157,-0.16843 1.311786,-0.26442 0.442491,-0.0962 0.874535,-0.2133 1.253658,-0.39076 0.189788,-0.0888 0.366219,-0.19273 0.523974,-0.31661 0.157911,-0.124 0.297073,-0.26798 0.412172,-0.43682 0.115216,-0.16902 0.206351,-0.36298 0.27802,-0.5729 0.07175,-0.21015 0.124007,-0.43633 0.161377,-0.66956 0.07486,-0.4672 0.09005,-0.96311 0.08232,-1.41579 -0.0039,-0.22682 -0.01351,-0.44301 -0.02432,-0.63954 -0.01083,-0.19683 -0.02284,-0.37405 -0.03147,-0.52285 -0.0043,-0.0745 -0.0078,-0.14184 -0.0099,-0.201 -0.0021,-0.0592 -0.0027,-0.11016 -0.0014,-0.15182 6.65e-4,-0.0208 0.0018,-0.0393 0.0036,-0.0554 0.0017,-0.016 0.004,-0.0296 0.007,-0.0406 0.0015,-0.005 0.0031,-0.0103 0.0049,-0.0145 0.0018,-0.004 0.0038,-0.008 0.0059,-0.0105 0.0021,-0.003 0.0045,-0.005 0.007,-0.006 0.0052,-0.002 0.0066,-0.002 0.0081,-0.002 0.0029,0 0.006,7.3e-4 0.0092,0.002 0.0033,0.001 0.0067,0.004 0.0104,0.006 0.0073,0.006 0.0154,0.0139 0.02423,0.0247 0.0088,0.0108 0.01842,0.0242 0.02874,0.0399 0.01032,0.0157 0.02137,0.0337 0.03315,0.0539 0.02356,0.0404 0.04999,0.0895 0.07917,0.14585 0.0292,0.0564 0.06116,0.11996 0.09573,0.18934 0.06931,0.13908 0.148941,0.30097 0.238283,0.47496 0.08945,0.1742 0.188379,0.36003 0.295897,0.54626 0.215685,0.37359 0.465326,0.74774 0.741523,1.03251 0.138445,0.14275 0.283452,0.26292 0.434089,0.34933 0.07542,0.0433 0.152246,0.0781 0.230351,0.10297 0.07818,0.0249 0.157641,0.04 0.23826,0.0438 0.0807,0.004 0.162564,-0.004 0.245496,-0.0211 0.08302,-0.0174 0.167108,-0.0446 0.252174,-0.0803 0.170395,-0.0714 0.344766,-0.17654 0.522258,-0.30376 0.355689,-0.25496 0.725642,-0.60001 1.100948,-0.94083 0.377919,-0.3432 0.761569,-0.68244 1.1474,-0.92887 0.19345,-0.12356 0.387082,-0.22354 0.580319,-0.28881 0.193716,-0.0654 0.38691,-0.0959 0.578968,-0.0804 0.192518,0.0155 0.383851,0.0773 0.572957,0.17416 0.189612,0.0971 0.377078,0.2297 0.561348,0.38664 0.36985,0.31499 0.72777,0.7291 1.06475,1.1542 0.31832,0.40154 0.63078,0.83304 0.94909,1.23458 0.14625,0.18429 0.2854,0.35007 0.41676,0.48712 0.13177,0.13746 0.25554,0.24583 0.37055,0.31484 0.0576,0.0346 0.11307,0.0593 0.16659,0.075 0.0536,0.0157 0.10533,0.0225 0.15545,0.0211 0.0502,-0.001 0.0988,-0.0108 0.14609,-0.0275 0.0474,-0.0167 0.0935,-0.0406 0.13856,-0.0709 0.0904,-0.0607 0.17685,-0.1468 0.26171,-0.25113 0.0851,-0.10469 0.16877,-0.22784 0.25317,-0.36212 0.16975,-0.2701 0.34292,-0.58548 0.53841,-0.89003 0.19718,-0.30717 0.41634,-0.60245 0.67732,-0.8326 0.2626,-0.23159 0.56719,-0.3969 0.88771,-0.52992 0.32261,-0.13388 0.66462,-0.23627 0.99667,-0.3393 0.33649,-0.10441 0.66365,-0.20972 0.96151,-0.35043 0.14969,-0.0707 0.29144,-0.15015 0.42254,-0.24243 0.13171,-0.0927 0.25252,-0.19831 0.35971,-0.32086 0.2159,-0.24685 0.3766,-0.56252 0.49112,-0.94279 0.11567,-0.38414 0.18432,-0.83455 0.21482,-1.34665 0.0619,-1.03957 -0.0332,-2.34053 -0.21515,-3.85822 -0.18597,-1.55081 -0.46566,-3.34918 -0.72224,-4.92677 -0.13057,-0.80284 -0.25918,-1.57283 -0.36692,-2.22419 -0.11048,-0.66795 -0.20198,-1.22893 -0.2631,-1.64194 -0.0308,-0.2083 -0.0538,-0.37811 -0.0698,-0.51412 -0.0161,-0.13707 -0.0252,-0.23988 -0.028,-0.31308 -0.001,-0.0368 -0.001,-0.0662 3e-4,-0.0886 8e-4,-0.0113 0.002,-0.0208 0.003,-0.0286 0.002,-0.008 0.003,-0.014 0.006,-0.0186 0.001,-0.002 0.002,-0.004 0.004,-0.006 0.001,-0.002 0.003,-0.003 0.004,-0.003 10e-4,-7.3e-4 0.003,-0.001 0.005,-0.001 0.002,3e-5 0.003,4.4e-4 0.005,0.001 0.002,7.8e-4 0.004,0.002 0.006,0.003 0.002,0.002 0.004,0.003 0.006,0.006 0.004,0.004 0.009,0.0103 0.0135,0.0175 0.01,0.0144 0.0204,0.0343 0.0323,0.059 0.0119,0.0248 0.025,0.0544 0.039,0.0884 0.0282,0.0684 0.0605,0.15432 0.0958,0.25329 0.0714,0.1998 0.15686,0.45617 0.24788,0.72924 0.19074,0.57222 0.40327,1.20765 0.74563,2.02919 0.35589,0.85399 0.83633,1.86975 1.52997,3.13598 0.73026,1.33306 1.67075,2.8978 2.58285,4.27344 0.47673,0.71901 0.94406,1.38418 1.37746,1.95202 0.22184,0.29067 0.43428,0.55517 0.63454,0.78856 0.20372,0.23743 0.39445,0.44223 0.56958,0.60977 0.1782,0.17047 0.34029,0.30241 0.48851,0.402 0.15104,0.10147 0.28798,0.16957 0.41296,0.21038 0.12749,0.0416 0.24287,0.055 0.34821,0.0461 0.10756,-0.009 0.20499,-0.0413 0.29425,-0.0907 0.0912,-0.0505 0.17435,-0.11931 0.2511,-0.20028 0.0786,-0.0829 0.15095,-0.17906 0.21875,-0.28246 0.13927,-0.21239 0.2655,-0.46573 0.38364,-0.70201 -0.11814,0.23628 -0.24437,0.48962 -0.38364,0.70201 -0.0678,0.1034 -0.14019,0.19958 -0.21875,0.28245 -0.0768,0.081 -0.15985,0.14974 -0.2511,0.20029 -0.0893,0.0495 -0.18669,0.0817 -0.29425,0.0907 -0.10534,0.009 -0.22072,-0.004 -0.34821,-0.0461 -0.12498,-0.0408 -0.26192,-0.10891 -0.41295,-0.21038 -0.14823,-0.0996 -0.31032,-0.23153 -0.48852,-0.402 -0.17513,-0.16754 -0.36586,-0.37234 -0.56958,-0.60977 -0.20026,-0.23339 -0.4127,-0.49789 -0.63454,-0.78856 -0.4334,-0.56784 -0.90073,-1.23301 -1.37746,-1.95202 -0.9121,-1.37564 -1.85259,-2.94038 -2.58284,-4.27344 -0.69365,-1.26623 -1.17409,-2.28199 -1.52998,-3.13598 -0.34236,-0.82154 -0.55489,-1.45697 -0.74563,-2.02918 -0.091,-0.27308 -0.17645,-0.52945 -0.24788,-0.72925 -0.0354,-0.099 -0.0676,-0.18492 -0.0958,-0.25329 -0.014,-0.034 -0.0271,-0.0636 -0.039,-0.0884 -0.0119,-0.0247 -0.0227,-0.0445 -0.0323,-0.059 -0.005,-0.007 -0.009,-0.0131 -0.0135,-0.0175 -0.002,-0.002 -0.004,-0.004 -0.006,-0.006 -0.002,-0.002 -0.004,-0.003 -0.006,-0.003 -0.002,-7.8e-4 -0.003,-0.001 -0.005,-0.001 -0.002,-3e-5 -0.003,3.1e-4 -0.005,0.001 -0.001,7.3e-4 -0.003,0.002 -0.004,0.003 -0.001,0.002 -0.002,0.003 -0.004,0.006 -0.002,0.005 -0.004,0.0108 -0.006,0.0186 -0.002,0.008 -0.003,0.0174 -0.003,0.0286 -0.002,0.0224 -0.002,0.0518 -3e-4,0.0886 0.003,0.0732 0.0119,0.17601 0.028,0.31308 0.016,0.13601 0.039,0.30582 0.0698,0.51412 0.0611,0.41301 0.15262,0.97399 0.2631,1.64194 0.10774,0.65136 0.23635,1.42135 0.36692,2.22419 0.25658,1.57759 0.53627,3.37596 0.72224,4.92675 0.182,1.51771 0.27709,2.81867 0.21515,3.85824 -0.0305,0.5121 -0.0991,0.96251 -0.21482,1.34665 -0.11452,0.38027 -0.27522,0.69594 -0.49112,0.94279 -0.10719,0.12255 -0.228,0.22814 -0.35971,0.32086 -0.1311,0.0923 -0.27285,0.17171 -0.42254,0.24243 -0.29786,0.14071 -0.62502,0.24602 -0.96151,0.35042 -0.33205,0.10304 -0.67406,0.20543 -0.99667,0.33931 -0.32052,0.13302 -0.62511,0.29833 -0.88771,0.52992 -0.26098,0.23015 -0.48014,0.52543 -0.67732,0.8326 -0.19549,0.30455 -0.36866,0.61993 -0.53841,0.89003 -0.0844,0.13428 -0.16804,0.25743 -0.25317,0.36211 -0.0849,0.10434 -0.17131,0.19047 -0.2617,0.25114 -0.0451,0.0303 -0.0912,0.0542 -0.13856,0.0709 -0.0473,0.0167 -0.0959,0.0261 -0.1461,0.0275 -0.0501,0.001 -0.10183,-0.005 -0.15545,-0.0211 -0.0535,-0.0157 -0.10895,-0.0404 -0.16658,-0.075 -0.11502,-0.069 -0.23879,-0.17738 -0.37056,-0.31484 -0.13136,-0.13705 -0.27051,-0.30283 -0.41675,-0.48711 -0.31155,-0.39261 -0.63755,-0.84199 -0.94909,-1.23459 -0.33699,-0.4251 -0.69491,-0.83921 -1.06476,-1.1542 -0.18427,-0.15694 -0.371736,-0.28949 -0.561341,-0.38664 -0.189113,-0.0969 -0.380446,-0.15862 -0.572964,-0.17416 -0.192058,-0.0155 -0.385252,0.015 -0.578968,0.0804 -0.193237,0.0653 -0.386869,0.16525 -0.580311,0.2888 -0.385839,0.24644 -0.769489,0.58568 -1.1474,0.92887 -0.375314,0.34083 -0.745267,0.68588 -1.100956,0.94084 -0.177492,0.12722 -0.351863,0.23236 -0.522252,0.30376 -0.08507,0.0356 -0.169165,0.0629 -0.25218,0.0803 -0.08293,0.0174 -0.164798,0.0249 -0.245496,0.0211 -0.08062,-0.004 -0.160078,-0.0188 -0.23826,-0.0438 -0.07811,-0.0249 -0.154927,-0.0597 -0.230351,-0.10297 -0.150637,-0.0864 -0.295644,-0.20658 -0.434089,-0.34933 -0.276197,-0.28477 -0.525838,-0.65892 -0.741519,-1.0325 -0.107522,-0.18624 -0.20645,-0.37207 -0.295897,-0.54626 -0.08935,-0.174 -0.168977,-0.33589 -0.238287,-0.47497 -0.03458,-0.0694 -0.06654,-0.13298 -0.09573,-0.18934 -0.02918,-0.0563 -0.05561,-0.10542 -0.07917,-0.14585 -0.01177,-0.0202 -0.02283,-0.0382 -0.03315,-0.0539 -0.01032,-0.0157 -0.0199,-0.029 -0.02874,-0.0399 -0.0088,-0.0108 -0.01691,-0.0191 -0.02423,-0.0247 -0.0037,-0.003 -0.0071,-0.005 -0.0104,-0.006 -0.0033,-0.001 -0.0064,-0.002 -0.0092,-0.002 -0.0014,0 -0.0028,1.8e-4 -0.0042,5.4e-4 -0.0064,0.003 -0.0087,0.005 -0.01086,0.008 -0.0021,0.003 -0.0041,0.006 -0.0059,0.0105 -0.0018,0.004 -0.0034,0.009 -0.0049,0.0145 -0.0029,0.011 -0.0052,0.0246 -0.007,0.0406 -0.0017,0.016 -0.0029,0.0345 -0.0036,0.0554 -0.0013,0.0417 -6.78e-4,0.0926 0.0014,0.15182 0.0021,0.0592 0.0055,0.12651 0.0099,0.201 0.0086,0.1488 0.02064,0.32602 0.03147,0.52285 0.01081,0.19653 0.02044,0.41272 0.02432,0.63954 0.0077,0.45268 -0.0075,0.94859 -0.08232,1.41578 -0.03737,0.23324 -0.08963,0.45942 -0.161375,0.66956 -0.07167,0.20993 -0.162807,0.40389 -0.278018,0.5729 -0.115104,0.16885 -0.254266,0.31283 -0.412177,0.43683 -0.157755,0.12388 -0.334186,0.22778 -0.523974,0.31661 -0.379123,0.17746 -0.811167,0.29459 -1.253649,0.39076 -0.441638,0.096 -0.893344,0.17101 -1.311795,0.26442 -0.208979,0.0466 -0.409688,0.0979 -0.596633,0.15868 -0.186823,0.0607 -0.359945,0.131 -0.513897,0.21573 -0.30767,0.16931 -0.538544,0.39619 -0.72621,0.64056 -0.187501,0.24416 -0.331645,0.50547 -0.466265,0.74401 -0.06724,0.11914 -0.132082,0.23255 -0.198702,0.33515 -0.0666,0.10256 -0.134996,0.19434 -0.209383,0.27026 -0.07437,0.0759 -0.154723,0.13595 -0.245281,0.1751 -0.04527,0.0196 -0.09309,0.0339 -0.143987,0.0424 -0.05089,0.008 -0.104853,0.0111 -0.162418,0.007 -0.115115,-0.008 -0.244669,-0.0413 -0.38543,-0.0942 -0.140741,-0.0529 -0.292676,-0.12491 -0.452576,-0.20947 -0.319773,-0.16911 -0.671314,-0.38816 -1.028774,-0.60342 -0.357452,-0.21525 -0.720722,-0.42664 -1.063913,-0.5804 -0.171613,-0.0769 -0.338191,-0.13936 -0.4965,-0.18069 -0.158333,-0.0413 -0.308385,-0.0615 -0.446924,-0.0539 -0.138566,0.008 -0.265564,0.0432 -0.383995,0.0988 -0.118459,0.0556 -0.228354,0.13123 -0.332683,0.21912 -0.10436,0.0879 -0.203164,0.18807 -0.299397,0.29265 -0.09627,0.10462 -0.189978,0.21367 -0.284125,0.31934 -0.09419,0.10573 -0.188801,0.20805 -0.286868,0.2992 -0.09811,0.0912 -0.199655,0.1712 -0.307641,0.23223 -0.108038,0.0611 -0.222507,0.10311 -0.346413,0.11841 -0.123983,0.0153 -0.25739,0.004 -0.403223,-0.0422 -0.145923,-0.0461 -0.304323,-0.12675 -0.472996,-0.23248 -0.168785,-0.1058 -0.347894,-0.2367 -0.535091,-0.38313 -0.374836,-0.29323 -0.78218,-0.64875 -1.204589,-0.99055 -0.423243,-0.34247 -0.861245,-0.67089 -1.297335,-0.9101 -0.218302,-0.11974 -0.436012,-0.21706 -0.651023,-0.28258 -0.215225,-0.0656 -0.427694,-0.0993 -0.635299,-0.0917 -0.207815,0.008 -0.410702,0.0565 -0.608998,0.13648 -0.198518,0.0801 -0.392483,0.19124 -0.582211,0.32321 -0.37999,0.26431 -0.743567,0.61244 -1.092718,0.96158 -0.350572,0.35055 -0.686081,0.70154 -1.011581,0.9735 -0.162923,0.13612 -0.323028,0.25217 -0.480765,0.33809 -0.157971,0.086 -0.313492,0.14182 -0.46699,0.15732 -0.153717,0.0155 -0.305428,-0.009 -0.454371,-0.0632 -0.149177,-0.0539 -0.295642,-0.1367 -0.438608,-0.23694 -0.286423,-0.20083 -0.559681,-0.4722 -0.812622,-0.72127 -0.126978,-0.12504 -0.248901,-0.24454 -0.36536,-0.34741 -0.116639,-0.10303 -0.227602,-0.1892 -0.332292,-0.2473 -0.05241,-0.0291 -0.103233,-0.0511 -0.152389,-0.0647 -0.04921,-0.0136 -0.09674,-0.0188 -0.142508,-0.014 -0.04582,0.005 -0.08987,0.0194 -0.132074,0.0452 -0.04225,0.0259 -0.08264,0.0631 -0.121102,0.11306 -0.0385,0.05 -0.07505,0.11265 -0.109859,0.18653 -0.03484,0.074 -0.06794,0.15913 -0.09948,0.254 -0.06319,0.19004 -0.12017,0.41903 -0.17252,0.67476 -0.104983,0.51286 -0.191578,1.13459 -0.272046,1.76685 -0.08113,0.63744 -0.155543,1.28133 -0.237169,1.84766 -0.04084,0.28337 -0.08329,0.54578 -0.128923,0.77578 -0.04575,0.23059 -0.09466,0.42841 -0.14831,0.58199 -0.02687,0.0769 -0.05493,0.14275 -0.08414,0.19789 -0.02925,0.0552 -0.05966,0.0997 -0.09119,0.13393 -0.03157,0.0343 -0.06427,0.0582 -0.09805,0.0723 -0.01691,0.007 -0.03409,0.0116 -0.05154,0.0138 -0.01746,0.002 -0.03519,0.002 -0.05319,-7.4e-4 -0.03603,-0.005 -0.07312,-0.02 -0.111231,-0.0439 -0.03817,-0.0239 -0.07736,-0.0568 -0.117551,-0.0985 -0.08055,-0.0834 -0.165089,-0.20172 -0.253339,-0.35138 -0.0885,-0.15009 -0.180752,-0.33177 -0.276449,-0.54163 -0.09598,-0.21047 -0.19545,-0.44933 -0.298112,-0.71314 -0.206223,-0.52993 -0.42554,-1.16111 -0.655421,-1.86585 -0.463484,-1.42089 -0.973248,-3.15175 -1.468346,-4.86548 -0.507683,-1.7573 -0.990648,-3.46359 -1.421883,-4.91154 -0.871332,-2.92563 -1.487103,-4.64128 -1.90585,-5.71863 -0.108205,-0.27838 -0.2039,-0.51563 -0.291004,-0.6985 -0.04383,-0.092 -0.08535,-0.16998 -0.125015,-0.23216 -0.01991,-0.0312 -0.03934,-0.0584 -0.05834,-0.0815 -0.01905,-0.0231 -0.03767,-0.0419 -0.05592,-0.0563 -0.01829,-0.0144 -0.0362,-0.0244 -0.05377,-0.0297 -0.0088,-0.003 -0.01752,-0.004 -0.02616,-0.004 -0.0087,-2.6e-4 -0.01723,6.9e-4 -0.02573,0.003 -0.0085,0.002 -0.01695,0.006 -0.02532,0.0103 -0.0084,0.005 -0.0167,0.0107 -0.02496,0.0179 -0.01655,0.0146 -0.03285,0.0343 -0.04895,0.0595 -0.03234,0.0506 -0.06387,0.12296 -0.09498,0.21885 -0.03128,0.0964 -0.06212,0.21664 -0.09289,0.36221 -0.06203,0.29347 -0.123844,0.69117 -0.193639,1.19788 -0.07038,0.51092 -0.150081,1.14195 -0.245276,1.88397 -0.196917,1.53489 -0.456896,3.51822 -0.85337,6.07971 -0.406437,2.62585 -0.946667,5.79785 -1.422041,8.40106 -0.244368,1.33819 -0.472411,2.53095 -0.661978,3.45406 -0.09605,0.46771 -0.182149,0.86589 -0.255678,1.17976 -0.03702,0.15801 -0.07083,0.2946 -0.101128,0.40797 -0.03044,0.11392 -0.05732,0.20435 -0.08032,0.26954 -0.01154,0.0327 -0.02211,0.0591 -0.03178,0.0794 -0.0048,0.0102 -0.0095,0.0188 -0.01388,0.026 -0.0044,0.007 -0.0086,0.0129 -0.01261,0.0172 -0.002,0.002 -0.004,0.004 -0.0059,0.005 -0.0019,10e-4 -0.0038,0.002 -0.0056,0.003 -0.0018,7.1e-4 -0.0036,0.001 -0.0053,0.001 -0.0017,1e-5 -0.0034,-3.2e-4 -0.005,-0.001 -0.0016,-6.8e-4 -0.0032,-0.002 -0.0047,-0.003 -0.0015,-0.001 -0.003,-0.003 -0.0045,-0.005 -0.0029,-0.004 -0.0056,-0.009 -0.0081,-0.0162 -0.0026,-0.007 -0.0049,-0.0147 -0.0072,-0.024 -0.0022,-0.009 -0.0043,-0.0198 -0.0063,-0.0316 -0.0039,-0.0236 -0.0072,-0.0521 -0.01005,-0.0853 -0.0057,-0.0666 -0.0094,-0.15176 -0.01178,-0.25309 -0.0048,-0.20376 -0.0043,-0.47467 -0.0035,-0.79038 7.59e-4,-0.32081 0.0017,-0.68549 -0.002,-1.08226 -0.0077,-0.80813 -0.03504,-1.72365 -0.120563,-2.62225 -0.0875,-0.9194 -0.234517,-1.80558 -0.477517,-2.53603 -0.248259,-0.74625 -0.597141,-1.33009 -0.9762,-1.81256 -0.388405,-0.49436 -0.818024,-0.89355 -1.21318,-1.24735 -0.204908,-0.18347 -0.398111,-0.3525 -0.581969,-0.52345 -0.185421,-0.1724 -0.355512,-0.3415 -0.505026,-0.5162 -0.151849,-0.17743 -0.281321,-0.35936 -0.382686,-0.55365 -0.103076,-0.19757 -0.176615,-0.40708 -0.21495,-0.63578 -0.03899,-0.23263 -0.04146,-0.48487 -0.01367,-0.75251 0.02832,-0.27273 0.08811,-0.562 0.173116,-0.8635 0.174969,-0.62059 0.458335,-1.2983 0.799871,-1.99659 0.356471,-0.72882 0.783084,-1.49356 1.226873,-2.25038 0.462454,-0.78865 0.968312,-1.61018 1.440464,-2.37743 z" id="path4816"></path><path style="color:#000000;fill:#00ff04;-inkscape-stroke:none" d="m 108.10062,130.97515 c 2.4604,-1.47624 4.92003,-2.95201 7.37888,-4.42732 z" id="path4834"></path><path style="color:#000000;opacity:0.628665;fill:#050c29;fill-opacity:0.769231;stroke-width:0.579173;stroke-linecap:round;stroke-linejoin:round;-inkscape-stroke:none;paint-order:stroke fill markers" d="m 108.10062,130.97515 c 1.47578,-0.88546 5.9031,-3.54186 7.37888,-4.42732 -1.47578,0.88546 -5.9031,3.54186 -7.37888,4.42732 z" id="path4826"></path></g></svg>