<svg xmlns="http://www.w3.org/2000/svg" xmlns:xlink="http://www.w3.org/1999/xlink" width="50" zoomAndPan="magnify" viewBox="0 0 37.5 37.499999" height="50" preserveAspectRatio="xMidYMid meet" version="1.0"><defs><clipPath id="id1"><path d="M 4 5.332031 L 33.75 5.332031 L 33.75 32 L 4 32 Z M 4 5.332031 " clip-rule="nonzero"/></clipPath></defs><g clip-path="url(#id1)"><path fill="rgb(100%, 100%, 100%)" d="M 5.976562 18.804688 C 5.976562 19.28125 6.003906 19.757812 6.058594 20.230469 C 6.109375 20.707031 6.1875 21.175781 6.292969 21.640625 C 6.398438 22.105469 6.527344 22.5625 6.683594 23.011719 C 6.839844 23.464844 7.019531 23.902344 7.222656 24.335938 C 7.425781 24.765625 7.652344 25.183594 7.902344 25.585938 C 8.152344 25.992188 8.425781 26.382812 8.71875 26.757812 C 9.011719 27.132812 9.324219 27.488281 9.65625 27.828125 C 9.988281 28.167969 10.335938 28.488281 10.707031 28.789062 C 11.074219 29.089844 11.457031 29.371094 11.855469 29.628906 C 12.253906 29.886719 12.664062 30.121094 13.089844 30.332031 C 13.515625 30.542969 13.949219 30.730469 14.394531 30.894531 C 14.839844 31.058594 15.292969 31.195312 15.753906 31.308594 C 16.214844 31.421875 16.679688 31.507812 17.148438 31.570312 C 17.621094 31.628906 18.089844 31.664062 18.566406 31.671875 C 19.039062 31.679688 19.511719 31.660156 19.984375 31.617188 C 20.457031 31.570312 20.921875 31.5 21.386719 31.402344 C 23.09375 30.992188 24.820312 30.84375 26.566406 30.964844 C 27.007812 31.007812 27.445312 31.007812 27.886719 30.964844 C 28.15625 30.933594 28.421875 30.882812 28.6875 30.816406 C 28.949219 30.75 29.207031 30.667969 29.460938 30.570312 C 29.710938 30.46875 29.957031 30.355469 30.195312 30.222656 C 30.433594 30.089844 30.660156 29.941406 30.878906 29.78125 C 31.097656 29.621094 31.304688 29.445312 31.5 29.253906 C 31.695312 29.066406 31.878906 28.863281 32.046875 28.652344 C 32.21875 28.4375 32.375 28.214844 32.515625 27.984375 C 32.65625 27.75 32.78125 27.507812 32.890625 27.257812 C 33 27.007812 33.09375 26.753906 33.167969 26.492188 C 33.246094 26.230469 33.304688 25.964844 33.347656 25.695312 C 33.390625 25.421875 33.414062 25.152344 33.421875 24.878906 C 33.429688 24.605469 33.417969 24.335938 33.390625 24.0625 C 33.359375 23.792969 33.316406 23.523438 33.25 23.257812 C 33.1875 22.992188 33.109375 22.730469 33.011719 22.476562 C 32.914062 22.222656 32.800781 21.972656 32.671875 21.734375 C 32.542969 21.492188 32.402344 21.261719 32.242188 21.042969 C 31.773438 20.371094 31.546875 19.625 31.558594 18.804688 C 31.558594 18.328125 31.53125 17.851562 31.480469 17.378906 C 31.425781 16.90625 31.347656 16.4375 31.242188 15.972656 C 31.136719 15.507812 31.007812 15.046875 30.851562 14.597656 C 30.699219 14.148438 30.519531 13.707031 30.316406 13.277344 C 30.109375 12.847656 29.882812 12.429688 29.632812 12.023438 C 29.382812 11.617188 29.113281 11.226562 28.820312 10.851562 C 28.527344 10.476562 28.214844 10.121094 27.882812 9.78125 C 27.550781 9.441406 27.199219 9.121094 26.832031 8.820312 C 26.464844 8.519531 26.078125 8.242188 25.679688 7.984375 C 25.28125 7.726562 24.871094 7.492188 24.445312 7.277344 C 24.023438 7.066406 23.585938 6.878906 23.140625 6.714844 C 22.695312 6.550781 22.242188 6.414062 21.78125 6.300781 C 21.324219 6.191406 20.855469 6.101562 20.386719 6.042969 C 19.917969 5.980469 19.445312 5.949219 18.972656 5.941406 C 18.496094 5.933594 18.023438 5.949219 17.554688 5.996094 C 17.082031 6.039062 16.613281 6.113281 16.148438 6.207031 C 14.453125 6.621094 12.730469 6.765625 10.988281 6.648438 C 10.535156 6.597656 10.078125 6.597656 9.625 6.648438 C 9.355469 6.679688 9.09375 6.726562 8.832031 6.792969 C 8.574219 6.859375 8.316406 6.941406 8.066406 7.042969 C 7.816406 7.140625 7.574219 7.257812 7.339844 7.386719 C 7.105469 7.519531 6.878906 7.664062 6.664062 7.824219 C 6.445312 7.984375 6.242188 8.15625 6.046875 8.34375 C 5.851562 8.53125 5.671875 8.726562 5.503906 8.9375 C 5.335938 9.148438 5.179688 9.367188 5.039062 9.597656 C 4.898438 9.828125 4.773438 10.066406 4.664062 10.3125 C 4.554688 10.5625 4.460938 10.8125 4.382812 11.070312 C 4.304688 11.332031 4.246094 11.59375 4.199219 11.859375 C 4.15625 12.125 4.128906 12.394531 4.121094 12.664062 C 4.113281 12.933594 4.121094 13.203125 4.144531 13.472656 C 4.171875 13.742188 4.210938 14.007812 4.273438 14.273438 C 4.332031 14.535156 4.40625 14.792969 4.5 15.046875 C 4.59375 15.300781 4.699219 15.546875 4.824219 15.789062 C 4.949219 16.027344 5.089844 16.257812 5.242188 16.480469 C 5.730469 17.175781 5.976562 17.953125 5.976562 18.804688 Z M 12.1875 21.597656 C 12.386719 21.4375 12.609375 21.320312 12.855469 21.25 C 13.101562 21.175781 13.351562 21.15625 13.605469 21.183594 C 13.859375 21.214844 14.097656 21.289062 14.320312 21.414062 C 14.542969 21.539062 14.734375 21.703125 14.894531 21.902344 C 14.894531 21.902344 16.429688 23.675781 18.570312 23.742188 C 21.199219 23.828125 21.769531 23.042969 21.851562 22.378906 C 21.945312 21.566406 21.222656 20.96875 18.328125 20.265625 C 15.890625 19.675781 12.1875 18.804688 12.1875 14.8125 C 12.1875 13.578125 12.714844 9.527344 19.132812 9.527344 C 23.199219 9.527344 25.601562 12.753906 25.707031 12.890625 C 25.859375 13.097656 25.964844 13.324219 26.027344 13.574219 C 26.089844 13.820312 26.101562 14.074219 26.0625 14.328125 C 26.027344 14.582031 25.941406 14.816406 25.808594 15.035156 C 25.679688 15.257812 25.511719 15.445312 25.304688 15.597656 C 25.101562 15.75 24.875 15.855469 24.628906 15.917969 C 24.382812 15.980469 24.132812 15.992188 23.878906 15.957031 C 23.625 15.917969 23.390625 15.832031 23.171875 15.703125 C 22.953125 15.570312 22.769531 15.402344 22.617188 15.195312 C 21.671875 14.179688 20.511719 13.582031 19.140625 13.402344 C 17.5625 13.253906 16.042969 13.820312 16.042969 14.65625 C 16.042969 15.492188 16.484375 15.839844 19.25 16.5 C 21.828125 17.117188 25.726562 18.050781 25.726562 22.367188 C 25.75 22.855469 25.695312 23.332031 25.570312 23.804688 C 25.441406 24.273438 25.246094 24.714844 24.984375 25.125 C 24.722656 25.535156 24.40625 25.894531 24.03125 26.203125 C 23.65625 26.511719 23.246094 26.757812 22.796875 26.941406 C 21.4375 27.449219 20.039062 27.671875 18.59375 27.605469 C 14.546875 27.605469 11.992188 24.433594 11.886719 24.308594 C 11.726562 24.109375 11.613281 23.882812 11.539062 23.636719 C 11.46875 23.390625 11.445312 23.136719 11.472656 22.882812 C 11.503906 22.625 11.578125 22.386719 11.703125 22.160156 C 11.824219 21.933594 11.988281 21.742188 12.1875 21.582031 Z M 12.1875 21.597656 " fill-opacity="1" fill-rule="nonzero"/></g></svg>