<svg xmlns="http://www.w3.org/2000/svg" xmlns:xlink="http://www.w3.org/1999/xlink" width="50" zoomAndPan="magnify" viewBox="0 0 37.5 37.499999" height="50" preserveAspectRatio="xMidYMid meet" version="1.0"><defs><clipPath id="id1"><path d="M 3.75 3.75 L 33.75 3.75 L 33.75 33.75 L 3.75 33.75 Z M 3.75 3.75 " clip-rule="nonzero"/></clipPath></defs><g clip-path="url(#id1)"><path fill="rgb(100%, 100%, 100%)" d="M 18.75 3.75 C 11.53125 3.75 3.828125 4.746094 3.828125 16.632812 C 3.828125 22.128906 5.519531 25.777344 8.976562 27.730469 C 9.488281 28.023438 9.886719 28.429688 10.179688 28.941406 C 10.472656 29.453125 10.613281 30.003906 10.609375 30.59375 L 10.609375 31.425781 C 10.59375 31.882812 10.714844 32.304688 10.972656 32.683594 C 11.230469 33.0625 11.574219 33.332031 12.003906 33.488281 C 12.402344 33.628906 12.808594 33.640625 13.214844 33.53125 C 13.625 33.425781 13.96875 33.210938 14.246094 32.890625 L 16.171875 30.691406 C 16.496094 30.316406 16.882812 30.027344 17.332031 29.824219 C 17.78125 29.617188 18.253906 29.515625 18.75 29.519531 C 25.96875 29.519531 33.671875 28.523438 33.671875 16.632812 C 33.671875 4.746094 25.96875 3.75 18.75 3.75 Z M 18.75 13.246094 C 19.109375 13.246094 19.457031 13.316406 19.785156 13.453125 C 20.117188 13.589844 20.414062 13.789062 20.667969 14.042969 C 20.921875 14.296875 21.117188 14.589844 21.253906 14.921875 C 21.390625 15.253906 21.460938 15.597656 21.460938 15.957031 C 21.460938 16.144531 21.394531 16.304688 21.261719 16.4375 C 21.128906 16.570312 20.96875 16.636719 20.78125 16.636719 C 20.59375 16.636719 20.433594 16.570312 20.300781 16.4375 C 20.167969 16.304688 20.101562 16.144531 20.101562 15.957031 C 20.101562 15.777344 20.070312 15.605469 20 15.4375 C 19.933594 15.273438 19.835938 15.125 19.707031 15 C 19.582031 14.871094 19.433594 14.773438 19.269531 14.703125 C 19.101562 14.632812 18.929688 14.601562 18.75 14.597656 C 18.5625 14.597656 18.402344 14.53125 18.269531 14.398438 C 18.136719 14.265625 18.070312 14.105469 18.070312 13.917969 C 18.070312 13.730469 18.136719 13.570312 18.269531 13.4375 C 18.402344 13.304688 18.5625 13.242188 18.75 13.242188 Z M 18.074219 11.210938 C 18.074219 11.023438 18.140625 10.863281 18.269531 10.730469 C 18.402344 10.597656 18.5625 10.535156 18.75 10.535156 C 19.105469 10.535156 19.457031 10.570312 19.808594 10.636719 C 20.15625 10.707031 20.496094 10.8125 20.824219 10.949219 C 21.152344 11.085938 21.464844 11.25 21.761719 11.449219 C 22.058594 11.648438 22.332031 11.871094 22.585938 12.125 C 22.835938 12.375 23.0625 12.648438 23.257812 12.945312 C 23.457031 13.242188 23.625 13.554688 23.761719 13.882812 C 23.898438 14.210938 24 14.550781 24.070312 14.898438 C 24.140625 15.25 24.175781 15.601562 24.175781 15.957031 C 24.175781 16.144531 24.109375 16.304688 23.976562 16.4375 C 23.84375 16.570312 23.683594 16.636719 23.496094 16.636719 C 23.308594 16.636719 23.148438 16.570312 23.015625 16.4375 C 22.882812 16.304688 22.816406 16.144531 22.816406 15.957031 C 22.816406 15.691406 22.789062 15.425781 22.738281 15.164062 C 22.6875 14.902344 22.609375 14.648438 22.507812 14.402344 C 22.402344 14.15625 22.277344 13.917969 22.128906 13.699219 C 21.984375 13.476562 21.8125 13.269531 21.625 13.082031 C 21.4375 12.890625 21.230469 12.722656 21.007812 12.574219 C 20.789062 12.425781 20.554688 12.300781 20.304688 12.199219 C 20.058594 12.097656 19.804688 12.019531 19.542969 11.964844 C 19.28125 11.914062 19.015625 11.886719 18.75 11.886719 C 18.5625 11.886719 18.402344 11.820312 18.269531 11.6875 C 18.140625 11.554688 18.074219 11.398438 18.074219 11.210938 Z M 25.144531 23.359375 C 24.75 23.996094 24.226562 24.5 23.574219 24.871094 C 22.921875 25.242188 22.222656 25.4375 21.472656 25.453125 C 19.339844 25.453125 15.25 22.902344 13.535156 21.191406 C 11.816406 19.480469 9.269531 15.382812 9.269531 13.25 C 9.285156 12.5 9.480469 11.800781 9.851562 11.148438 C 10.222656 10.5 10.726562 9.976562 11.363281 9.578125 C 11.953125 9.246094 12.578125 9.148438 13.238281 9.292969 C 13.671875 9.375 14.0625 9.550781 14.414062 9.816406 C 14.765625 10.082031 15.035156 10.410156 15.234375 10.804688 C 15.472656 11.289062 15.765625 11.828125 15.964844 12.261719 C 16.238281 12.890625 16.195312 13.5 15.828125 14.085938 C 15.5 14.683594 15.367188 15.324219 15.429688 16.003906 C 15.492188 16.683594 15.734375 17.289062 16.164062 17.816406 C 16.277344 17.945312 16.394531 18.074219 16.515625 18.195312 C 16.640625 18.320312 16.734375 18.402344 16.847656 18.5 C 17.109375 18.714844 17.398438 18.886719 17.710938 19.019531 C 18.027344 19.148438 18.351562 19.230469 18.691406 19.261719 C 19.03125 19.296875 19.367188 19.277344 19.699219 19.210938 C 20.03125 19.144531 20.347656 19.027344 20.648438 18.867188 C 21.226562 18.511719 21.828125 18.472656 22.453125 18.746094 L 23.90625 19.476562 C 24.300781 19.671875 24.632812 19.945312 24.898438 20.292969 C 25.164062 20.644531 25.339844 21.035156 25.421875 21.46875 C 25.570312 22.132812 25.480469 22.765625 25.144531 23.359375 Z M 26.210938 16.632812 C 26.023438 16.632812 25.863281 16.570312 25.730469 16.4375 C 25.597656 16.304688 25.535156 16.144531 25.535156 15.957031 C 25.53125 15.511719 25.488281 15.070312 25.402344 14.636719 C 25.316406 14.199219 25.1875 13.773438 25.015625 13.363281 C 24.84375 12.953125 24.636719 12.5625 24.386719 12.191406 C 24.140625 11.820312 23.859375 11.476562 23.546875 11.164062 C 23.230469 10.847656 22.886719 10.566406 22.515625 10.320312 C 22.148438 10.070312 21.757812 9.863281 21.34375 9.691406 C 20.933594 9.523438 20.507812 9.394531 20.074219 9.304688 C 19.636719 9.21875 19.195312 9.175781 18.75 9.175781 C 18.5625 9.175781 18.402344 9.109375 18.269531 8.976562 C 18.136719 8.84375 18.070312 8.683594 18.070312 8.496094 C 18.070312 8.308594 18.136719 8.148438 18.269531 8.015625 C 18.402344 7.882812 18.5625 7.816406 18.75 7.816406 C 19.285156 7.816406 19.8125 7.871094 20.335938 7.972656 C 20.859375 8.078125 21.371094 8.234375 21.863281 8.4375 C 22.355469 8.644531 22.824219 8.894531 23.269531 9.191406 C 23.714844 9.488281 24.125 9.824219 24.503906 10.203125 C 24.878906 10.582031 25.21875 10.992188 25.515625 11.4375 C 25.8125 11.882812 26.0625 12.351562 26.265625 12.84375 C 26.46875 13.335938 26.625 13.847656 26.730469 14.371094 C 26.835938 14.894531 26.886719 15.421875 26.886719 15.957031 C 26.886719 16.144531 26.820312 16.304688 26.6875 16.4375 C 26.554688 16.570312 26.398438 16.632812 26.210938 16.632812 Z M 26.210938 16.632812 " fill-opacity="1" fill-rule="nonzero"/></g></svg>