<svg xmlns="http://www.w3.org/2000/svg" xmlns:xlink="http://www.w3.org/1999/xlink" width="50" zoomAndPan="magnify" viewBox="0 0 37.5 37.499999" height="50" preserveAspectRatio="xMidYMid meet" version="1.0"><defs><clipPath id="id1"><path d="M 3.75 4.023438 L 33.75 4.023438 L 33.75 33.273438 L 3.75 33.273438 Z M 3.75 4.023438 " clip-rule="nonzero"/></clipPath></defs><g clip-path="url(#id1)"><path fill="rgb(100%, 100%, 100%)" d="M 18.75 4.023438 C 10.53125 4.023438 3.867188 10.152344 3.867188 17.714844 C 3.871094 18.671875 3.980469 19.613281 4.191406 20.546875 C 4.40625 21.480469 4.714844 22.382812 5.125 23.246094 C 5.535156 24.113281 6.03125 24.925781 6.621094 25.683594 C 7.207031 26.441406 7.871094 27.128906 8.609375 27.746094 C 9.144531 28.203125 9.414062 28.785156 9.414062 29.488281 L 9.414062 32.679688 C 9.402344 32.894531 9.488281 33.058594 9.675781 33.167969 C 9.859375 33.277344 10.046875 33.277344 10.230469 33.160156 L 13.6875 31.277344 C 14.191406 31 14.722656 30.917969 15.285156 31.039062 C 16.429688 31.289062 17.589844 31.414062 18.761719 31.414062 C 26.980469 31.414062 33.644531 25.285156 33.644531 17.722656 C 33.644531 10.164062 26.96875 4.023438 18.75 4.023438 Z M 26.234375 16.261719 L 20.765625 22.386719 C 20.613281 22.554688 20.425781 22.648438 20.199219 22.667969 C 19.976562 22.691406 19.773438 22.628906 19.59375 22.492188 L 17.71875 21.023438 C 17.320312 20.710938 16.871094 20.511719 16.371094 20.425781 C 15.871094 20.339844 15.378906 20.375 14.894531 20.53125 L 11.902344 21.515625 C 11.722656 21.574219 11.539062 21.574219 11.359375 21.511719 C 11.179688 21.449219 11.035156 21.34375 10.929688 21.183594 C 10.820312 21.027344 10.773438 20.855469 10.78125 20.664062 C 10.789062 20.476562 10.855469 20.308594 10.976562 20.164062 L 16.625 13.5 C 16.78125 13.316406 16.976562 13.214844 17.21875 13.199219 C 17.460938 13.183594 17.671875 13.253906 17.851562 13.414062 L 19.75 15.109375 C 20.15625 15.476562 20.625 15.714844 21.160156 15.824219 C 21.695312 15.9375 22.222656 15.90625 22.742188 15.734375 L 25.324219 14.871094 C 25.511719 14.804688 25.699219 14.800781 25.890625 14.867188 C 26.078125 14.929688 26.226562 15.042969 26.335938 15.207031 C 26.445312 15.375 26.488281 15.554688 26.46875 15.753906 C 26.453125 15.949219 26.371094 16.117188 26.234375 16.261719 Z M 26.234375 16.261719 " fill-opacity="1" fill-rule="nonzero"/></g></svg>