<svg xmlns="http://www.w3.org/2000/svg" xmlns:xlink="http://www.w3.org/1999/xlink" width="50" zoomAndPan="magnify" viewBox="0 0 37.5 37.499999" height="50" preserveAspectRatio="xMidYMid meet" version="1.0"><defs><clipPath id="id1"><path d="M 3.75 6 L 33.75 6 L 33.75 31.40625 L 3.75 31.40625 Z M 3.75 6 " clip-rule="nonzero"/></clipPath></defs><g clip-path="url(#id1)"><path fill="rgb(100%, 100%, 100%)" d="M 31.726562 6.269531 L 4.386719 16.867188 C 4.1875 16.945312 4.03125 17.074219 3.914062 17.25 C 3.800781 17.425781 3.746094 17.621094 3.753906 17.832031 C 3.765625 18.042969 3.832031 18.230469 3.964844 18.398438 C 4.09375 18.566406 4.261719 18.679688 4.464844 18.738281 L 9.621094 20.234375 C 10.183594 20.398438 10.671875 20.683594 11.085938 21.089844 C 11.503906 21.496094 11.800781 21.976562 11.976562 22.527344 L 14.011719 28.929688 C 14.039062 29.027344 14.082031 29.121094 14.136719 29.207031 C 14.191406 29.292969 14.257812 29.371094 14.332031 29.441406 C 14.410156 29.511719 14.492188 29.570312 14.582031 29.621094 C 14.675781 29.667969 14.769531 29.703125 14.871094 29.726562 C 14.96875 29.75 15.074219 29.761719 15.175781 29.757812 C 15.277344 29.757812 15.378906 29.742188 15.480469 29.714844 C 15.578125 29.683594 15.671875 29.644531 15.761719 29.589844 C 15.847656 29.539062 15.929688 29.476562 16 29.402344 L 18.796875 26.566406 C 19.027344 26.332031 19.304688 26.203125 19.628906 26.179688 C 19.953125 26.152344 20.25 26.234375 20.511719 26.429688 L 26.644531 30.894531 C 26.742188 30.964844 26.851562 31.023438 26.964844 31.070312 C 27.078125 31.113281 27.195312 31.144531 27.316406 31.160156 C 27.4375 31.175781 27.558594 31.175781 27.679688 31.160156 C 27.800781 31.148438 27.917969 31.117188 28.03125 31.074219 C 28.148438 31.03125 28.253906 30.976562 28.355469 30.90625 C 28.453125 30.835938 28.542969 30.753906 28.625 30.664062 C 28.703125 30.570312 28.769531 30.46875 28.824219 30.363281 C 28.878906 30.253906 28.917969 30.140625 28.945312 30.019531 L 33.609375 7.867188 C 33.667969 7.613281 33.652344 7.367188 33.570312 7.125 C 33.488281 6.878906 33.347656 6.675781 33.152344 6.507812 C 32.953125 6.339844 32.726562 6.234375 32.472656 6.191406 C 32.214844 6.152344 31.96875 6.175781 31.726562 6.269531 Z M 28.328125 11.039062 L 19.101562 19.152344 C 18.558594 19.617188 18.246094 20.203125 18.164062 20.910156 C 18.144531 21.058594 18.082031 21.183594 17.972656 21.285156 C 17.867188 21.386719 17.742188 21.445312 17.59375 21.457031 C 17.445312 21.472656 17.308594 21.4375 17.1875 21.359375 C 17.0625 21.277344 16.976562 21.167969 16.929688 21.027344 L 16.507812 19.6875 C 16.433594 19.453125 16.402344 19.210938 16.410156 18.964844 C 16.417969 18.71875 16.464844 18.480469 16.550781 18.25 C 16.636719 18.019531 16.757812 17.808594 16.917969 17.617188 C 17.074219 17.429688 17.257812 17.269531 17.46875 17.140625 L 28.015625 10.652344 C 28.144531 10.597656 28.25 10.625 28.328125 10.738281 C 28.410156 10.851562 28.402344 10.960938 28.304688 11.0625 Z M 28.328125 11.039062 " fill-opacity="1" fill-rule="nonzero"/></g></svg>