<svg xmlns="http://www.w3.org/2000/svg" xmlns:xlink="http://www.w3.org/1999/xlink" width="50" zoomAndPan="magnify" viewBox="0 0 37.5 37.499999" height="50" preserveAspectRatio="xMidYMid meet" version="1.0"><defs><clipPath id="id1"><path d="M 3.75 3.75 L 33.75 3.75 L 33.75 33.75 L 3.75 33.75 Z M 3.75 3.75 " clip-rule="nonzero"/></clipPath></defs><g clip-path="url(#id1)"><path fill="rgb(100%, 100%, 100%)" d="M 31.964844 24.976562 C 31.023438 24.382812 29.714844 23.828125 28.285156 23.417969 C 26.871094 23.011719 25.480469 22.785156 24.367188 22.785156 C 22.859375 22.785156 21.972656 23.195312 21.726562 24.019531 C 21.726562 24.019531 21.632812 24.355469 21.511719 24.757812 C 21.503906 24.777344 21.5 24.800781 21.492188 24.828125 L 21.230469 25.738281 C 20.925781 25.652344 20.652344 25.492188 20.429688 25.261719 L 12.445312 17.015625 C 12.128906 16.683594 11.957031 16.246094 11.957031 15.78125 C 12.011719 15.765625 12.070312 15.75 12.125 15.730469 C 12.421875 15.761719 12.691406 15.710938 12.890625 15.59375 L 14.054688 14.957031 C 14.367188 14.78125 14.628906 14.640625 14.652344 14.625 C 14.683594 14.613281 14.710938 14.597656 14.742188 14.582031 C 16.285156 13.726562 15.234375 10.554688 13.867188 8.101562 C 13.460938 7.375 11.351562 3.757812 9.457031 3.757812 C 9.21875 3.757812 9 3.8125 8.800781 3.921875 C 8.789062 3.925781 8.777344 3.933594 8.765625 3.9375 L 8.125 4.292969 C 8.101562 4.304688 8.078125 4.316406 8.054688 4.332031 C 7.105469 4.851562 6.414062 5.414062 5.683594 6.257812 C 5.207031 6.804688 4.816406 7.402344 4.519531 8.027344 C 3.921875 9.296875 3.75 10.664062 4.027344 11.886719 C 4.417969 15.5625 7.347656 20.46875 12.082031 25.359375 C 16.535156 29.957031 21.730469 33.140625 25.644531 33.664062 C 26.027344 33.714844 26.378906 33.742188 26.726562 33.742188 C 27.914062 33.742188 28.972656 33.433594 29.953125 32.796875 C 31.488281 31.800781 32.507812 30.398438 33.253906 28.253906 C 33.265625 28.222656 33.277344 28.183594 33.289062 28.144531 L 33.398438 27.769531 C 33.449219 27.605469 33.484375 27.484375 33.484375 27.476562 C 33.492188 27.449219 33.503906 27.425781 33.511719 27.398438 C 33.746094 26.589844 33.226562 25.773438 31.964844 24.976562 Z M 31.964844 24.976562 " fill-opacity="1" fill-rule="nonzero"/></g></svg>