<svg xmlns="http://www.w3.org/2000/svg" xmlns:xlink="http://www.w3.org/1999/xlink" width="50" zoomAndPan="magnify" viewBox="0 0 37.5 37.499999" height="50" preserveAspectRatio="xMidYMid meet" version="1.0"><defs><clipPath id="id1"><path d="M 3.75 7.351562 L 33.75 7.351562 L 33.75 29.851562 L 3.75 29.851562 Z M 3.75 7.351562 " clip-rule="nonzero"/></clipPath></defs><g clip-path="url(#id1)"><path fill="rgb(100%, 100%, 100%)" d="M 19.792969 18.476562 C 19.199219 18.996094 18.300781 18.996094 17.707031 18.476562 L 7.507812 9.546875 L 29.992188 9.546875 Z M 23.769531 19.3125 L 22.253906 20.910156 L 29.539062 27.65625 L 7.882812 27.65625 L 14.796875 20.882812 L 13.230469 19.328125 L 5.972656 26.4375 L 5.972656 11.132812 L 16.234375 20.117188 C 16.929688 20.722656 17.820312 21.058594 18.75 21.058594 C 19.679688 21.058594 20.574219 20.722656 21.265625 20.117188 L 31.53125 11.132812 L 31.53125 26.496094 Z M 30.433594 7.355469 L 7.066406 7.355469 C 5.238281 7.355469 3.75 8.824219 3.75 10.628906 L 3.75 26.574219 C 3.75 28.378906 5.238281 29.847656 7.066406 29.847656 L 30.433594 29.847656 C 32.261719 29.847656 33.75 28.378906 33.75 26.574219 L 33.75 10.628906 C 33.75 8.824219 32.261719 7.355469 30.433594 7.355469 " fill-opacity="1" fill-rule="nonzero"/></g></svg>