<svg xmlns="http://www.w3.org/2000/svg" xmlns:xlink="http://www.w3.org/1999/xlink" width="50" zoomAndPan="magnify" viewBox="0 0 37.5 37.499999" height="50" preserveAspectRatio="xMidYMid meet" version="1.0"><defs><clipPath id="id1"><path d="M 3.75 6 L 33.75 6 L 33.75 33 L 3.75 33 Z M 3.75 6 " clip-rule="nonzero"/></clipPath></defs><g clip-path="url(#id1)"><path fill="rgb(100%, 100%, 100%)" d="M 13.59375 32.4375 C 10.3125 32.4375 7.03125 31.5 4.21875 29.625 C 3.84375 29.34375 3.75 28.96875 3.84375 28.5 C 4.03125 28.125 4.40625 27.84375 4.875 27.84375 C 7.03125 28.125 9.09375 27.75 10.875 26.8125 C 9.09375 26.0625 7.59375 24.5625 7.03125 22.59375 C 6.9375 22.3125 7.03125 21.9375 7.21875 21.65625 C 7.21875 21.65625 7.3125 21.5625 7.3125 21.5625 C 5.90625 20.25 4.96875 18.375 4.96875 16.40625 C 4.96875 16.03125 5.15625 15.75 5.4375 15.5625 C 5.53125 15.46875 5.71875 15.46875 5.8125 15.46875 C 5.25 14.4375 4.96875 13.3125 4.96875 12.1875 C 4.96875 10.96875 5.25 9.75 5.90625 8.71875 C 6 8.4375 6.28125 8.25 6.65625 8.25 C 6.9375 8.25 7.3125 8.34375 7.5 8.625 C 9.65625 11.34375 12.65625 13.3125 16.03125 14.0625 C 16.03125 9.9375 19.40625 6.5625 23.53125 6.5625 C 25.59375 6.5625 27.5625 7.40625 28.96875 8.90625 C 29.90625 8.625 30.65625 8.15625 31.5 7.6875 C 31.875 7.5 32.34375 7.5 32.625 7.78125 C 32.8125 8.0625 32.90625 8.4375 32.71875 8.8125 L 31.3125 11.625 L 33.09375 12.1875 C 33.46875 12.375 33.75 12.65625 33.75 13.03125 C 33.75 13.40625 33.65625 13.78125 33.28125 13.96875 L 30.84375 15.375 C 30.5625 23.8125 24.09375 32.4375 13.59375 32.4375 Z M 13.59375 32.4375 " fill-opacity="1" fill-rule="nonzero"/></g></svg>