<svg xmlns="http://www.w3.org/2000/svg" xmlns:xlink="http://www.w3.org/1999/xlink" width="50" zoomAndPan="magnify" viewBox="0 0 37.5 37.499999" height="50" preserveAspectRatio="xMidYMid meet" version="1.0"><path fill="rgb(100%, 100%, 100%)" d="M 6.65625 26.625 L 6.03125 29.121094 C 5.992188 29.285156 5.972656 29.449219 5.976562 29.613281 C 5.980469 29.78125 6.003906 29.945312 6.046875 30.105469 C 6.09375 30.265625 6.15625 30.417969 6.242188 30.5625 C 6.324219 30.707031 6.425781 30.835938 6.542969 30.957031 C 6.664062 31.074219 6.792969 31.175781 6.9375 31.257812 C 7.082031 31.34375 7.234375 31.40625 7.394531 31.453125 C 7.554688 31.496094 7.71875 31.519531 7.886719 31.523438 C 8.050781 31.527344 8.214844 31.507812 8.378906 31.46875 L 10.863281 30.847656 C 11.707031 30.640625 12.523438 30.714844 13.3125 31.074219 C 13.792969 31.289062 14.28125 31.472656 14.78125 31.632812 C 15.28125 31.789062 15.789062 31.917969 16.304688 32.015625 C 16.820312 32.113281 17.339844 32.183594 17.863281 32.222656 C 18.386719 32.257812 18.910156 32.265625 19.4375 32.246094 C 19.960938 32.222656 20.480469 32.171875 21 32.085938 C 21.519531 32.003906 22.03125 31.894531 22.535156 31.75 C 23.039062 31.609375 23.535156 31.4375 24.019531 31.238281 C 24.507812 31.039062 24.980469 30.8125 25.4375 30.558594 C 25.898438 30.304688 26.339844 30.027344 26.765625 29.722656 C 27.195312 29.414062 27.601562 29.085938 27.992188 28.734375 C 28.378906 28.382812 28.746094 28.007812 29.09375 27.613281 C 29.4375 27.21875 29.761719 26.804688 30.058594 26.375 C 30.355469 25.941406 30.628906 25.492188 30.871094 25.03125 C 31.117188 24.566406 31.335938 24.089844 31.527344 23.601562 C 31.71875 23.113281 31.878906 22.613281 32.011719 22.105469 C 32.148438 21.597656 32.25 21.085938 32.324219 20.566406 C 32.398438 20.046875 32.441406 19.523438 32.453125 19 C 32.46875 18.472656 32.449219 17.949219 32.402344 17.429688 C 32.355469 16.90625 32.277344 16.386719 32.171875 15.875 C 32.0625 15.359375 31.925781 14.855469 31.761719 14.355469 C 31.59375 13.859375 31.398438 13.371094 31.175781 12.898438 C 30.957031 12.421875 30.707031 11.960938 30.429688 11.515625 C 30.15625 11.066406 29.855469 10.636719 29.527344 10.226562 C 29.203125 9.816406 28.855469 9.421875 28.484375 9.050781 C 28.113281 8.679688 27.722656 8.332031 27.3125 8.003906 C 26.902344 7.679688 26.472656 7.378906 26.027344 7.101562 C 25.582031 6.824219 25.121094 6.574219 24.644531 6.351562 C 24.171875 6.128906 23.683594 5.933594 23.1875 5.765625 C 22.691406 5.597656 22.183594 5.460938 21.671875 5.351562 C 21.15625 5.242188 20.640625 5.164062 20.117188 5.117188 C 19.59375 5.066406 19.070312 5.050781 18.546875 5.0625 C 18.019531 5.074219 17.5 5.117188 16.980469 5.1875 C 16.460938 5.261719 15.945312 5.363281 15.4375 5.496094 C 14.929688 5.628906 14.429688 5.789062 13.941406 5.976562 C 13.453125 6.167969 12.976562 6.386719 12.511719 6.628906 C 12.046875 6.875 11.597656 7.144531 11.167969 7.441406 C 10.734375 7.738281 10.320312 8.058594 9.925781 8.40625 C 9.527344 8.75 9.152344 9.117188 8.800781 9.503906 C 8.449219 9.890625 8.117188 10.300781 7.8125 10.726562 C 7.507812 11.152344 7.226562 11.59375 6.96875 12.054688 C 6.714844 12.511719 6.488281 12.984375 6.289062 13.46875 C 6.085938 13.953125 5.917969 14.449219 5.773438 14.953125 C 5.628906 15.460938 5.515625 15.96875 5.433594 16.488281 C 5.351562 17.007812 5.296875 17.527344 5.273438 18.050781 C 5.25 18.578125 5.257812 19.101562 5.292969 19.625 C 5.332031 20.148438 5.398438 20.667969 5.496094 21.183594 C 5.59375 21.699219 5.71875 22.207031 5.875 22.707031 C 6.03125 23.207031 6.21875 23.699219 6.429688 24.179688 C 6.789062 24.96875 6.867188 25.785156 6.65625 26.625 Z M 13.65625 12.765625 C 13.90625 12.527344 14.207031 12.390625 14.546875 12.351562 C 14.769531 12.351562 15.664062 12.269531 15.9375 12.933594 C 16.214844 13.597656 16.910156 15.226562 16.964844 15.386719 C 17.082031 15.574219 17.09375 15.769531 16.996094 15.96875 C 16.910156 16.167969 16.800781 16.351562 16.660156 16.519531 C 16.496094 16.714844 16.3125 16.953125 16.175781 17.101562 C 16.039062 17.253906 15.835938 17.445312 16.03125 17.777344 C 16.527344 18.625 17.132812 19.382812 17.851562 20.054688 C 18.652344 20.757812 19.546875 21.304688 20.539062 21.695312 C 20.871094 21.863281 21.066406 21.832031 21.261719 21.613281 C 21.453125 21.394531 22.09375 20.644531 22.316406 20.320312 C 22.539062 19.996094 22.761719 20.042969 23.066406 20.15625 C 23.375 20.265625 25.007812 21.066406 25.351562 21.230469 C 25.695312 21.394531 25.902344 21.480469 25.992188 21.613281 C 26.082031 22.15625 26.019531 22.679688 25.796875 23.183594 C 25.503906 23.957031 24.980469 24.519531 24.230469 24.871094 C 23.585938 25.089844 22.875 25.207031 19.710938 23.929688 C 16.351562 22.554688 14.019531 19.160156 13.855469 18.9375 C 13.691406 18.714844 12.492188 17.144531 12.492188 15.523438 C 12.472656 15 12.5625 14.496094 12.769531 14.011719 C 12.972656 13.527344 13.265625 13.109375 13.65625 12.757812 Z M 13.65625 12.765625 " fill-opacity="1" fill-rule="nonzero"/></svg>