<svg xmlns="http://www.w3.org/2000/svg" xmlns:xlink="http://www.w3.org/1999/xlink" width="50" zoomAndPan="magnify" viewBox="0 0 37.5 37.499999" height="50" preserveAspectRatio="xMidYMid meet" version="1.0"><defs><clipPath id="id1"><path d="M 3.75 9.394531 L 19 9.394531 L 19 28 L 3.75 28 Z M 3.75 9.394531 " clip-rule="nonzero"/></clipPath><clipPath id="id2"><path d="M 20 13 L 33.75 13 L 33.75 28.144531 L 20 28.144531 Z M 20 13 " clip-rule="nonzero"/></clipPath></defs><g clip-path="url(#id1)"><path fill="rgb(100%, 100%, 100%)" d="M 4.921875 27.675781 L 12.117188 27.675781 C 12.996094 27.679688 13.867188 27.597656 14.730469 27.425781 C 15.496094 27.289062 16.191406 26.992188 16.820312 26.539062 C 17.351562 26.144531 17.789062 25.664062 18.128906 25.097656 C 18.695312 24.207031 18.96875 23.238281 18.953125 22.183594 C 18.980469 21.21875 18.738281 20.324219 18.230469 19.503906 C 18.023438 19.1875 17.773438 18.910156 17.484375 18.667969 C 17.359375 18.574219 17.257812 18.457031 17.183594 18.320312 C 17.109375 18.179688 17.0625 18.035156 17.050781 17.878906 C 17.039062 17.71875 17.054688 17.566406 17.109375 17.417969 C 17.160156 17.269531 17.238281 17.140625 17.34375 17.023438 L 17.5 16.851562 C 18.117188 16.066406 18.398438 15.171875 18.355469 14.175781 C 18.378906 13.148438 18.097656 12.21875 17.503906 11.382812 C 16.554688 10.085938 14.960938 9.425781 12.722656 9.394531 L 4.921875 9.394531 C 4.769531 9.394531 4.625 9.425781 4.488281 9.480469 C 4.351562 9.539062 4.226562 9.621094 4.121094 9.726562 C 4.015625 9.832031 3.933594 9.953125 3.875 10.09375 C 3.816406 10.230469 3.789062 10.375 3.789062 10.527344 L 3.789062 26.539062 C 3.789062 26.6875 3.816406 26.832031 3.875 26.972656 C 3.929688 27.113281 4.011719 27.234375 4.121094 27.339844 C 4.226562 27.449219 4.347656 27.53125 4.488281 27.585938 C 4.625 27.644531 4.769531 27.675781 4.921875 27.675781 Z M 7.476562 13.679688 C 7.476562 13.53125 7.507812 13.390625 7.5625 13.253906 C 7.621094 13.117188 7.703125 12.996094 7.808594 12.890625 C 7.914062 12.789062 8.035156 12.707031 8.171875 12.648438 C 8.308594 12.59375 8.449219 12.5625 8.597656 12.5625 L 11.488281 12.5625 C 12.230469 12.542969 12.960938 12.636719 13.671875 12.84375 C 14.007812 12.984375 14.265625 13.210938 14.453125 13.527344 C 14.636719 13.839844 14.707031 14.175781 14.667969 14.539062 C 14.699219 14.855469 14.648438 15.160156 14.511719 15.445312 C 14.378906 15.734375 14.179688 15.96875 13.914062 16.144531 C 13.304688 16.480469 12.652344 16.632812 11.957031 16.601562 L 8.597656 16.601562 C 8.445312 16.601562 8.300781 16.570312 8.164062 16.515625 C 8.023438 16.457031 7.902344 16.375 7.796875 16.269531 C 7.691406 16.160156 7.609375 16.039062 7.550781 15.898438 C 7.492188 15.761719 7.464844 15.617188 7.464844 15.464844 Z M 7.476562 20.742188 C 7.476562 20.59375 7.507812 20.453125 7.566406 20.316406 C 7.625 20.179688 7.707031 20.058594 7.808594 19.957031 C 7.914062 19.851562 8.035156 19.773438 8.171875 19.714844 C 8.308594 19.65625 8.449219 19.628906 8.597656 19.628906 L 12.015625 19.628906 C 12.652344 19.605469 13.269531 19.710938 13.867188 19.9375 C 14.25 20.105469 14.550781 20.367188 14.769531 20.730469 C 14.984375 21.089844 15.074219 21.480469 15.042969 21.898438 C 15.042969 23.023438 14.636719 23.78125 13.824219 24.179688 C 13.222656 24.425781 12.597656 24.53125 11.949219 24.503906 L 8.597656 24.503906 C 8.445312 24.503906 8.300781 24.472656 8.164062 24.417969 C 8.023438 24.359375 7.902344 24.277344 7.796875 24.171875 C 7.691406 24.0625 7.609375 23.941406 7.550781 23.800781 C 7.492188 23.664062 7.464844 23.515625 7.464844 23.367188 Z M 7.476562 20.742188 " fill-opacity="1" fill-rule="nonzero"/></g><path fill="rgb(100%, 100%, 100%)" d="M 29.699219 12.738281 C 29.851562 12.738281 29.996094 12.710938 30.132812 12.652344 C 30.273438 12.59375 30.394531 12.511719 30.503906 12.40625 C 30.609375 12.296875 30.691406 12.175781 30.75 12.035156 C 30.804688 11.894531 30.835938 11.75 30.835938 11.601562 C 30.835938 11.449219 30.804688 11.304688 30.75 11.164062 C 30.691406 11.023438 30.609375 10.902344 30.503906 10.796875 C 30.394531 10.6875 30.273438 10.605469 30.132812 10.546875 C 29.996094 10.492188 29.851562 10.460938 29.699219 10.460938 L 24.046875 10.460938 C 23.894531 10.460938 23.75 10.492188 23.609375 10.546875 C 23.472656 10.605469 23.347656 10.6875 23.242188 10.796875 C 23.136719 10.902344 23.054688 11.023438 22.996094 11.164062 C 22.9375 11.304688 22.910156 11.449219 22.910156 11.601562 C 22.910156 11.75 22.9375 11.894531 22.996094 12.035156 C 23.054688 12.175781 23.136719 12.296875 23.242188 12.40625 C 23.347656 12.511719 23.472656 12.59375 23.609375 12.652344 C 23.75 12.710938 23.894531 12.738281 24.046875 12.738281 Z M 29.699219 12.738281 " fill-opacity="1" fill-rule="nonzero"/><g clip-path="url(#id2)"><path fill="rgb(100%, 100%, 100%)" d="M 26.921875 13.792969 C 26.011719 13.757812 25.132812 13.902344 24.285156 14.230469 C 23.433594 14.554688 22.683594 15.035156 22.03125 15.667969 C 20.777344 16.917969 20.148438 18.71875 20.148438 21.0625 C 20.148438 23.5625 20.847656 25.367188 22.238281 26.480469 C 23.640625 27.617188 25.246094 28.171875 27.050781 28.144531 C 29.253906 28.144531 30.96875 27.488281 32.195312 26.175781 C 32.386719 25.980469 32.5625 25.777344 32.730469 25.5625 C 32.863281 25.390625 32.9375 25.195312 32.960938 24.980469 C 32.980469 24.761719 32.945312 24.558594 32.847656 24.363281 C 32.753906 24.167969 32.613281 24.011719 32.429688 23.898438 C 32.242188 23.78125 32.042969 23.726562 31.824219 23.726562 L 31.359375 23.726562 C 30.558594 23.71875 29.867188 23.988281 29.277344 24.535156 L 29.136719 24.65625 C 28.550781 25.105469 27.890625 25.3125 27.15625 25.28125 C 26.445312 25.292969 25.789062 25.113281 25.183594 24.742188 C 24.410156 24.257812 23.960938 23.5625 23.835938 22.65625 C 23.820312 22.558594 23.828125 22.464844 23.851562 22.371094 C 23.878906 22.273438 23.925781 22.191406 23.988281 22.117188 C 24.050781 22.042969 24.125 21.988281 24.214844 21.945312 C 24.304688 21.90625 24.398438 21.886719 24.496094 21.886719 L 32.570312 21.886719 C 32.722656 21.890625 32.867188 21.859375 33.007812 21.800781 C 33.148438 21.746094 33.273438 21.660156 33.378906 21.554688 C 33.488281 21.445312 33.570312 21.320312 33.625 21.179688 C 33.683594 21.039062 33.714844 20.894531 33.710938 20.742188 C 33.703125 20.234375 33.664062 19.730469 33.59375 19.226562 C 33.457031 18.210938 33.101562 17.277344 32.527344 16.429688 C 31.933594 15.53125 31.148438 14.863281 30.164062 14.425781 C 29.128906 13.980469 28.046875 13.773438 26.921875 13.792969 Z M 29.089844 19.574219 L 24.816406 19.574219 C 24.691406 19.578125 24.574219 19.550781 24.464844 19.496094 C 24.355469 19.441406 24.265625 19.363281 24.191406 19.261719 C 24.121094 19.164062 24.074219 19.050781 24.058594 18.929688 C 24.039062 18.808594 24.050781 18.6875 24.09375 18.570312 C 24.253906 18.167969 24.484375 17.8125 24.789062 17.5 C 25.390625 16.933594 26.101562 16.675781 26.925781 16.730469 C 27.730469 16.699219 28.441406 16.941406 29.0625 17.457031 C 29.425781 17.773438 29.679688 18.160156 29.828125 18.613281 C 29.859375 18.730469 29.863281 18.847656 29.839844 18.960938 C 29.820312 19.078125 29.769531 19.183594 29.699219 19.28125 C 29.625 19.375 29.535156 19.449219 29.429688 19.5 C 29.320312 19.550781 29.210938 19.574219 29.089844 19.574219 Z M 29.089844 19.574219 " fill-opacity="1" fill-rule="nonzero"/></g></svg>