<svg xmlns="http://www.w3.org/2000/svg" xmlns:xlink="http://www.w3.org/1999/xlink" width="50" zoomAndPan="magnify" viewBox="0 0 37.5 37.499999" height="50" preserveAspectRatio="xMidYMid meet" version="1.0"><defs><clipPath id="id1"><path d="M 16 3.15625 L 29 3.15625 L 29 13 L 16 13 Z M 16 3.15625 " clip-rule="nonzero"/></clipPath><clipPath id="id2"><path d="M 22 9 L 33.75 9 L 33.75 19 L 22 19 Z M 22 9 " clip-rule="nonzero"/></clipPath><clipPath id="id3"><path d="M 3.75 16 L 20 16 L 20 29 L 3.75 29 Z M 3.75 16 " clip-rule="nonzero"/></clipPath><clipPath id="id4"><path d="M 24 20 L 33.75 20 L 33.75 31 L 24 31 Z M 24 20 " clip-rule="nonzero"/></clipPath></defs><g clip-path="url(#id1)"><path fill="rgb(100%, 100%, 100%)" d="M 20.320312 11.988281 C 20.460938 12.234375 20.667969 12.40625 20.9375 12.496094 C 21.207031 12.589844 21.46875 12.578125 21.730469 12.464844 C 24.078125 11.511719 26.132812 10.113281 27.894531 8.277344 C 28 8.160156 28.078125 8.027344 28.125 7.875 C 28.175781 7.726562 28.195312 7.570312 28.179688 7.414062 C 28.164062 7.257812 28.121094 7.109375 28.042969 6.96875 C 27.96875 6.832031 27.867188 6.714844 27.742188 6.617188 C 26.207031 5.445312 24.507812 4.605469 22.648438 4.09375 C 20.789062 3.582031 18.90625 3.4375 16.992188 3.664062 C 16.894531 3.675781 16.800781 3.699219 16.710938 3.734375 C 16.617188 3.773438 16.535156 3.820312 16.457031 3.878906 C 16.378906 3.9375 16.308594 4.007812 16.246094 4.082031 C 16.1875 4.160156 16.136719 4.246094 16.097656 4.335938 C 16.058594 4.425781 16.03125 4.519531 16.019531 4.617188 C 16.003906 4.714844 16.003906 4.8125 16.011719 4.910156 C 16.023438 5.007812 16.046875 5.105469 16.082031 5.195312 C 16.121094 5.289062 16.167969 5.375 16.222656 5.453125 C 17.210938 6.859375 18.78125 9.234375 20.320312 11.988281 Z M 20.320312 11.988281 " fill-opacity="1" fill-rule="nonzero"/></g><g clip-path="url(#id2)"><path fill="rgb(100%, 100%, 100%)" d="M 22.460938 16.164062 C 22.636719 16.546875 22.804688 16.929688 22.964844 17.316406 C 23.058594 17.542969 23.207031 17.71875 23.414062 17.84375 C 23.621094 17.96875 23.84375 18.023438 24.082031 18.003906 C 26.863281 17.777344 29.632812 17.890625 32.390625 18.335938 C 32.558594 18.363281 32.726562 18.351562 32.890625 18.300781 C 33.054688 18.25 33.199219 18.167969 33.320312 18.046875 C 33.445312 17.929688 33.539062 17.789062 33.601562 17.628906 C 33.660156 17.46875 33.683594 17.300781 33.667969 17.128906 C 33.410156 14.625 32.585938 12.328125 31.191406 10.242188 C 31.097656 10.105469 30.976562 9.996094 30.832031 9.914062 C 30.6875 9.832031 30.53125 9.785156 30.363281 9.773438 C 30.199219 9.761719 30.039062 9.789062 29.886719 9.851562 C 29.730469 9.914062 29.597656 10.003906 29.484375 10.128906 C 27.605469 12.054688 25.441406 13.5625 22.992188 14.652344 C 22.855469 14.714844 22.738281 14.804688 22.636719 14.914062 C 22.539062 15.027344 22.464844 15.152344 22.414062 15.296875 C 22.363281 15.4375 22.34375 15.585938 22.351562 15.734375 C 22.359375 15.886719 22.394531 16.027344 22.460938 16.164062 Z M 22.460938 16.164062 " fill-opacity="1" fill-rule="nonzero"/></g><path fill="rgb(100%, 100%, 100%)" d="M 5.503906 15.589844 C 9.195312 15.457031 12.839844 14.964844 16.4375 14.121094 C 16.609375 14.082031 16.761719 14.003906 16.898438 13.886719 C 17.03125 13.773438 17.136719 13.632812 17.207031 13.46875 C 17.277344 13.304688 17.304688 13.132812 17.296875 12.953125 C 17.285156 12.773438 17.234375 12.609375 17.148438 12.453125 C 15.417969 9.492188 13.734375 7.015625 12.875 5.804688 C 12.710938 5.570312 12.492188 5.417969 12.214844 5.351562 C 11.9375 5.28125 11.671875 5.316406 11.421875 5.453125 C 9.738281 6.394531 8.289062 7.617188 7.074219 9.117188 C 5.855469 10.621094 4.953125 12.296875 4.375 14.148438 C 4.320312 14.324219 4.3125 14.5 4.347656 14.679688 C 4.378906 14.859375 4.453125 15.023438 4.566406 15.167969 C 4.679688 15.308594 4.816406 15.417969 4.984375 15.496094 C 5.148438 15.570312 5.320312 15.601562 5.503906 15.589844 Z M 5.503906 15.589844 " fill-opacity="1" fill-rule="nonzero"/><path fill="rgb(100%, 100%, 100%)" d="M 20.304688 21.59375 C 14.203125 24.046875 11.148438 27.988281 10.019531 29.785156 C 9.941406 29.910156 9.886719 30.046875 9.863281 30.191406 C 9.835938 30.335938 9.835938 30.480469 9.867188 30.625 C 9.898438 30.773438 9.953125 30.90625 10.035156 31.027344 C 10.117188 31.148438 10.222656 31.253906 10.34375 31.335938 C 11.3125 31.996094 12.34375 32.535156 13.4375 32.953125 C 14.535156 33.371094 15.660156 33.652344 16.824219 33.804688 C 17.984375 33.953125 19.144531 33.964844 20.308594 33.839844 C 21.472656 33.714844 22.605469 33.457031 23.707031 33.0625 C 23.964844 32.96875 24.164062 32.804688 24.304688 32.566406 C 24.445312 32.328125 24.488281 32.074219 24.445312 31.800781 C 23.796875 28.550781 22.90625 25.367188 21.773438 22.257812 C 21.722656 22.113281 21.644531 21.984375 21.539062 21.871094 C 21.4375 21.761719 21.316406 21.671875 21.175781 21.609375 C 21.039062 21.546875 20.894531 21.515625 20.742188 21.511719 C 20.589844 21.511719 20.445312 21.539062 20.304688 21.59375 Z M 20.304688 21.59375 " fill-opacity="1" fill-rule="nonzero"/><g clip-path="url(#id3)"><path fill="rgb(100%, 100%, 100%)" d="M 8.066406 28.046875 C 9.363281 26.246094 13.292969 21.425781 19.25 19.074219 C 19.394531 19.019531 19.523438 18.9375 19.636719 18.832031 C 19.746094 18.722656 19.832031 18.59375 19.890625 18.449219 C 19.949219 18.304688 19.980469 18.15625 19.976562 18 C 19.972656 17.839844 19.9375 17.691406 19.871094 17.550781 L 19.578125 16.921875 C 19.460938 16.679688 19.277344 16.503906 19.03125 16.394531 C 18.785156 16.285156 18.535156 16.269531 18.277344 16.347656 C 13.886719 17.523438 9.425781 18.15625 4.886719 18.238281 C 4.726562 18.234375 4.574219 18.261719 4.425781 18.324219 C 4.277344 18.386719 4.152344 18.480469 4.042969 18.597656 C 3.933594 18.714844 3.855469 18.851562 3.804688 19.003906 C 3.753906 19.15625 3.734375 19.3125 3.75 19.472656 C 3.984375 22.660156 5.0625 25.527344 6.988281 28.066406 C 7.050781 28.148438 7.132812 28.214844 7.226562 28.261719 C 7.324219 28.308594 7.425781 28.332031 7.53125 28.328125 C 7.636719 28.328125 7.738281 28.300781 7.832031 28.25 C 7.925781 28.203125 8.003906 28.132812 8.066406 28.046875 Z M 8.066406 28.046875 " fill-opacity="1" fill-rule="nonzero"/></g><g clip-path="url(#id4)"><path fill="rgb(100%, 100%, 100%)" d="M 28.605469 30.164062 C 29.785156 29.121094 30.78125 27.921875 31.589844 26.566406 C 32.398438 25.210938 32.984375 23.761719 33.34375 22.21875 C 33.378906 22.074219 33.386719 21.925781 33.363281 21.777344 C 33.339844 21.632812 33.289062 21.492188 33.210938 21.367188 C 33.132812 21.238281 33.035156 21.128906 32.917969 21.042969 C 32.796875 20.953125 32.664062 20.894531 32.519531 20.859375 C 30.234375 20.308594 27.921875 20.125 25.578125 20.308594 C 25.410156 20.324219 25.253906 20.378906 25.105469 20.46875 C 24.960938 20.558594 24.84375 20.675781 24.75 20.820312 C 24.660156 20.964844 24.601562 21.125 24.582031 21.296875 C 24.5625 21.46875 24.582031 21.632812 24.636719 21.796875 C 25.496094 24.339844 26.207031 26.925781 26.765625 29.550781 C 26.851562 29.980469 27.101562 30.261719 27.507812 30.394531 C 27.917969 30.53125 28.285156 30.453125 28.605469 30.164062 Z M 28.605469 30.164062 " fill-opacity="1" fill-rule="nonzero"/></g><path fill="rgb(100%, 100%, 100%)" d="M 9.488281 30.691406 L 9.363281 30.585938 L 9.507812 30.699219 Z M 9.488281 30.691406 " fill-opacity="1" fill-rule="nonzero"/></svg>