<svg xmlns="http://www.w3.org/2000/svg" xmlns:xlink="http://www.w3.org/1999/xlink" width="50" zoomAndPan="magnify" viewBox="0 0 37.5 37.499999" height="50" preserveAspectRatio="xMidYMid meet" version="1.0"><defs><clipPath id="id1"><path d="M 3.75 13 L 11 13 L 11 32.671875 L 3.75 32.671875 Z M 3.75 13 " clip-rule="nonzero"/></clipPath><clipPath id="id2"><path d="M 12 13 L 33.75 13 L 33.75 32.671875 L 12 32.671875 Z M 12 13 " clip-rule="nonzero"/></clipPath><clipPath id="id3"><path d="M 3.75 4.921875 L 11 4.921875 L 11 12 L 3.75 12 Z M 3.75 4.921875 " clip-rule="nonzero"/></clipPath></defs><g clip-path="url(#id1)"><path fill="rgb(100%, 100%, 100%)" d="M 4.546875 13.363281 L 9.914062 13.363281 C 10.128906 13.363281 10.308594 13.4375 10.460938 13.589844 C 10.613281 13.742188 10.6875 13.925781 10.6875 14.136719 L 10.6875 31.898438 C 10.6875 32.113281 10.613281 32.292969 10.460938 32.445312 C 10.308594 32.597656 10.128906 32.671875 9.914062 32.671875 L 4.546875 32.671875 C 4.335938 32.671875 4.152344 32.597656 4 32.445312 C 3.851562 32.292969 3.777344 32.113281 3.777344 31.898438 L 3.777344 14.136719 C 3.777344 13.925781 3.851562 13.742188 4 13.589844 C 4.152344 13.4375 4.335938 13.363281 4.546875 13.363281 Z M 4.546875 13.363281 " fill-opacity="1" fill-rule="nonzero"/></g><g clip-path="url(#id2)"><path fill="rgb(100%, 100%, 100%)" d="M 26.019531 13.179688 C 25.007812 13.140625 24.03125 13.308594 23.089844 13.683594 C 22.152344 14.054688 21.324219 14.605469 20.617188 15.328125 C 20.5 15.453125 20.359375 15.484375 20.199219 15.421875 C 20.039062 15.359375 19.960938 15.242188 19.960938 15.070312 L 19.960938 14.132812 C 19.960938 13.917969 19.882812 13.734375 19.734375 13.585938 C 19.582031 13.433594 19.402344 13.359375 19.1875 13.359375 L 13.757812 13.359375 C 13.542969 13.359375 13.359375 13.433594 13.207031 13.589844 C 13.058594 13.742188 12.984375 13.929688 12.992188 14.144531 C 13.035156 17.433594 12.992188 28.816406 12.992188 31.898438 C 12.988281 32.109375 13.0625 32.289062 13.207031 32.441406 C 13.355469 32.59375 13.535156 32.667969 13.746094 32.671875 L 19.195312 32.671875 C 19.40625 32.671875 19.589844 32.597656 19.738281 32.445312 C 19.890625 32.292969 19.964844 32.113281 19.964844 31.898438 L 19.964844 22.226562 C 19.917969 21.691406 19.96875 21.164062 20.113281 20.648438 C 20.230469 20.300781 20.394531 19.984375 20.613281 19.691406 C 20.828125 19.398438 21.082031 19.144531 21.378906 18.933594 C 21.671875 18.71875 21.996094 18.558594 22.339844 18.449219 C 22.6875 18.335938 23.039062 18.28125 23.402344 18.28125 C 25.769531 18.28125 26.859375 20.070312 26.859375 22.683594 L 26.859375 31.898438 C 26.859375 32.109375 26.929688 32.289062 27.078125 32.4375 C 27.222656 32.589844 27.398438 32.667969 27.609375 32.671875 L 32.953125 32.671875 C 33.164062 32.671875 33.347656 32.597656 33.5 32.445312 C 33.648438 32.292969 33.722656 32.113281 33.722656 31.898438 L 33.722656 21.9375 C 33.722656 15.953125 30.332031 13.179688 26.019531 13.179688 Z M 26.019531 13.179688 " fill-opacity="1" fill-rule="nonzero"/></g><g clip-path="url(#id3)"><path fill="rgb(100%, 100%, 100%)" d="M 7.175781 11.207031 L 7.230469 11.207031 C 9.375 11.207031 10.6875 9.820312 10.6875 8.0625 C 10.6875 6.304688 9.355469 4.921875 7.230469 4.921875 C 5.105469 4.921875 3.777344 6.277344 3.777344 8.066406 C 3.777344 9.859375 5.113281 11.207031 7.175781 11.207031 Z M 7.175781 11.207031 " fill-opacity="1" fill-rule="nonzero"/></g></svg>