<svg xmlns="http://www.w3.org/2000/svg" xmlns:xlink="http://www.w3.org/1999/xlink" width="50" zoomAndPan="magnify" viewBox="0 0 37.5 37.499999" height="50" preserveAspectRatio="xMidYMid meet" version="1.0"><defs><clipPath id="id1"><path d="M 3.75 3.75 L 33.75 3.75 L 33.75 33.75 L 3.75 33.75 Z M 3.75 3.75 " clip-rule="nonzero"/></clipPath></defs><g clip-path="url(#id1)"><path fill="rgb(100%, 100%, 100%)" d="M 11.703125 33.71875 L 25.859375 33.71875 C 26.382812 33.710938 26.902344 33.652344 27.414062 33.542969 C 27.925781 33.4375 28.421875 33.277344 28.902344 33.074219 C 29.382812 32.867188 29.839844 32.617188 30.269531 32.320312 C 30.699219 32.023438 31.101562 31.691406 31.464844 31.316406 C 31.832031 30.941406 32.15625 30.535156 32.445312 30.097656 C 32.730469 29.660156 32.972656 29.199219 33.167969 28.714844 C 33.363281 28.230469 33.511719 27.730469 33.609375 27.214844 C 33.707031 26.703125 33.753906 26.183594 33.75 25.660156 L 33.75 11.839844 C 33.753906 11.316406 33.707031 10.796875 33.609375 10.285156 C 33.511719 9.769531 33.363281 9.269531 33.167969 8.785156 C 32.972656 8.300781 32.730469 7.839844 32.445312 7.402344 C 32.15625 6.964844 31.832031 6.558594 31.464844 6.183594 C 31.101562 5.808594 30.699219 5.476562 30.269531 5.179688 C 29.839844 4.882812 29.382812 4.632812 28.902344 4.425781 C 28.421875 4.222656 27.925781 4.0625 27.414062 3.957031 C 26.902344 3.847656 26.382812 3.789062 25.859375 3.78125 L 11.703125 3.78125 C 11.179688 3.789062 10.660156 3.847656 10.148438 3.957031 C 9.636719 4.0625 9.140625 4.222656 8.660156 4.425781 C 8.179688 4.632812 7.722656 4.882812 7.292969 5.179688 C 6.859375 5.476562 6.460938 5.808594 6.097656 6.183594 C 5.730469 6.558594 5.40625 6.964844 5.117188 7.402344 C 4.832031 7.839844 4.589844 8.300781 4.394531 8.785156 C 4.199219 9.269531 4.050781 9.769531 3.953125 10.285156 C 3.855469 10.796875 3.808594 11.316406 3.8125 11.839844 L 3.8125 25.660156 C 3.808594 26.183594 3.855469 26.703125 3.953125 27.214844 C 4.050781 27.730469 4.199219 28.230469 4.394531 28.714844 C 4.589844 29.199219 4.832031 29.660156 5.117188 30.097656 C 5.40625 30.535156 5.730469 30.941406 6.097656 31.316406 C 6.460938 31.691406 6.859375 32.023438 7.292969 32.320312 C 7.722656 32.617188 8.179688 32.867188 8.660156 33.074219 C 9.140625 33.277344 9.636719 33.4375 10.148438 33.542969 C 10.660156 33.652344 11.179688 33.710938 11.703125 33.71875 Z M 27.511719 8.769531 C 27.761719 8.765625 28.003906 8.808594 28.234375 8.898438 C 28.464844 8.992188 28.671875 9.125 28.851562 9.296875 C 29.03125 9.46875 29.167969 9.671875 29.269531 9.898438 C 29.367188 10.128906 29.417969 10.367188 29.421875 10.617188 C 29.425781 10.867188 29.378906 11.105469 29.289062 11.335938 C 29.195312 11.570312 29.0625 11.773438 28.886719 11.949219 C 28.710938 12.128906 28.511719 12.265625 28.28125 12.363281 C 28.050781 12.460938 27.8125 12.511719 27.5625 12.511719 C 27.3125 12.515625 27.074219 12.46875 26.84375 12.375 C 26.613281 12.28125 26.410156 12.144531 26.230469 11.96875 C 26.054688 11.792969 25.917969 11.589844 25.824219 11.359375 C 25.726562 11.128906 25.679688 10.890625 25.679688 10.640625 C 25.679688 10.398438 25.726562 10.160156 25.816406 9.933594 C 25.910156 9.707031 26.042969 9.507812 26.214844 9.332031 C 26.386719 9.15625 26.582031 9.019531 26.808594 8.921875 C 27.035156 8.828125 27.269531 8.777344 27.511719 8.769531 Z M 18.78125 11.265625 C 19.273438 11.253906 19.765625 11.292969 20.25 11.378906 C 20.734375 11.464844 21.210938 11.601562 21.667969 11.78125 C 22.128906 11.960938 22.566406 12.183594 22.980469 12.449219 C 23.394531 12.71875 23.78125 13.023438 24.136719 13.363281 C 24.492188 13.707031 24.808594 14.082031 25.089844 14.488281 C 25.371094 14.894531 25.609375 15.324219 25.804688 15.777344 C 26.003906 16.230469 26.152344 16.695312 26.253906 17.179688 C 26.359375 17.664062 26.414062 18.148438 26.421875 18.644531 C 26.425781 19.136719 26.386719 19.625 26.296875 20.113281 C 26.207031 20.597656 26.070312 21.070312 25.886719 21.527344 C 25.703125 21.984375 25.476562 22.421875 25.207031 22.835938 C 24.9375 23.25 24.628906 23.632812 24.285156 23.984375 C 23.941406 24.335938 23.5625 24.652344 23.15625 24.929688 C 22.746094 25.210938 22.316406 25.445312 21.863281 25.636719 C 21.40625 25.832031 20.9375 25.976562 20.457031 26.078125 C 19.972656 26.175781 19.484375 26.230469 18.988281 26.234375 C 18.496094 26.234375 18.007812 26.191406 17.523438 26.097656 C 17.039062 26.003906 16.566406 25.863281 16.109375 25.679688 C 15.652344 25.492188 15.21875 25.261719 14.804688 24.988281 C 14.394531 24.71875 14.015625 24.40625 13.664062 24.058594 C 13.3125 23.710938 13 23.332031 12.726562 22.921875 C 12.449219 22.511719 12.21875 22.082031 12.027344 21.625 C 11.835938 21.167969 11.695312 20.699219 11.597656 20.214844 C 11.5 19.730469 11.453125 19.242188 11.453125 18.75 C 11.449219 18.265625 11.492188 17.78125 11.582031 17.304688 C 11.671875 16.824219 11.804688 16.363281 11.988281 15.910156 C 12.167969 15.460938 12.390625 15.03125 12.660156 14.621094 C 12.925781 14.214844 13.226562 13.839844 13.566406 13.492188 C 13.90625 13.144531 14.277344 12.832031 14.679688 12.558594 C 15.082031 12.285156 15.507812 12.050781 15.953125 11.859375 C 16.402344 11.667969 16.863281 11.523438 17.339844 11.421875 C 17.8125 11.324219 18.292969 11.269531 18.78125 11.265625 Z M 18.78125 11.265625 " fill-opacity="1" fill-rule="nonzero"/></g></svg>