<svg xmlns="http://www.w3.org/2000/svg" xmlns:xlink="http://www.w3.org/1999/xlink" width="50" zoomAndPan="magnify" viewBox="0 0 37.5 37.499999" height="50" preserveAspectRatio="xMidYMid meet" version="1.0"><defs><clipPath id="id1"><path d="M 5 5 L 33.75 5 L 33.75 33 L 5 33 Z M 5 5 " clip-rule="nonzero"/></clipPath></defs><g clip-path="url(#id1)"><path fill="rgb(100%, 100%, 100%)" d="M 10.445312 29.882812 C 10.585938 29.996094 10.742188 30.085938 10.910156 30.160156 C 11.074219 30.234375 11.25 30.285156 11.429688 30.3125 C 11.609375 30.34375 11.789062 30.347656 11.96875 30.332031 C 12.152344 30.316406 12.328125 30.277344 12.5 30.214844 C 12.667969 30.15625 12.832031 30.074219 12.980469 29.972656 C 13.132812 29.871094 13.269531 29.753906 13.386719 29.621094 C 13.507812 29.484375 13.609375 29.335938 13.695312 29.175781 C 13.777344 29.015625 13.835938 28.84375 13.878906 28.667969 L 13.878906 28.609375 C 14.09375 27.714844 15.09375 23.488281 15.507812 21.738281 C 15.613281 21.277344 15.597656 20.824219 15.464844 20.371094 C 15.324219 19.84375 15.265625 19.308594 15.277344 18.765625 C 15.277344 16.691406 16.488281 15.140625 17.996094 15.140625 C 19.277344 15.140625 19.898438 16.09375 19.898438 17.238281 C 19.898438 18.519531 19.078125 20.433594 18.65625 22.203125 C 18.613281 22.367188 18.589844 22.535156 18.585938 22.707031 C 18.585938 22.875 18.601562 23.042969 18.640625 23.207031 C 18.675781 23.375 18.730469 23.53125 18.808594 23.683594 C 18.882812 23.835938 18.972656 23.980469 19.082031 24.109375 C 19.191406 24.242188 19.3125 24.359375 19.449219 24.460938 C 19.582031 24.5625 19.730469 24.648438 19.886719 24.71875 C 20.042969 24.785156 20.203125 24.835938 20.371094 24.867188 C 20.539062 24.898438 20.707031 24.90625 20.878906 24.898438 C 23.527344 24.90625 25.34375 21.5 25.34375 17.464844 C 25.34375 14.398438 23.265625 12.101562 19.480469 12.101562 C 15.207031 12.101562 12.542969 15.265625 12.542969 18.800781 C 12.5 19.832031 12.808594 20.746094 13.46875 21.542969 C 13.585938 21.640625 13.660156 21.757812 13.699219 21.902344 C 13.738281 22.046875 13.726562 22.1875 13.671875 22.324219 C 13.605469 22.578125 13.449219 23.203125 13.382812 23.449219 C 13.351562 23.605469 13.261719 23.722656 13.117188 23.792969 C 12.972656 23.863281 12.828125 23.867188 12.679688 23.800781 C 10.707031 23 9.789062 20.859375 9.789062 18.449219 C 9.789062 14.449219 13.167969 9.707031 19.855469 9.707031 C 25.238281 9.707031 28.78125 13.574219 28.78125 17.703125 C 28.78125 23.203125 25.710938 27.300781 21.175781 27.300781 C 20.222656 27.304688 19.351562 27.039062 18.570312 26.5 C 18.464844 26.425781 18.347656 26.382812 18.21875 26.371094 C 18.09375 26.355469 17.96875 26.371094 17.851562 26.414062 C 17.730469 26.460938 17.628906 26.53125 17.542969 26.625 C 17.457031 26.722656 17.402344 26.832031 17.371094 26.953125 C 17.125 27.914062 16.828125 29.078125 16.730469 29.429688 C 16.667969 29.660156 16.589844 29.882812 16.503906 30.109375 C 16.445312 30.265625 16.40625 30.421875 16.386719 30.585938 C 16.367188 30.75 16.367188 30.914062 16.382812 31.082031 C 16.402344 31.246094 16.4375 31.40625 16.496094 31.5625 C 16.550781 31.714844 16.625 31.863281 16.714844 32.003906 C 16.804688 32.140625 16.910156 32.269531 17.03125 32.382812 C 17.148438 32.496094 17.28125 32.597656 17.425781 32.679688 C 17.570312 32.765625 17.71875 32.828125 17.878906 32.878906 C 18.039062 32.925781 18.203125 32.957031 18.367188 32.96875 C 19.433594 33.039062 20.492188 32.988281 21.546875 32.824219 C 22.074219 32.738281 22.59375 32.625 23.109375 32.484375 C 23.621094 32.339844 24.125 32.167969 24.621094 31.96875 C 25.113281 31.769531 25.59375 31.542969 26.0625 31.289062 C 26.53125 31.035156 26.984375 30.757812 27.421875 30.453125 C 27.855469 30.148438 28.273438 29.820312 28.671875 29.46875 C 29.070312 29.113281 29.449219 28.742188 29.804688 28.347656 C 30.160156 27.953125 30.492188 27.539062 30.800781 27.109375 C 31.109375 26.675781 31.394531 26.226562 31.652344 25.765625 C 31.910156 25.300781 32.140625 24.824219 32.34375 24.335938 C 32.546875 23.84375 32.71875 23.34375 32.867188 22.835938 C 33.011719 22.324219 33.128906 21.808594 33.214844 21.285156 C 33.304688 20.765625 33.359375 20.238281 33.386719 19.710938 C 33.414062 19.179688 33.410156 18.652344 33.378906 18.121094 C 33.34375 17.59375 33.28125 17.070312 33.1875 16.546875 C 33.09375 16.027344 32.96875 15.511719 32.816406 15.003906 C 32.664062 14.496094 32.484375 14 32.277344 13.511719 C 32.066406 13.023438 31.832031 12.550781 31.566406 12.089844 C 31.304688 11.628906 31.015625 11.183594 30.699219 10.757812 C 30.386719 10.328125 30.046875 9.917969 29.6875 9.53125 C 29.328125 9.140625 28.945312 8.769531 28.542969 8.425781 C 28.140625 8.078125 27.71875 7.753906 27.277344 7.453125 C 26.835938 7.15625 26.382812 6.882812 25.910156 6.632812 C 25.4375 6.386719 24.957031 6.164062 24.457031 5.972656 C 23.960938 5.777344 23.457031 5.613281 22.941406 5.476562 C 22.425781 5.339844 21.90625 5.234375 21.375 5.15625 C 20.847656 5.078125 20.320312 5.03125 19.785156 5.011719 C 19.253906 4.992188 18.71875 5.007812 18.1875 5.046875 C 17.65625 5.089844 17.128906 5.164062 16.605469 5.265625 C 16.082031 5.367188 15.566406 5.496094 15.058594 5.65625 C 14.550781 5.816406 14.050781 6.003906 13.566406 6.21875 C 13.078125 6.4375 12.605469 6.679688 12.144531 6.949219 C 11.6875 7.21875 11.242188 7.511719 10.820312 7.832031 C 10.394531 8.148438 9.988281 8.492188 9.601562 8.855469 C 9.214844 9.222656 8.847656 9.609375 8.507812 10.015625 C 8.164062 10.417969 7.847656 10.84375 7.550781 11.285156 C 7.257812 11.726562 6.988281 12.183594 6.75 12.65625 C 6.507812 13.128906 6.292969 13.613281 6.105469 14.109375 C 5.917969 14.605469 5.761719 15.113281 5.632812 15.625 C 5.503906 16.140625 5.40625 16.660156 5.335938 17.183594 C 5.265625 17.710938 5.226562 18.238281 5.21875 18.765625 C 5.210938 19.296875 5.230469 19.824219 5.28125 20.351562 C 5.335938 20.878906 5.414062 21.402344 5.527344 21.921875 C 5.636719 22.4375 5.777344 22.949219 5.949219 23.449219 C 6.117188 23.953125 6.316406 24.445312 6.539062 24.925781 C 6.765625 25.402344 7.019531 25.871094 7.296875 26.320312 C 7.574219 26.773438 7.878906 27.207031 8.207031 27.625 C 8.535156 28.042969 8.886719 28.441406 9.261719 28.816406 C 9.636719 29.195312 10.03125 29.550781 10.445312 29.882812 Z M 10.445312 29.882812 " fill-opacity="1" fill-rule="nonzero"/></g></svg>