<svg xmlns="http://www.w3.org/2000/svg" xmlns:xlink="http://www.w3.org/1999/xlink" width="50" zoomAndPan="magnify" viewBox="0 0 37.5 37.499999" height="50" preserveAspectRatio="xMidYMid meet" version="1.0"><defs><clipPath id="id1"><path d="M 9.804688 3.75 L 27.804688 3.75 L 27.804688 33.75 L 9.804688 33.75 Z M 9.804688 3.75 " clip-rule="nonzero"/></clipPath></defs><g clip-path="url(#id1)"><path fill="rgb(100%, 100%, 100%)" d="M 19.964844 3.75 L 17.488281 3.75 C 17.261719 3.746094 17.058594 3.816406 16.878906 3.953125 C 16.699219 4.09375 16.582031 4.273438 16.527344 4.492188 C 16.128906 6.191406 15.394531 7.726562 14.320312 9.105469 C 13.25 10.484375 11.9375 11.578125 10.382812 12.386719 C 9.988281 12.605469 9.796875 12.9375 9.804688 13.382812 L 9.804688 16.890625 C 9.804688 17.035156 9.832031 17.175781 9.886719 17.3125 C 9.945312 17.445312 10.023438 17.566406 10.128906 17.667969 C 10.230469 17.769531 10.351562 17.851562 10.488281 17.90625 C 10.621094 17.960938 10.765625 17.988281 10.910156 17.988281 L 13.183594 17.988281 C 13.402344 17.988281 13.589844 18.066406 13.742188 18.222656 C 13.898438 18.375 13.976562 18.5625 13.976562 18.777344 L 13.976562 27.128906 C 13.976562 28.542969 15.316406 33.691406 22.167969 33.691406 C 23.070312 33.722656 23.945312 33.585938 24.796875 33.289062 C 25.652344 32.992188 26.417969 32.550781 27.105469 31.964844 C 27.351562 31.75 27.507812 31.480469 27.574219 31.160156 C 27.640625 30.839844 27.601562 30.53125 27.464844 30.238281 L 26.882812 28.90625 C 26.808594 28.730469 26.703125 28.578125 26.566406 28.445312 C 26.429688 28.308594 26.273438 28.207031 26.097656 28.132812 C 25.921875 28.058594 25.734375 28.019531 25.542969 28.019531 C 25.351562 28.015625 25.167969 28.050781 24.988281 28.117188 C 24.511719 28.304688 24.015625 28.398438 23.503906 28.394531 C 21.765625 28.394531 20.960938 27.335938 20.960938 25.773438 L 20.960938 18.753906 C 20.960938 18.539062 21.039062 18.351562 21.191406 18.199219 C 21.347656 18.042969 21.535156 17.96875 21.753906 17.96875 L 25.527344 17.96875 C 25.675781 17.96875 25.816406 17.9375 25.953125 17.882812 C 26.085938 17.828125 26.207031 17.746094 26.3125 17.644531 C 26.414062 17.542969 26.496094 17.421875 26.550781 17.289062 C 26.605469 17.152344 26.636719 17.011719 26.636719 16.867188 L 26.636719 13.695312 C 26.632812 13.550781 26.605469 13.410156 26.550781 13.273438 C 26.492188 13.140625 26.414062 13.023438 26.308594 12.921875 C 26.203125 12.816406 26.085938 12.738281 25.949219 12.683594 C 25.816406 12.628906 25.675781 12.601562 25.527344 12.601562 L 21.988281 12.601562 C 21.851562 12.601562 21.71875 12.574219 21.589844 12.523438 C 21.464844 12.46875 21.355469 12.394531 21.257812 12.300781 C 21.160156 12.203125 21.085938 12.09375 21.035156 11.96875 C 20.980469 11.84375 20.953125 11.710938 20.953125 11.574219 L 20.953125 4.734375 C 20.953125 4.605469 20.929688 4.476562 20.878906 4.359375 C 20.828125 4.238281 20.757812 4.128906 20.664062 4.039062 C 20.570312 3.945312 20.464844 3.875 20.34375 3.824219 C 20.222656 3.773438 20.09375 3.75 19.964844 3.75 Z M 19.964844 3.75 " fill-opacity="1" fill-rule="nonzero"/></g></svg>