<svg xmlns="http://www.w3.org/2000/svg" xmlns:xlink="http://www.w3.org/1999/xlink" width="50" zoomAndPan="magnify" viewBox="0 0 37.5 37.499999" height="50" preserveAspectRatio="xMidYMid meet" version="1.0"><defs><clipPath id="id1"><path d="M 4 9.96875 L 33 9.96875 L 33 27.21875 L 4 27.21875 Z M 4 9.96875 " clip-rule="nonzero"/></clipPath></defs><g clip-path="url(#id1)"><path fill="rgb(100%, 100%, 100%)" d="M 14.742188 18.261719 C 14.160156 18.59375 13.359375 17.917969 11.660156 14.835938 C 10.785156 13.257812 10.691406 12.226562 10.121094 11.511719 C 9.84375 11.207031 9.503906 11.011719 9.09375 10.925781 L 4.988281 10.925781 C 4.988281 10.925781 4.289062 10.867188 4.148438 11.058594 C 4.003906 11.25 4.148438 11.820312 4.148438 11.820312 C 4.148438 11.820312 7.359375 19.636719 11.003906 23.582031 C 14.308594 27.191406 18.097656 27.015625 18.097656 27.015625 C 18.097656 27.015625 20.304688 27.117188 20.601562 26.585938 C 20.757812 26.351562 20.835938 26.089844 20.839844 25.804688 C 20.839844 25.804688 20.804688 23.40625 21.867188 23.058594 C 22.929688 22.707031 24.277344 25.367188 25.710938 26.394531 C 26.828125 27.132812 27.140625 27.015625 27.65625 27.015625 L 31.496094 27.015625 C 31.496094 27.015625 33.507812 26.808594 32.550781 25.171875 C 32.476562 25.035156 32 23.960938 29.699219 21.742188 C 27.292969 19.414062 27.613281 19.792969 30.515625 15.773438 C 32.28125 13.328125 32.988281 11.835938 32.761719 11.195312 C 32.628906 10.824219 31.25 10.925781 31.25 10.925781 L 26.910156 10.925781 C 26.519531 10.914062 26.207031 11.0625 25.972656 11.371094 C 25.488281 12.203125 25.289062 13.265625 24.375 14.871094 C 22.449219 18.269531 21.679688 18.445312 21.367188 18.234375 C 20.632812 17.730469 20.820312 16.257812 20.820312 15.207031 C 20.820312 11.914062 21.300781 10.542969 19.882812 10.164062 C 19.546875 10.078125 19.207031 10.027344 18.859375 10.007812 C 18.308594 9.96875 17.753906 9.957031 17.199219 9.96875 C 15.917969 9.96875 14.914062 10.011719 14.285156 10.335938 C 13.769531 10.582031 13.410156 11.144531 13.648438 11.179688 C 14.167969 11.242188 14.585938 11.480469 14.90625 11.886719 C 15.347656 12.515625 15.332031 13.902344 15.332031 13.902344 C 15.332031 13.902344 15.589844 17.78125 14.742188 18.261719 Z M 14.742188 18.261719 " fill-opacity="1" fill-rule="nonzero"/></g></svg>