<svg xmlns="http://www.w3.org/2000/svg" xmlns:xlink="http://www.w3.org/1999/xlink" width="50" zoomAndPan="magnify" viewBox="0 0 37.5 37.499999" height="50" preserveAspectRatio="xMidYMid meet" version="1.0"><defs><clipPath id="id1"><path d="M 6.054688 3.75 L 31.554688 3.75 L 31.554688 33.75 L 6.054688 33.75 Z M 6.054688 3.75 " clip-rule="nonzero"/></clipPath></defs><g clip-path="url(#id1)"><path fill="rgb(100%, 100%, 100%)" d="M 23.011719 22.054688 C 22.828125 21.992188 21.65625 21.46875 22.390625 19.253906 L 22.378906 19.253906 C 24.285156 17.300781 25.742188 14.15625 25.742188 11.0625 C 25.742188 6.300781 22.5625 3.804688 18.867188 3.804688 C 15.167969 3.804688 12.003906 6.300781 12.003906 11.0625 C 12.003906 14.167969 13.453125 17.328125 15.371094 19.277344 C 16.117188 21.226562 14.78125 21.953125 14.503906 22.054688 C 10.632812 23.449219 6.089844 25.988281 6.089844 28.492188 C 6.089844 29.171875 6.089844 28.761719 6.089844 29.433594 C 6.089844 32.851562 12.746094 33.625 18.902344 33.625 C 25.066406 33.625 31.636719 32.851562 31.636719 29.433594 C 31.636719 28.761719 31.636719 29.171875 31.636719 28.492188 C 31.636719 25.910156 27.074219 23.390625 23.011719 22.054688 Z M 23.011719 22.054688 " fill-opacity="1" fill-rule="nonzero"/></g></svg>